<svg width="20" height="20" viewBox="0 0 20 20" fill="none" xmlns="http://www.w3.org/2000/svg">
<path d="M17.0833 5.625C17.0833 3.89908 15.6841 2.5 13.9583 2.5C12.2324 2.5 10.8333 3.89908 10.8333 5.625C10.8333 7.35092 12.2324 8.75 13.9583 8.75C15.6841 8.75 17.0833 7.35092 17.0833 5.625Z" stroke="black" stroke-width="1.5" stroke-linecap="round" stroke-linejoin="round"/>
<path d="M15.8333 8.33337L17.4999 10" stroke="black" stroke-width="1.5" stroke-linecap="round" stroke-linejoin="round"/>
<path d="M8.33325 4.00002C6.90361 4.59172 6.42457 5.07295 5.83325 6.50164C5.24193 5.07107 4.76102 4.59172 3.33325 4.00002C4.76289 3.40833 5.24193 2.9271 5.83325 1.49841C6.42457 2.92897 6.90548 3.40833 8.33325 4.00002Z" fill="black"/>
<path d="M16.6667 15C15.2371 15.5917 14.7581 16.0729 14.1667 17.5016C13.5754 16.0711 13.0945 15.5917 11.6667 15C13.0964 14.4083 13.5754 13.9271 14.1667 12.4984C14.7581 13.929 15.239 14.4083 16.6667 15Z" fill="black"/>
<path d="M8.33325 15C6.90361 15.5917 6.42457 16.0729 5.83325 17.5016C5.24193 16.0711 4.76102 15.5917 3.33325 15C4.76289 14.4083 5.24193 13.9271 5.83325 12.4984C6.42457 13.929 6.90548 14.4083 8.33325 15Z" fill="black"/>
</svg>
