<svg width="24" height="24" viewBox="0 0 24 24" fill="none" xmlns="http://www.w3.org/2000/svg">
<path fill-rule="evenodd" clip-rule="evenodd" d="M10.3187 3.99064C11.0162 2.66908 12.9871 2.67017 13.6839 3.99161C15.2191 6.90264 17.1031 8.78334 20.012 10.3178C21.3334 11.0152 21.3321 12.986 20.0111 13.683C17.1001 15.2182 15.2193 17.1022 13.6849 20.0111C12.9877 21.3329 11.0168 21.3322 10.3197 20.0111C8.78451 17.1 6.90045 15.2185 3.99153 13.684C2.66983 12.9867 2.67046 11.0159 3.99153 10.3188C6.90248 8.78359 8.78425 6.89963 10.3187 3.99064ZM12.0013 4.49943C11.8288 4.4994 11.7042 4.58051 11.6458 4.69083C9.97063 7.86671 7.87047 9.9685 4.69172 11.6449C4.58118 11.7032 4.50038 11.8288 4.50032 12.0014C4.50029 12.174 4.58125 12.2986 4.69172 12.3568C7.86751 14.0321 9.96944 16.1321 11.6458 19.3109C11.7042 19.4215 11.8297 19.5023 12.0023 19.5024C12.1746 19.5022 12.2995 19.4213 12.3577 19.3109C14.033 16.1351 16.1329 14.0333 19.3118 12.3568C19.4222 12.2985 19.5032 12.1729 19.5032 12.0004C19.5032 11.8281 19.4221 11.7032 19.3118 11.6449C16.1359 9.96966 14.0342 7.86981 12.3577 4.69083C12.2995 4.58035 12.1737 4.49959 12.0013 4.49943Z" fill="black"/>
</svg>
