<svg width="24" height="24" viewBox="0 0 24 24" fill="none" xmlns="http://www.w3.org/2000/svg">
<path d="M10.3174 3.99126C11.0147 2.66944 12.9857 2.6707 13.6826 3.99223C15.2178 6.90316 17.1019 8.78399 20.0107 10.3184C21.3326 11.0158 21.3313 12.9867 20.0098 13.6836C17.099 15.2188 15.218 17.1029 13.6836 20.0118C12.9862 21.333 11.0155 21.3325 10.3184 20.0118C8.78317 17.1006 6.89932 15.2191 3.99023 13.6846C2.66879 12.9874 2.66968 11.0167 3.99023 10.3194C6.90123 8.78426 8.78294 6.90009 10.3174 3.99126ZM12 4.50005C11.8276 4.50014 11.7028 4.58107 11.6445 4.69145C9.96932 7.86717 7.86922 9.96918 4.69043 11.6456C4.58011 11.704 4.49905 11.8296 4.49902 12.002C4.49914 12.1743 4.58011 12.2992 4.69043 12.3575C7.86638 14.0327 9.96809 16.1326 11.6445 19.3116C11.7028 19.422 11.8286 19.5028 12.001 19.503C12.1733 19.503 12.2981 19.4217 12.3564 19.3116C14.0316 16.1358 16.1318 14.0339 19.3105 12.3575C19.421 12.2992 19.5018 12.1734 19.502 12.001C19.5019 11.8285 19.421 11.7038 19.3105 11.6456C16.1347 9.97031 14.0329 7.87033 12.3564 4.69145C12.2981 4.58088 12.1727 4.50008 12 4.50005Z" fill="black"/>
</svg>
