<svg width="20" height="20" viewBox="0 0 20 20" fill="none" xmlns="http://www.w3.org/2000/svg">
<path d="M10 1.75C10.4348 1.75 10.8577 1.89308 11.2031 2.15723L17.3018 6.82031C17.8995 7.27752 18.25 7.98756 18.25 8.74023V16.667C18.2498 18.0016 17.1676 19.083 15.833 19.083H4.16699C2.83242 19.083 1.75018 18.0016 1.75 16.667V8.74023C1.75002 7.98758 2.10041 7.27755 2.69824 6.82031L8.79688 2.15723C9.14235 1.89308 9.56515 1.75 10 1.75ZM10 8.5C9.29042 10.2133 8.71557 10.7904 7 11.5C8.71332 12.2096 9.29042 12.7844 10 14.5C10.7096 12.7867 11.2844 12.2096 13 11.5C11.2867 10.7904 10.7096 10.2156 10 8.5Z" fill="black"/>
</svg>
