<svg width="120" height="108" viewBox="0 0 120 108" fill="none" xmlns="http://www.w3.org/2000/svg">
<path d="M109.192 107.796C108.69 107.796 108.223 107.755 107.786 107.678C107.354 107.601 106.994 107.507 106.716 107.389L107.603 104.449C108.063 104.591 108.483 104.668 108.849 104.679C109.227 104.691 109.547 104.603 109.818 104.42C110.096 104.237 110.321 103.918 110.492 103.475L110.722 102.873L105.629 88.2812H109.771L112.714 98.6998H112.862L115.828 88.2812H120L114.481 104.001C114.215 104.762 113.854 105.429 113.399 105.996C112.95 106.568 112.377 107.011 111.692 107.318C111 107.631 110.167 107.79 109.198 107.79L109.192 107.796Z" fill="url(#paint0_linear_1158_78266)"/>
<path d="M95.9559 102.744C95.0517 102.744 94.2422 102.585 93.533 102.272C92.8239 101.953 92.2625 101.481 91.8489 100.861C91.4411 100.235 91.2402 99.4503 91.2402 98.5176C91.2402 97.7266 91.388 97.0654 91.6775 96.5342C91.9671 95.997 92.363 95.566 92.8594 95.2414C93.3617 94.9167 93.9231 94.6687 94.5613 94.5035C95.1995 94.3382 95.8731 94.2201 96.5763 94.1552C97.4036 94.0666 98.0655 93.9899 98.5737 93.9131C99.0819 93.8305 99.4482 93.7183 99.6728 93.5649C99.9033 93.4114 100.016 93.1811 100.016 92.8801V92.827C100.016 92.2425 99.8323 91.788 99.4601 91.4692C99.0937 91.1504 98.5796 90.9911 97.9059 90.9911C97.1968 90.9911 96.6354 91.1504 96.2159 91.4633C95.7963 91.7703 95.5186 92.1599 95.3827 92.6262L91.7425 92.3311C91.9257 91.4692 92.2921 90.7254 92.8358 90.0938C93.3794 89.4621 94.0767 88.9722 94.9335 88.6357C95.7963 88.2933 96.795 88.1162 97.9296 88.1162C98.7214 88.1162 99.4719 88.2107 100.193 88.3937C100.92 88.5767 101.564 88.8659 102.125 89.2555C102.692 89.6451 103.142 90.141 103.467 90.749C103.792 91.3512 103.957 92.0772 103.957 92.9214V102.49H100.222V100.525H100.11C99.8796 100.967 99.5782 101.357 99.1941 101.699C98.81 102.03 98.355 102.296 97.8173 102.485C97.2795 102.668 96.6591 102.762 95.9559 102.762V102.744ZM97.0845 100.029C97.6636 100.029 98.1777 99.9167 98.6209 99.6865C99.0641 99.4503 99.4128 99.1375 99.6669 98.7419C99.921 98.3464 100.045 97.9037 100.045 97.4019V95.8966C99.921 95.9793 99.7496 96.0501 99.5369 96.1209C99.3301 96.18 99.0878 96.239 98.8278 96.298C98.5619 96.3453 98.2959 96.3925 98.03 96.4338C97.7641 96.4692 97.5218 96.5046 97.3091 96.5342C96.8482 96.5991 96.4404 96.7113 96.0977 96.8588C95.7549 97.0064 95.4831 97.2071 95.294 97.461C95.1049 97.7089 95.0045 98.0159 95.0045 98.3819C95.0045 98.919 95.1995 99.3264 95.5895 99.6097C95.9854 99.8872 96.4818 100.023 97.0845 100.023V100.029Z" fill="url(#paint1_linear_1158_78266)"/>
<path d="M80.327 102.709C79.2456 102.709 78.2706 102.431 77.396 101.876C76.5273 101.315 75.8359 100.495 75.3218 99.4087C74.8136 98.3166 74.5654 96.9825 74.5654 95.4004C74.5654 93.8184 74.8254 92.4252 75.3514 91.3449C75.8773 90.2588 76.5746 89.45 77.4433 88.9128C78.3178 88.3697 79.2751 88.0982 80.3211 88.0982C81.1188 88.0982 81.7807 88.234 82.3066 88.5055C82.8443 88.7712 83.2757 89.1017 83.6007 89.5031C83.9317 89.8987 84.1858 90.2824 84.3571 90.6661H84.4753V83.5527H88.405V102.472H84.5226V100.2H84.3571C84.1739 100.595 83.908 100.985 83.5712 101.374C83.2403 101.758 82.803 102.071 82.2652 102.325C81.7334 102.579 81.0893 102.703 80.3211 102.703L80.327 102.709ZM81.5738 99.574C82.2061 99.574 82.7439 99.4028 83.1812 99.0545C83.6244 98.7062 83.9612 98.2163 84.1976 97.5846C84.4399 96.9589 84.558 96.221 84.558 95.3768C84.558 94.5327 84.4399 93.8007 84.2094 93.1808C83.973 92.561 83.6362 92.0769 83.193 91.7405C82.7498 91.404 82.2121 91.2328 81.5738 91.2328C80.9356 91.2328 80.3802 91.4099 79.937 91.7582C79.4938 92.1065 79.1569 92.5964 78.9265 93.2163C78.696 93.8361 78.5837 94.5563 78.5837 95.3768C78.5837 96.1974 78.696 96.9294 78.9265 97.5669C79.1629 98.1926 79.4938 98.6885 79.937 99.0427C80.3802 99.391 80.9238 99.5681 81.5738 99.5681V99.574Z" fill="url(#paint2_linear_1158_78266)"/>
<path d="M65.2827 102.755C63.8467 102.755 62.6058 102.448 61.5539 101.84C60.5139 101.226 59.7102 100.37 59.1429 99.2723C58.5756 98.1684 58.292 96.8933 58.292 95.4411C58.292 93.9889 58.5756 92.6962 59.1429 91.5982C59.7102 90.4943 60.5139 89.6383 61.5539 89.0303C62.5999 88.4163 63.8467 88.1094 65.2827 88.1094C66.7186 88.1094 67.9596 88.4163 68.9996 89.0303C70.0456 89.6383 70.8551 90.4943 71.4224 91.5982C71.9897 92.6962 72.2734 93.9771 72.2734 95.4411C72.2734 96.9051 71.9897 98.1743 71.4224 99.2723C70.8551 100.37 70.0456 101.226 68.9996 101.84C67.9596 102.448 66.7186 102.755 65.2827 102.755ZM65.3004 99.7032C65.9563 99.7032 66.5 99.5202 66.9373 99.1483C67.3746 98.7705 67.7055 98.2629 67.9241 97.6135C68.1546 96.9642 68.2669 96.2322 68.2669 95.4057C68.2669 94.5793 68.1546 93.8473 67.9241 93.1979C67.6996 92.5486 67.3746 92.0409 66.9373 91.6631C66.5 91.2853 65.9563 91.1023 65.3004 91.1023C64.6445 91.1023 64.0831 91.2912 63.634 91.6631C63.1908 92.0409 62.854 92.5486 62.6235 93.1979C62.399 93.8473 62.2926 94.5793 62.2926 95.4057C62.2926 96.2322 62.4049 96.9642 62.6235 97.6135C62.854 98.2629 63.1849 98.7705 63.634 99.1483C64.0831 99.5202 64.6386 99.7032 65.3004 99.7032Z" fill="url(#paint3_linear_1158_78266)"/>
<path d="M42.6221 86.8585V83.5586H58.1753V86.8585H52.3783V102.478H48.4191V86.8585H42.6221Z" fill="url(#paint4_linear_1158_78266)"/>
<path d="M35.7853 83.5586H39.7918V95.8431C39.7918 97.2245 39.4609 98.4287 38.805 99.4618C38.149 100.495 37.239 101.304 36.0571 101.882C34.8812 102.455 33.5102 102.744 31.9443 102.744C30.3783 102.744 28.9955 102.455 27.8196 101.882C26.6436 101.304 25.7277 100.495 25.0718 99.4618C24.4158 98.4287 24.0908 97.2186 24.0908 95.8431V83.5586H28.0973V95.5007C28.0973 96.2209 28.2569 96.8644 28.5701 97.4193C28.8892 97.9801 29.3383 98.4228 29.9174 98.7416C30.4965 99.0604 31.1702 99.2197 31.9443 99.2197C32.7184 99.2197 33.398 99.0604 33.9712 98.7416C34.5503 98.4228 34.9994 97.9801 35.3126 97.4193C35.6317 96.8585 35.7912 96.2209 35.7912 95.5007V83.5586H35.7853Z" fill="url(#paint5_linear_1158_78266)"/>
<path d="M0.00585938 83.5586H4.94577L10.1634 96.2675H10.388L15.6056 83.5586H20.5455V102.477H16.6633V90.1639H16.5038L11.6052 102.383H8.95798L4.05943 90.1167H3.89988V102.477H0.00585938V83.5586Z" fill="url(#paint6_linear_1158_78266)"/>
<path d="M119.994 12.0586C110.912 12.0586 103.55 19.4073 103.55 28.4737V51.1751C103.491 56.1156 99.4552 60.1116 94.5037 60.1116C89.5522 60.1116 85.5402 56.1333 85.4575 51.2223C85.4575 51.1751 85.4515 51.122 85.4515 51.0747V37.2745L85.3866 35.669C85.0498 30.758 83.2772 26.1894 80.441 22.3645C79.4838 21.0837 78.4084 19.8972 77.2325 18.8171C76.9135 18.5278 76.5944 18.2445 76.2694 17.973C76.104 17.8313 75.9326 17.6956 75.7613 17.5539L75.5958 17.4241C75.5486 17.3886 75.4954 17.3473 75.4481 17.3119C75.3713 17.2529 75.2827 17.1879 75.1822 17.1171C74.875 16.8869 74.5736 16.6685 74.2605 16.456C72.417 15.187 70.4848 14.2071 68.5054 13.5047C68.2513 13.4103 67.9913 13.3217 67.7255 13.2391C64.7947 12.3006 61.7754 11.9405 58.8033 12.1058C58.6083 12.1117 58.4193 12.1235 58.2243 12.1412C53.1605 12.5308 48.274 14.4137 44.2561 17.5008C44.1675 17.5657 44.0847 17.6306 44.002 17.7015C43.8779 17.8018 43.7539 17.9022 43.6298 18.0025C43.1039 18.4393 42.3476 18.4216 41.8217 17.9848C41.8217 17.9848 41.8158 17.9848 41.8158 17.9789C41.6504 17.8372 41.479 17.7015 41.3077 17.5598L41.1422 17.43C41.095 17.3945 41.0418 17.3532 40.9945 17.3178C40.9177 17.2588 40.8291 17.1939 40.7286 17.123C38.6133 15.5293 36.3621 14.3311 34.0518 13.5106C33.7977 13.4162 33.5377 13.3277 33.2718 13.245C30.3411 12.3065 27.3218 11.9464 24.3497 12.1117C24.1547 12.1176 23.9656 12.1294 23.7706 12.1471C18.7069 12.5367 13.8204 14.4196 9.80248 17.5067C9.71385 17.5716 9.63113 17.6365 9.54841 17.7074C4.1774 21.9159 0.437194 28.3202 0.0413116 36.1412C0.0176768 36.5957 0.00585938 37.0561 0.00585938 37.5165V76.5326C0.54946 76.5326 1.09306 76.509 1.62484 76.4559C9.39478 75.6945 15.5753 69.544 16.3611 61.7939C16.4202 61.2449 16.4439 60.6842 16.4439 60.1175V37.4161C16.5029 32.4757 20.5386 28.4796 25.4901 28.4796C30.1343 28.4796 33.9632 31.9917 34.4772 36.4894C34.5127 36.8259 34.5422 37.1682 34.5422 37.5165V60.0172C34.5422 61.0501 35.0799 62.0123 35.9544 62.5553L41.1363 65.7781C42.0994 66.3743 43.3225 66.3802 44.2916 65.7899L49.4794 62.6084C50.3421 62.0772 50.8916 61.1446 50.8916 60.1352V37.4102C50.8916 37.1151 50.9152 36.8318 50.9447 36.5544C51.4234 32.0212 55.2699 28.4737 59.9378 28.4737C64.8834 28.4737 68.9013 32.4521 68.984 37.363C68.984 37.4102 68.9899 37.4634 68.9899 37.5106V51.3108L69.0549 52.9223C69.3031 56.5464 70.3371 59.9818 72.0033 63.0747C72.5942 64.1726 73.2619 65.2292 74.0064 66.2267C74.9636 67.5076 76.039 68.694 77.2148 69.7742C77.5339 70.0634 77.853 70.3467 78.1779 70.6182C78.3434 70.7599 78.5147 70.8957 78.6861 71.0373L78.8515 71.1672C78.8988 71.2026 78.952 71.2439 78.9993 71.2793C79.0761 71.3383 79.1647 71.4033 79.2651 71.4741C79.5724 71.7043 79.8737 71.9227 80.1869 72.1352C80.9196 72.6369 81.6641 73.0855 82.4204 73.4987C83.5726 74.1244 84.7425 74.6674 85.942 75.0924C86.196 75.1868 86.456 75.2754 86.7219 75.358C89.6526 76.2965 92.672 76.6566 95.6441 76.4913C95.839 76.4854 96.0281 76.4736 96.2231 76.4559C98.7638 76.2611 101.251 75.6945 103.615 74.7796C105.967 73.8706 108.188 72.6369 110.185 71.0963C110.274 71.0314 110.357 70.9665 110.439 70.8957C113.92 68.1509 116.709 64.4913 118.351 60.1234C119.243 57.7624 119.799 55.1889 119.935 52.4441C119.958 51.9896 119.97 51.5292 119.97 51.0688V12.0586H119.988H119.994Z" fill="url(#paint7_linear_1158_78266)"/>
<path d="M24.3497 12.0886C27.3218 11.9293 30.3412 12.2834 33.2719 13.2219C33.5378 13.3046 33.7977 13.3931 34.0518 13.4876C36.368 14.308 38.6133 15.5062 40.7287 17.0999C40.8291 17.1708 40.9118 17.2357 40.9945 17.2947C41.0477 17.3301 41.095 17.3715 41.1423 17.4069L41.3077 17.5367C41.4791 17.6784 41.6504 17.8142 41.8159 17.9558L41.8218 17.9617C42.3476 18.4044 43.104 18.4162 43.6298 17.9794C43.7539 17.8791 43.878 17.7787 44.0021 17.6784C44.0907 17.6076 44.1734 17.5367 44.2561 17.4777C48.2682 14.3906 53.1546 12.5077 58.2243 12.1181C58.4193 12.1004 58.6143 12.0945 58.8034 12.0827C61.7754 11.9234 64.7948 12.2775 67.7255 13.216C67.9914 13.2987 68.2514 13.3872 68.5054 13.4816C70.4849 14.1841 72.417 15.1698 74.2605 16.4329C74.5678 16.6454 74.875 16.8638 75.1823 17.094C75.2827 17.1649 75.3654 17.2298 75.4482 17.2888C75.4954 17.3242 75.5486 17.3656 75.5959 17.401L75.7613 17.5308C75.9327 17.6725 76.104 17.8082 76.2695 17.9499C76.5945 18.2273 76.9135 18.5048 77.2326 18.794C78.4084 19.8742 79.4838 21.0606 80.441 22.3414C80.441 22.3473 80.4528 22.3532 80.4528 22.3591C80.2224 22.1526 79.986 21.946 79.7497 21.7453C79.5783 21.6036 79.4011 21.462 79.2297 21.3144L79.0584 21.1786C79.0052 21.1373 78.9579 21.096 78.9047 21.0606C78.822 21.0016 78.7334 20.9307 78.6329 20.8599C78.3198 20.6238 78.0066 20.3995 77.6876 20.1811C75.7968 18.8766 73.8115 17.8732 71.7789 17.1472C71.513 17.0527 71.2471 16.9583 70.9753 16.8756C67.9678 15.9076 64.8657 15.5417 61.8168 15.7069C61.6218 15.7128 61.4209 15.7246 61.22 15.7423C56.0204 16.1378 50.998 18.0739 46.8796 21.2436C46.791 21.3085 46.7083 21.3793 46.6137 21.4501C46.4837 21.5505 46.3596 21.6567 46.2297 21.7571C45.6861 22.2057 44.912 22.188 44.3743 21.7394C44.3743 21.7394 44.3684 21.7394 44.3684 21.7335C44.1971 21.5918 44.0198 21.4501 43.8484 21.3026L43.6771 21.1668C43.6239 21.1255 43.5766 21.0842 43.5235 21.0488C43.4408 20.9897 43.3521 20.9189 43.2517 20.8481C41.0832 19.2072 38.7729 17.9794 36.3917 17.1413C36.1258 17.0468 35.8599 16.9524 35.5881 16.8638C32.5806 15.8958 29.4785 15.5298 26.4296 15.6951C26.2346 15.701 26.0337 15.7128 25.8328 15.7305C20.6332 16.126 15.6108 18.0621 11.4924 21.2318C11.4038 21.2967 11.3211 21.3675 11.2324 21.4383C5.71371 25.7827 1.87306 32.3581 1.46536 40.3916C1.43581 40.8579 1.424 41.3301 1.424 41.8082V76.4328C0.957209 76.4741 0.478605 76.4918 0 76.4918V37.517C0 37.0566 0.0118174 36.5962 0.0354522 36.1417C0.425426 28.3208 4.17154 21.9165 9.54255 17.6843C9.62527 17.6135 9.70799 17.5426 9.79662 17.4836C13.8086 14.3966 18.6951 12.5136 23.7648 12.1241C23.9598 12.1063 24.1548 12.1004 24.3438 12.0886H24.3497ZM68.3991 34.306C70.7094 35.9646 72.222 38.6562 72.2752 41.696C72.2752 41.7492 72.2811 41.7964 72.2811 41.8495V56.0275L72.3461 57.6803C72.5884 61.21 73.5574 64.5686 75.1173 67.6202C74.7332 67.1716 74.361 66.7171 74.0124 66.2449C73.2679 65.2415 72.6002 64.1908 72.0093 63.0929C70.343 60 69.309 56.5647 69.0609 52.9405L68.9959 51.3291V37.5288C68.9959 37.4816 68.99 37.4285 68.99 37.3813C68.9722 36.307 68.7654 35.274 68.3991 34.3178V34.306ZM119.982 16.3562C112.933 18.3808 107.775 24.8737 107.775 32.5588V55.8859C107.716 60.9503 103.574 65.0526 98.4803 65.0526C94.3737 65.0526 90.8994 62.3905 89.6704 58.7132C91.0708 59.5986 92.7252 60.1121 94.5096 60.1121C99.467 60.1121 103.503 56.1161 103.556 51.1874V28.4742C103.556 27.276 103.686 26.1073 103.928 24.9799C104.59 24.6435 105.323 24.3129 106.15 23.9706C105.523 23.7108 104.95 23.457 104.419 23.2032C105.429 20.2224 107.272 17.6312 109.671 15.6951C109.73 15.8309 109.79 15.9666 109.849 16.1083C109.967 15.8191 110.091 15.5417 110.209 15.2819C112.939 13.2573 116.325 12.0591 119.988 12.0532V16.3503L119.982 16.3562ZM34.2941 35.4098C35.6767 36.8441 36.6044 38.7152 36.8407 40.7929C36.8821 41.1412 36.9057 41.4895 36.9057 41.8495V63.1461L35.9662 62.5617C35.0858 62.0187 34.5541 61.0566 34.5541 60.0236V37.5229C34.5541 37.1747 34.5304 36.8323 34.4891 36.4959C34.4477 36.1299 34.3827 35.7698 34.3 35.4157L34.2941 35.4098Z" fill="url(#paint8_linear_1158_78266)"/>
<path d="M119.983 16.4502C111.421 17.2706 104.732 24.4718 104.732 33.2312V56.5583C104.673 61.6227 100.531 65.725 95.438 65.725C90.3506 65.725 86.2322 61.6404 86.1495 56.5937C86.1495 56.5465 86.1436 56.4934 86.1436 56.4402V54.516C87.4967 57.7919 90.7288 60.1058 94.5044 60.1058C99.4618 60.1058 103.497 56.1097 103.551 51.181V28.4678C103.551 19.4074 110.907 12.0586 119.983 12.0527V16.4443V16.4502ZM50.8332 60.7373C50.7919 60.9262 50.7328 61.1092 50.656 61.2863V60.9085L50.8332 60.7373ZM68.9966 40.4324C69.1384 41.0581 69.2211 41.7015 69.2329 42.3685C69.2329 42.4157 69.2388 42.4688 69.2388 42.5219V54.6577C69.162 54.091 69.097 53.5126 69.0616 52.9341L68.9966 51.3227V40.4383V40.4324ZM58.81 12.0941C61.7821 11.9347 64.8014 12.2888 67.7321 13.2274C67.998 13.31 68.258 13.3985 68.5121 13.493C70.4915 14.1954 72.4236 15.1811 74.2671 16.4443C74.5744 16.6568 74.8816 16.8752 75.1889 17.1054C75.2893 17.1762 75.3721 17.2411 75.4548 17.3001C75.5021 17.3356 75.5552 17.3769 75.6025 17.4123L75.7679 17.5421C75.9393 17.6838 76.1107 17.8196 76.2761 17.9612C76.6011 18.2387 76.9201 18.5161 77.2392 18.8053C78.415 19.8855 79.4904 21.0719 80.4476 22.3528C83.2838 26.1776 85.0564 30.7463 85.3932 35.6572L85.4228 36.3478C84.5955 32.9243 83.077 29.7428 80.9972 26.945C80.0163 25.6287 78.9055 24.4128 77.7001 23.3031C77.3751 23.0079 77.0442 22.7128 76.7133 22.4354C76.542 22.2937 76.3647 22.1521 76.1934 22.0045L76.022 21.8687C75.9747 21.8274 75.9216 21.7861 75.8684 21.7507C75.7857 21.6917 75.697 21.6208 75.5966 21.55C75.2834 21.3139 74.9703 21.0896 74.6512 20.8712C72.7604 19.5667 70.7751 18.5633 68.7425 17.8373C68.4766 17.7428 68.2107 17.6484 67.9389 17.5599C64.9314 16.5918 61.8293 16.2259 58.7804 16.3911C58.5855 16.397 58.3846 16.4088 58.1837 16.4266C53.4567 16.7866 48.8834 18.4157 44.9954 21.0896L42.2656 18.2032C42.7206 18.3685 43.2465 18.2977 43.6364 17.9671C43.7605 17.8668 43.8846 17.7664 44.0087 17.6661C44.0973 17.5953 44.18 17.5244 44.2628 17.4654C48.2748 14.3784 53.1613 12.4954 58.2309 12.1059C58.4259 12.0882 58.6209 12.0822 58.81 12.0704V12.0941Z" fill="url(#paint9_linear_1158_78266)"/>
<path d="M59.7723 24.0946C64.8479 24.0946 68.978 28.1792 69.0608 33.2259C69.0608 33.2731 69.0667 33.3263 69.0667 33.3735V47.5515L69.1317 49.2043C69.3857 52.9229 70.4493 56.4585 72.1569 59.6341C72.7655 60.7615 73.4509 61.8417 74.2131 62.8747C75.194 64.1909 76.3048 65.4069 77.5102 66.5166C77.8352 66.8117 78.1661 67.1068 78.4969 67.3842C78.6683 67.5259 78.8456 67.6676 79.0169 67.8151L79.1883 67.9509C79.2414 67.9922 79.2887 68.0335 79.3419 68.0689C79.4246 68.128 79.5132 68.1988 79.6137 68.2696C79.9268 68.5057 80.24 68.73 80.5591 68.9484C81.3095 69.4679 82.0776 69.9224 82.8517 70.3473C84.0334 70.9907 85.2388 71.5456 86.4678 71.9824C86.7337 72.0768 86.9996 72.1712 87.2714 72.2539C90.2789 73.2219 93.381 73.5879 96.4298 73.4226C96.6248 73.4167 96.8257 73.4049 97.0266 73.3872C99.6324 73.1865 102.191 72.6021 104.619 71.6695C107.036 70.7369 109.317 69.4679 111.367 67.886C111.456 67.821 111.538 67.7502 111.627 67.6794C114.605 65.336 117.087 62.3316 118.806 58.8078C118.664 59.2623 118.511 59.705 118.345 60.1477C116.703 64.5156 113.914 68.1811 110.433 70.9199C110.351 70.9907 110.268 71.0616 110.179 71.1206C108.176 72.6612 105.961 73.8948 103.609 74.8038C101.245 75.7128 98.7579 76.2794 96.2171 76.4801C96.0221 76.4978 95.8272 76.5037 95.6381 76.5156C92.666 76.6749 89.6467 76.3208 86.7159 75.3823C86.4501 75.2996 86.1901 75.2111 85.936 75.1166C84.7424 74.6917 83.5666 74.1545 82.4144 73.5229C81.6581 73.1098 80.9136 72.6671 80.1809 72.1594C79.8737 71.9469 79.5664 71.7285 79.2592 71.4983C79.1587 71.4275 79.076 71.3626 78.9933 71.3036C78.9401 71.2681 78.8928 71.2268 78.8456 71.1914L78.6801 71.0616C78.5088 70.9199 78.3374 70.7841 78.172 70.6425C77.847 70.365 77.5279 70.0876 77.2089 69.7984C76.033 68.7182 74.9576 67.5318 74.0004 66.2509C73.2559 65.2475 72.5882 64.1968 71.9974 63.099C70.3311 60.006 69.2971 56.5707 69.0489 52.9465L68.9839 51.3351V37.5348C68.9839 37.4876 68.978 37.4345 68.978 37.3873C68.9012 32.4763 64.8774 28.498 59.9318 28.498C55.2639 28.498 51.4174 32.0454 50.9388 36.5786C50.9092 36.856 50.8856 37.1393 50.8856 37.4227V60.1536C50.8856 61.1629 50.3361 62.1014 49.4734 62.6267L44.2856 65.8082C43.3166 66.3985 42.0935 66.3926 41.1303 65.7964L35.9484 62.5736C35.068 62.0306 34.5362 61.0685 34.5362 60.0355V58.6307C34.7135 58.8137 34.9085 58.973 35.1271 59.1088L40.4508 62.4202C41.4435 63.034 42.6961 63.0399 43.6888 62.432L49.0185 59.1619C49.9048 58.6189 50.472 57.6568 50.472 56.6179V33.2731C50.472 32.978 50.4956 32.6888 50.5252 32.4055C51.0156 27.7483 54.9685 24.1064 59.7664 24.1064L59.7723 24.0946ZM24.391 24.0946C29.1593 24.0946 33.0945 27.7011 33.6204 32.3228C33.6618 32.6711 33.6854 33.0193 33.6854 33.3794V33.6922C32.2378 30.617 29.1121 28.4861 25.4959 28.4861C20.5385 28.4861 16.5029 32.4822 16.4497 37.4109V60.1241C16.4497 60.6907 16.4261 61.2514 16.367 61.8004C15.5811 69.5446 9.40064 75.701 1.6307 76.4624C1.09892 76.5155 0.555319 76.5392 0.0117188 76.5392V73.3577C7.92937 72.5195 14.2162 66.2273 15.0198 58.312C15.0789 57.7453 15.1025 57.1727 15.1025 56.5943V33.2672C15.1616 28.2028 19.3036 24.1005 24.3969 24.1005L24.391 24.0946ZM104.613 22.6485C104.572 23.1266 104.554 23.6047 104.554 24.0887V47.4158C104.537 48.8914 104.17 50.2903 103.538 51.524C103.538 51.4118 103.544 51.2997 103.55 51.1875V28.4743C103.55 26.4202 103.928 24.4547 104.619 22.6426L104.613 22.6485Z" fill="url(#paint10_radial_1158_78266)"/>
<path d="M59.9791 23.3271C65.2674 23.3271 69.5748 27.5828 69.6575 32.842C69.6575 32.8952 69.6634 32.9483 69.6634 33.0014V47.7697L69.7344 49.4933C70.0002 53.3713 71.1052 57.0486 72.8896 60.3599C73.5218 61.5346 74.2368 62.662 75.0345 63.7362C76.0567 65.1115 77.2148 66.3747 78.4733 67.5316C78.8101 67.8444 79.1528 68.1455 79.5014 68.4347C79.6787 68.5823 79.8619 68.7298 80.045 68.8833L80.2223 69.0249C80.2755 69.0663 80.3287 69.1076 80.3818 69.143C80.4646 69.2079 80.5591 69.2788 80.6654 69.3496C80.9904 69.5975 81.3213 69.8277 81.6522 70.0579C82.4321 70.595 83.2357 71.0731 84.0452 71.5158C85.2742 72.1887 86.5328 72.7613 87.8091 73.2217C88.0809 73.322 88.3586 73.4165 88.6422 73.505C91.7738 74.5144 95.0118 74.8921 98.1906 74.7209C98.3974 74.715 98.6043 74.7032 98.8111 74.6855C101.529 74.4789 104.194 73.871 106.723 72.8911C107.639 72.537 108.537 72.1356 109.411 71.6929C107.621 72.962 105.677 74.0067 103.627 74.7918C101.263 75.7008 98.7756 76.2674 96.2349 76.4681C96.0399 76.4858 95.8449 76.4917 95.6558 76.5035C92.6837 76.6629 89.6644 76.3087 86.7337 75.3702C86.4678 75.2876 86.2078 75.1991 85.9537 75.1046C84.7602 74.6796 83.5843 74.1425 82.4322 73.5109C81.6758 73.0977 80.9313 72.655 80.1987 72.1474C79.8914 71.9349 79.5842 71.7165 79.2769 71.4863C79.1765 71.4155 79.0937 71.3506 79.011 71.2915C78.9578 71.2561 78.9106 71.2148 78.8633 71.1794L78.6978 71.0495C78.5265 70.9079 78.3551 70.7721 78.1897 70.6305C77.8647 70.353 77.5457 70.0756 77.2266 69.7864C76.0508 68.7062 74.9754 67.5198 74.0182 66.2389C73.2737 65.2355 72.606 64.1848 72.0151 63.0869C70.3489 59.994 69.3148 56.5587 69.0667 52.9345L69.0017 51.3231V37.5228C69.0017 37.4756 68.9958 37.4225 68.9958 37.3752C68.919 32.4643 64.8951 28.4859 59.9495 28.4859C55.2817 28.4859 51.4351 32.0334 50.9565 36.5666C50.927 36.844 50.9033 37.1273 50.9033 37.4107V60.1415C50.9033 61.1509 50.3538 62.0894 49.4912 62.6147L44.3033 65.7962C43.3343 66.3865 42.1112 66.3806 41.1481 65.7844L35.9661 62.5616C35.0858 62.0186 34.554 61.0564 34.554 60.0235V59.9468L39.86 63.2522C40.894 63.8897 42.1998 63.8956 43.2338 63.264L48.788 59.8582C49.7098 59.2916 50.3006 58.294 50.3006 57.208V32.8834C50.3006 32.5764 50.3243 32.2754 50.3597 31.9803C50.8738 27.1283 54.9922 23.333 59.985 23.333L59.9791 23.3271ZM23.1088 23.333C28.078 23.333 32.1787 27.087 32.7282 31.9035C32.7341 31.9803 32.7459 32.057 32.7518 32.1337C31.1033 29.9203 28.4621 28.4859 25.4959 28.4859C20.5385 28.4859 16.5029 32.482 16.4497 37.4107V60.1238C16.4497 60.6905 16.4261 61.2512 16.367 61.8002C15.5811 69.5444 9.40064 75.7008 1.6307 76.4622C1.09892 76.5153 0.555319 76.5389 0.0117188 76.5389V74.2605C7.15533 72.5252 12.5854 66.4455 13.3476 58.9846C13.4067 58.3944 13.4363 57.7982 13.4363 57.1902V32.8834C13.4954 27.6064 17.8146 23.3271 23.1206 23.3271L23.1088 23.333ZM107.55 17.7432C106.965 19.4963 106.646 21.3733 106.646 23.3212V47.628C106.611 50.9099 104.927 53.8022 102.386 55.5198C103.113 54.2389 103.538 52.7574 103.556 51.1814V28.4682C103.556 24.3659 105.062 20.6178 107.556 17.7373L107.55 17.7432Z" fill="url(#paint11_radial_1158_78266)"/>
<path d="M119.994 12.0596C110.912 12.0596 103.55 19.4083 103.55 28.4747V51.1761C103.491 56.1165 99.4552 60.1126 94.5037 60.1126C89.5522 60.1126 85.5402 56.1342 85.4575 51.2233C85.4575 51.1761 85.4515 51.1229 85.4515 51.0757V37.2755L85.3866 35.6699C85.0498 30.759 83.2772 26.1904 80.441 22.3655C79.4838 21.0846 78.4084 19.8982 77.2325 18.818C76.9135 18.5288 76.5944 18.2455 76.2694 17.974C76.104 17.8323 75.9326 17.6965 75.7613 17.5549L75.5958 17.425C75.5486 17.3896 75.4954 17.3483 75.4481 17.3129C75.3713 17.2539 75.2827 17.1889 75.1822 17.1181C74.875 16.8879 74.5736 16.6695 74.2605 16.457C72.417 15.1879 70.4848 14.2081 68.5054 13.5057C68.2513 13.4113 67.9913 13.3227 67.7255 13.2401C64.7947 12.3016 61.7754 11.9415 58.8033 12.1068C58.6083 12.1127 58.4193 12.1245 58.2243 12.1422C53.1605 12.5318 48.274 14.4147 44.2561 17.5018C44.1675 17.5667 44.0847 17.6316 44.002 17.7025C43.8779 17.8028 43.7539 17.9031 43.6298 18.0035C43.1039 18.4403 42.3476 18.4226 41.8217 17.9858C41.8217 17.9858 41.8158 17.9858 41.8158 17.9799C41.6504 17.8382 41.479 17.7025 41.3077 17.5608L41.1422 17.4309C41.095 17.3955 41.0418 17.3542 40.9945 17.3188C40.9177 17.2598 40.8291 17.1948 40.7286 17.124C38.6133 15.5303 36.3621 14.3321 34.0518 13.5116C33.7977 13.4172 33.5377 13.3286 33.2718 13.246C30.3411 12.3075 27.3218 11.9474 24.3497 12.1127C24.1547 12.1186 23.9656 12.1304 23.7706 12.1481C18.7069 12.5377 13.8204 14.4206 9.80248 17.5077C9.71385 17.5726 9.63113 17.6375 9.54841 17.7084C4.1774 21.9169 0.437194 28.3212 0.0413116 36.1422C0.0176768 36.5967 0.00585938 37.0571 0.00585938 37.5175V76.5336C0.54946 76.5336 1.09306 76.51 1.62484 76.4569C9.39478 75.6954 15.5753 69.5449 16.3611 61.7948C16.4202 61.2459 16.4439 60.6851 16.4439 60.1185V37.4171C16.5029 32.4766 20.5386 28.4806 25.4901 28.4806C30.1343 28.4806 33.9632 31.9926 34.4772 36.4904C34.5127 36.8269 34.5422 37.1692 34.5422 37.5175V60.0182C34.5422 61.0511 35.0799 62.0132 35.9544 62.5563L41.1363 65.7791C42.0994 66.3752 43.3225 66.3811 44.2916 65.7909L49.4794 62.6094C50.3421 62.0782 50.8916 61.1455 50.8916 60.1362V37.4112C50.8916 37.1161 50.9152 36.8328 50.9447 36.5553C51.4234 32.0221 55.2699 28.4747 59.9378 28.4747C64.8834 28.4747 68.9013 32.453 68.984 37.364C68.984 37.4112 68.9899 37.4643 68.9899 37.5116V51.3118L69.0549 52.9232C69.3031 56.5474 70.3371 59.9827 72.0033 63.0757C72.5942 64.1736 73.2619 65.2301 74.0064 66.2277C74.9636 67.5085 76.039 68.695 77.2148 69.7751C77.5339 70.0644 77.853 70.3477 78.1779 70.6192C78.3434 70.7609 78.5147 70.8966 78.6861 71.0383L78.8515 71.1681C78.8988 71.2036 78.952 71.2449 78.9993 71.2803C79.0761 71.3393 79.1647 71.4043 79.2651 71.4751C79.5724 71.7053 79.8737 71.9237 80.1869 72.1362C80.9196 72.6379 81.6641 73.0865 82.4204 73.4997C83.5726 74.1253 84.7425 74.6684 85.942 75.0934C86.196 75.1878 86.456 75.2764 86.7219 75.359C89.6526 76.2975 92.672 76.6576 95.6441 76.4923C95.839 76.4864 96.0281 76.4746 96.2231 76.4569C98.7638 76.2621 101.251 75.6954 103.615 74.7805C105.967 73.8715 108.188 72.6379 110.185 71.0973C110.274 71.0324 110.357 70.9675 110.439 70.8966C113.92 68.1519 116.709 64.4923 118.351 60.1244C119.243 57.7634 119.799 55.1898 119.935 52.4451C119.958 51.9906 119.97 51.5302 119.97 51.0698V12.0596H119.988H119.994Z" fill="url(#paint12_radial_1158_78266)"/>
<path d="M119.994 12.0596C110.912 12.0596 103.55 19.4083 103.55 28.4747V51.1761C103.491 56.1165 99.4552 60.1126 94.5037 60.1126C89.5522 60.1126 85.5402 56.1342 85.4575 51.2233C85.4575 51.1761 85.4515 51.1229 85.4515 51.0757V37.2755L85.3866 35.6699C85.0498 30.759 83.2772 26.1904 80.441 22.3655C79.4838 21.0846 78.4084 19.8982 77.2325 18.818C76.9135 18.5288 76.5944 18.2455 76.2694 17.974C76.104 17.8323 75.9326 17.6965 75.7613 17.5549L75.5958 17.425C75.5486 17.3896 75.4954 17.3483 75.4481 17.3129C75.3713 17.2539 75.2827 17.1889 75.1822 17.1181C74.875 16.8879 74.5736 16.6695 74.2605 16.457C72.417 15.1879 70.4848 14.2081 68.5054 13.5057C68.2513 13.4113 67.9913 13.3227 67.7255 13.2401C64.7947 12.3016 61.7754 11.9415 58.8033 12.1068C58.6083 12.1127 58.4193 12.1245 58.2243 12.1422C53.1605 12.5318 48.274 14.4147 44.2561 17.5018C44.1675 17.5667 44.0847 17.6316 44.002 17.7025C43.8779 17.8028 43.7539 17.9031 43.6298 18.0035C43.1039 18.4403 42.3476 18.4226 41.8217 17.9858C41.8217 17.9858 41.8158 17.9858 41.8158 17.9799C41.6504 17.8382 41.479 17.7025 41.3077 17.5608L41.1422 17.4309C41.095 17.3955 41.0418 17.3542 40.9945 17.3188C40.9177 17.2598 40.8291 17.1948 40.7286 17.124C38.6133 15.5303 36.3621 14.3321 34.0518 13.5116C33.7977 13.4172 33.5377 13.3286 33.2718 13.246C30.3411 12.3075 27.3218 11.9474 24.3497 12.1127C24.1547 12.1186 23.9656 12.1304 23.7706 12.1481C18.7069 12.5377 13.8204 14.4206 9.80248 17.5077C9.71385 17.5726 9.63113 17.6375 9.54841 17.7084C4.1774 21.9169 0.437194 28.3212 0.0413116 36.1422C0.0176768 36.5967 0.00585938 37.0571 0.00585938 37.5175V76.5336C0.54946 76.5336 1.09306 76.51 1.62484 76.4569C9.39478 75.6954 15.5753 69.5449 16.3611 61.7948C16.4202 61.2459 16.4439 60.6851 16.4439 60.1185V37.4171C16.5029 32.4766 20.5386 28.4806 25.4901 28.4806C30.1343 28.4806 33.9632 31.9926 34.4772 36.4904C34.5127 36.8269 34.5422 37.1692 34.5422 37.5175V60.0182C34.5422 61.0511 35.0799 62.0132 35.9544 62.5563L41.1363 65.7791C42.0994 66.3752 43.3225 66.3811 44.2916 65.7909L49.4794 62.6094C50.3421 62.0782 50.8916 61.1455 50.8916 60.1362V37.4112C50.8916 37.1161 50.9152 36.8328 50.9447 36.5553C51.4234 32.0221 55.2699 28.4747 59.9378 28.4747C64.8834 28.4747 68.9013 32.453 68.984 37.364C68.984 37.4112 68.9899 37.4643 68.9899 37.5116V51.3118L69.0549 52.9232C69.3031 56.5474 70.3371 59.9827 72.0033 63.0757C72.5942 64.1736 73.2619 65.2301 74.0064 66.2277C74.9636 67.5085 76.039 68.695 77.2148 69.7751C77.5339 70.0644 77.853 70.3477 78.1779 70.6192C78.3434 70.7609 78.5147 70.8966 78.6861 71.0383L78.8515 71.1681C78.8988 71.2036 78.952 71.2449 78.9993 71.2803C79.0761 71.3393 79.1647 71.4043 79.2651 71.4751C79.5724 71.7053 79.8737 71.9237 80.1869 72.1362C80.9196 72.6379 81.6641 73.0865 82.4204 73.4997C83.5726 74.1253 84.7425 74.6684 85.942 75.0934C86.196 75.1878 86.456 75.2764 86.7219 75.359C89.6526 76.2975 92.672 76.6576 95.6441 76.4923C95.839 76.4864 96.0281 76.4746 96.2231 76.4569C98.7638 76.2621 101.251 75.6954 103.615 74.7805C105.967 73.8715 108.188 72.6379 110.185 71.0973C110.274 71.0324 110.357 70.9675 110.439 70.8966C113.92 68.1519 116.709 64.4923 118.351 60.1244C119.243 57.7634 119.799 55.1898 119.935 52.4451C119.958 51.9906 119.97 51.5302 119.97 51.0698V12.0596H119.988H119.994Z" fill="url(#paint13_radial_1158_78266)"/>
<path d="M119.994 12.0596C110.912 12.0596 103.55 19.4083 103.55 28.4747V51.1761C103.491 56.1165 99.4552 60.1126 94.5037 60.1126C89.5522 60.1126 85.5402 56.1342 85.4575 51.2233C85.4575 51.1761 85.4515 51.1229 85.4515 51.0757V37.2755L85.3866 35.6699C85.0498 30.759 83.2772 26.1904 80.441 22.3655C79.4838 21.0846 78.4084 19.8982 77.2325 18.818C76.9135 18.5288 76.5944 18.2455 76.2694 17.974C76.104 17.8323 75.9326 17.6965 75.7613 17.5549L75.5958 17.425C75.5486 17.3896 75.4954 17.3483 75.4481 17.3129C75.3713 17.2539 75.2827 17.1889 75.1822 17.1181C74.875 16.8879 74.5736 16.6695 74.2605 16.457C72.417 15.1879 70.4848 14.2081 68.5054 13.5057C68.2513 13.4113 67.9913 13.3227 67.7255 13.2401C64.7947 12.3016 61.7754 11.9415 58.8033 12.1068C58.6083 12.1127 58.4193 12.1245 58.2243 12.1422C53.1605 12.5318 48.274 14.4147 44.2561 17.5018C44.1675 17.5667 44.0847 17.6316 44.002 17.7025C43.8779 17.8028 43.7539 17.9031 43.6298 18.0035C43.1039 18.4403 42.3476 18.4226 41.8217 17.9858C41.8217 17.9858 41.8158 17.9858 41.8158 17.9799C41.6504 17.8382 41.479 17.7025 41.3077 17.5608L41.1422 17.4309C41.095 17.3955 41.0418 17.3542 40.9945 17.3188C40.9177 17.2598 40.8291 17.1948 40.7286 17.124C38.6133 15.5303 36.3621 14.3321 34.0518 13.5116C33.7977 13.4172 33.5377 13.3286 33.2718 13.246C30.3411 12.3075 27.3218 11.9474 24.3497 12.1127C24.1547 12.1186 23.9656 12.1304 23.7706 12.1481C18.7069 12.5377 13.8204 14.4206 9.80248 17.5077C9.71385 17.5726 9.63113 17.6375 9.54841 17.7084C4.1774 21.9169 0.437194 28.3212 0.0413116 36.1422C0.0176768 36.5967 0.00585938 37.0571 0.00585938 37.5175V76.5336C0.54946 76.5336 1.09306 76.51 1.62484 76.4569C9.39478 75.6954 15.5753 69.5449 16.3611 61.7948C16.4202 61.2459 16.4439 60.6851 16.4439 60.1185V37.4171C16.5029 32.4766 20.5386 28.4806 25.4901 28.4806C30.1343 28.4806 33.9632 31.9926 34.4772 36.4904C34.5127 36.8269 34.5422 37.1692 34.5422 37.5175V60.0182C34.5422 61.0511 35.0799 62.0132 35.9544 62.5563L41.1363 65.7791C42.0994 66.3752 43.3225 66.3811 44.2916 65.7909L49.4794 62.6094C50.3421 62.0782 50.8916 61.1455 50.8916 60.1362V37.4112C50.8916 37.1161 50.9152 36.8328 50.9447 36.5553C51.4234 32.0221 55.2699 28.4747 59.9378 28.4747C64.8834 28.4747 68.9013 32.453 68.984 37.364C68.984 37.4112 68.9899 37.4643 68.9899 37.5116V51.3118L69.0549 52.9232C69.3031 56.5474 70.3371 59.9827 72.0033 63.0757C72.5942 64.1736 73.2619 65.2301 74.0064 66.2277C74.9636 67.5085 76.039 68.695 77.2148 69.7751C77.5339 70.0644 77.853 70.3477 78.1779 70.6192C78.3434 70.7609 78.5147 70.8966 78.6861 71.0383L78.8515 71.1681C78.8988 71.2036 78.952 71.2449 78.9993 71.2803C79.0761 71.3393 79.1647 71.4043 79.2651 71.4751C79.5724 71.7053 79.8737 71.9237 80.1869 72.1362C80.9196 72.6379 81.6641 73.0865 82.4204 73.4997C83.5726 74.1253 84.7425 74.6684 85.942 75.0934C86.196 75.1878 86.456 75.2764 86.7219 75.359C89.6526 76.2975 92.672 76.6576 95.6441 76.4923C95.839 76.4864 96.0281 76.4746 96.2231 76.4569C98.7638 76.2621 101.251 75.6954 103.615 74.7805C105.967 73.8715 108.188 72.6379 110.185 71.0973C110.274 71.0324 110.357 70.9675 110.439 70.8966C113.92 68.1519 116.709 64.4923 118.351 60.1244C119.243 57.7634 119.799 55.1898 119.935 52.4451C119.958 51.9906 119.97 51.5302 119.97 51.0698V12.0596H119.988H119.994Z" fill="url(#paint14_radial_1158_78266)"/>
<g opacity="0.77">
<path d="M25.7264 12.0527V13.251C28.1785 13.251 30.5952 13.6287 32.9114 14.3725C33.1359 14.4433 33.3723 14.5259 33.6382 14.6204C33.6382 14.6204 33.6441 14.6204 33.65 14.6204C35.9012 15.4172 38.0401 16.5741 40.0077 18.0616C40.0077 18.0616 40.0196 18.0675 40.0196 18.0734C40.1082 18.1383 40.1909 18.1973 40.2677 18.2564C40.2914 18.2741 40.3091 18.2859 40.3327 18.3036C40.3445 18.3095 40.3505 18.3213 40.3623 18.3272L40.3977 18.3567L40.5573 18.4807C40.6163 18.5279 40.6695 18.5751 40.7286 18.6223C40.8172 18.6932 40.9118 18.7699 41.0004 18.8407C41.0299 18.8702 41.0654 18.8997 41.1009 18.9234C41.5676 19.3011 42.1526 19.5077 42.7494 19.5077C43.3462 19.5077 43.937 19.2952 44.3979 18.9175L44.4097 18.9056C44.522 18.8112 44.6402 18.7168 44.7524 18.6282C44.7583 18.6223 44.7702 18.6164 44.7761 18.6105C44.847 18.5515 44.9179 18.4925 44.9829 18.4452C44.9888 18.4452 44.9947 18.4334 45.0006 18.4334C48.8708 15.4585 53.4737 13.6937 58.3247 13.3218C58.5079 13.31 58.6851 13.2982 58.8624 13.2923C58.8683 13.2923 58.8742 13.2923 58.8801 13.2923C59.3174 13.2687 59.7605 13.2569 60.1919 13.2569C62.644 13.2569 65.0606 13.6346 67.3768 14.3784C67.6014 14.4492 67.8377 14.5318 68.1036 14.6263C68.1036 14.6263 68.1095 14.6263 68.1154 14.6263C70.0239 15.3051 71.8674 16.2495 73.5869 17.4359C73.9119 17.6602 74.2014 17.8727 74.4673 18.0734C74.4673 18.0734 74.4732 18.0793 74.4791 18.0852C74.5677 18.1501 74.6504 18.2091 74.7214 18.2682C74.7391 18.28 74.745 18.2859 74.7627 18.2977C74.7745 18.3095 74.7863 18.3154 74.7982 18.3272C74.8159 18.339 74.8336 18.3567 74.8513 18.3685L75.005 18.4925L75.1645 18.6223C75.2768 18.7109 75.3831 18.7994 75.4895 18.8879C75.7967 19.1477 76.1099 19.4251 76.4172 19.7025C77.5516 20.7414 78.5797 21.8806 79.4779 23.0788C82.2431 26.8033 83.8739 31.1771 84.193 35.7339L84.258 37.2981V51.0748C84.258 51.1456 84.258 51.1987 84.2639 51.2401C84.3112 53.9434 85.3925 56.4698 87.3128 58.3645C89.239 60.2651 91.7975 61.3099 94.5037 61.3099C97.2099 61.3099 99.7742 60.2592 101.706 58.3468C103.639 56.4402 104.72 53.9021 104.749 51.1928C104.749 51.1928 104.749 51.1751 104.749 51.1692V28.4678C104.749 20.4875 110.942 13.918 118.783 13.2982V51.0748C118.783 51.5411 118.771 51.9661 118.747 52.3852C118.747 52.3852 118.747 52.3911 118.747 52.397C118.623 54.9233 118.115 57.3847 117.24 59.7103C115.728 63.7299 113.122 67.2715 109.707 69.9631C109.695 69.9749 109.677 69.9867 109.665 69.9985C109.594 70.0575 109.541 70.1047 109.482 70.1461C109.476 70.1461 109.47 70.1579 109.465 70.1579C107.568 71.6158 105.458 72.8022 103.189 73.6699C100.921 74.5435 98.5452 75.0806 96.1345 75.2695C95.9513 75.2813 95.774 75.2931 95.6027 75.299C95.5968 75.299 95.5909 75.299 95.585 75.299C95.1477 75.3226 94.7046 75.3344 94.2732 75.3344C91.8211 75.3344 89.4045 74.9567 87.0942 74.2189C86.8696 74.148 86.6333 74.0654 86.3674 73.971C86.3674 73.971 86.3615 73.971 86.3556 73.971C85.2566 73.5814 84.1339 73.0738 83.0113 72.454C82.2077 72.0172 81.5105 71.5922 80.8841 71.1613C80.5592 70.9311 80.2696 70.7245 80.0037 70.5238C80.0037 70.5238 79.9978 70.5179 79.9919 70.512C79.9033 70.4471 79.8206 70.3881 79.7437 70.3291C79.7201 70.3113 79.7024 70.2995 79.6787 70.2818C79.6669 70.2759 79.661 70.2641 79.6492 70.2582L79.6138 70.2287L79.4542 70.1047C79.401 70.0575 79.3419 70.0103 79.2888 69.969C79.1824 69.8805 79.0702 69.7919 78.9697 69.7093C78.6625 69.4496 78.3493 69.1721 78.042 68.8947C76.9076 67.8559 75.8795 66.7167 74.9813 65.5125C74.2841 64.574 73.6401 63.5647 73.0728 62.5081C71.4479 59.486 70.5025 56.2396 70.2662 52.8574L70.2012 51.2873V37.5106C70.2012 37.4398 70.2012 37.3808 70.1953 37.3454C70.148 34.6479 69.0667 32.1216 67.1405 30.2209C65.2084 28.3203 62.6558 27.2755 59.9496 27.2755C57.403 27.2755 54.9627 28.2199 53.0778 29.9258C51.2047 31.6198 50.0289 33.9337 49.763 36.4245C49.7216 36.8082 49.7039 37.1092 49.7039 37.4103V60.1353C49.7039 60.7137 49.3789 61.2686 48.8649 61.5873L43.6771 64.7688C43.3934 64.94 43.0685 65.0344 42.7317 65.0344C42.3949 65.0344 42.064 64.94 41.7804 64.7629L36.5984 61.5401C36.0666 61.2095 35.7535 60.6429 35.7535 60.0172V37.5165C35.7535 37.1624 35.7299 36.7964 35.6826 36.3537C35.0917 31.183 30.7193 27.2814 25.5019 27.2814C22.7898 27.2814 20.2313 28.3321 18.2992 30.2445C16.367 32.1511 15.2858 34.6892 15.2562 37.3985C15.2562 37.3985 15.2562 37.4162 15.2562 37.4221V60.1235C15.2562 60.6606 15.2326 61.18 15.1794 61.6758C14.4526 68.8475 8.70346 74.5612 1.51849 75.2636C1.41804 75.2754 1.31759 75.2813 1.21714 75.2931V37.5224C1.21714 37.0561 1.22896 36.6311 1.25259 36.2121C1.25259 36.2121 1.25259 36.2062 1.25259 36.2003C1.60121 29.188 4.82145 22.943 10.3047 18.6223C10.3165 18.6105 10.3343 18.5987 10.3461 18.5869C10.4111 18.5279 10.4702 18.4807 10.5293 18.4393C10.5352 18.4393 10.5411 18.4275 10.547 18.4275C14.4172 15.4526 19.0201 13.6878 23.8711 13.3159C24.0543 13.3041 24.2315 13.2923 24.4088 13.2864C24.4147 13.2864 24.4206 13.2864 24.4265 13.2864C24.8638 13.2628 25.3069 13.251 25.7382 13.251V12.0527M25.7264 12.0527C25.2655 12.0527 24.8047 12.0645 24.3497 12.0881C24.1547 12.0941 23.9656 12.1059 23.7706 12.1236C18.7069 12.5131 13.8204 14.3961 9.80248 17.4831C9.71385 17.548 9.63113 17.613 9.54841 17.6838C4.1774 21.916 0.437194 28.3203 0.0413116 36.1412C0.0176768 36.5957 0.00585938 37.0561 0.00585938 37.5165V76.5327C0.54946 76.5327 1.09306 76.5091 1.62484 76.4559C9.39478 75.6945 15.5753 69.544 16.3611 61.7939C16.4202 61.245 16.4439 60.6842 16.4439 60.1176V37.4162C16.5029 32.4757 20.5386 28.4797 25.4901 28.4797C30.1343 28.4797 33.9632 31.9917 34.4772 36.4895C34.5127 36.8259 34.5422 37.1683 34.5422 37.5165V60.0172C34.5422 61.0502 35.0799 62.0123 35.9544 62.5553L41.1363 65.7781C41.6208 66.0792 42.1703 66.2267 42.7198 66.2267C43.2693 66.2267 43.807 66.0792 44.2856 65.784L49.4735 62.6026C50.3362 62.0713 50.8857 61.1387 50.8857 60.1294V37.4044C50.8857 37.1092 50.9093 36.8259 50.9388 36.5485C51.4174 32.0153 55.264 28.4678 59.9319 28.4678C64.8775 28.4678 68.8954 32.4462 68.9781 37.3572C68.9781 37.4044 68.984 37.4575 68.984 37.5047V51.305L69.049 52.9164C69.2972 56.5406 70.3312 59.9759 71.9974 63.0689C72.5883 64.1667 73.256 65.2233 74.0005 66.2208C74.9577 67.5017 76.0331 68.6881 77.2089 69.7683C77.528 70.0575 77.847 70.3409 78.172 70.6124C78.3375 70.754 78.5088 70.8898 78.6802 71.0315L78.8456 71.1613C78.8929 71.1967 78.9461 71.238 78.9933 71.2735C79.0702 71.3325 79.1588 71.3974 79.2592 71.4683C79.5665 71.6985 79.8678 71.9168 80.181 72.1293C80.9137 72.6311 81.6582 73.0797 82.4145 73.4928C83.5667 74.1185 84.7366 74.6616 85.9361 75.0865C86.1901 75.181 86.4501 75.2695 86.716 75.3522C89.1918 76.149 91.7384 76.5268 94.2555 76.5268C94.7164 76.5268 95.1773 76.515 95.6322 76.4914C95.8272 76.4855 96.0163 76.4736 96.2113 76.4559C98.752 76.2612 101.24 75.6945 103.603 74.7796C105.955 73.8706 108.176 72.637 110.174 71.0964C110.262 71.0315 110.345 70.9665 110.428 70.8957C113.908 68.151 116.697 64.4914 118.339 60.1235C119.232 57.7624 119.787 55.1889 119.923 52.4442C119.947 51.9897 119.958 51.5293 119.958 51.0689V12.0586C110.883 12.0645 103.526 19.4133 103.526 28.4738V51.1751C103.467 56.1156 99.4315 60.1117 94.48 60.1117C89.5285 60.1117 85.5165 56.1333 85.4338 51.2224C85.4338 51.1751 85.4279 51.122 85.4279 51.0748V37.2745L85.3629 35.669C85.0261 30.7581 83.2535 26.1894 80.4173 22.3646C79.4601 21.0837 78.3847 19.8973 77.2089 18.8171C76.8898 18.5279 76.5708 18.2446 76.2458 17.973C76.0804 17.8314 75.909 17.6956 75.7376 17.554L75.5722 17.4241C75.5249 17.3887 75.4718 17.3474 75.4245 17.3119C75.3477 17.2529 75.259 17.188 75.1586 17.1172C74.8513 16.887 74.55 16.6686 74.2368 16.4561C72.3933 15.187 70.4612 14.2072 68.4818 13.5048C68.2277 13.4103 67.9677 13.3218 67.7018 13.2392C65.2261 12.4423 62.6794 12.0645 60.1623 12.0645C59.7014 12.0645 59.2406 12.0763 58.7856 12.1C58.5906 12.1059 58.4015 12.1177 58.2065 12.1354C53.1428 12.5249 48.2563 14.4079 44.2384 17.4949C44.1497 17.5599 44.067 17.6248 43.9843 17.6956C43.8602 17.796 43.7361 17.8963 43.6121 17.9966C43.3521 18.2091 43.0389 18.3154 42.7257 18.3154C42.4126 18.3154 42.0699 18.2032 41.804 17.9789C41.804 17.9789 41.7981 17.9789 41.7981 17.973C41.6326 17.8314 41.4613 17.6956 41.2899 17.554L41.1245 17.4241C41.0772 17.3887 41.024 17.3474 40.9768 17.3119C40.9 17.2529 40.8113 17.188 40.7109 17.1172C38.5956 15.5235 36.3444 14.3252 34.0341 13.5048C33.78 13.4103 33.52 13.3218 33.2541 13.2392C30.7784 12.4423 28.2317 12.0645 25.7146 12.0645L25.7264 12.0527Z" fill="url(#paint15_linear_1158_78266)"/>
</g>
<path d="M2.23963 39.3643H2.23372C1.69528 39.3643 1.25879 39.8003 1.25879 40.3382V70.9136C1.25879 71.4515 1.69528 71.8876 2.23372 71.8876H2.23963C2.77807 71.8876 3.21457 71.4515 3.21457 70.9136V40.3382C3.21457 39.8003 2.77807 39.3643 2.23963 39.3643Z" fill="url(#paint16_radial_1158_78266)"/>
<path d="M37.698 35.835H35.7422V60.7026H37.698V35.835Z" fill="url(#paint17_radial_1158_78266)"/>
<path d="M106.711 33.8047H104.755V54.9596H106.711V33.8047Z" fill="url(#paint18_radial_1158_78266)"/>
<path d="M72.1394 35.793H70.1836V56.7118H72.1394V35.793Z" fill="url(#paint19_radial_1158_78266)"/>
<path d="M49.6804 35.8467H47.7246V60.7143H49.6804V35.8467Z" fill="url(#paint20_radial_1158_78266)"/>
<path d="M118.783 28.3916H116.827V53.2592H118.783V28.3916Z" fill="url(#paint21_radial_1158_78266)"/>
<path d="M84.2586 37.3809H82.3027V53.4367H84.2586V37.3809Z" fill="url(#paint22_radial_1158_78266)"/>
<path d="M15.238 35.8291H13.2822V60.6967H15.238V35.8291Z" fill="url(#paint23_radial_1158_78266)"/>
<path d="M93.4107 28.6582C95.4375 23.7765 97.0802 22.1355 101.967 20.1167C97.0743 18.092 95.4316 16.4569 93.4107 11.5752C91.3839 16.4569 89.7412 18.0979 84.8545 20.1167C89.7471 22.1414 91.3898 23.7765 93.4107 28.6582Z" fill="url(#paint24_linear_1158_78266)"/>
<path d="M91.0762 15.9138C91.4957 17.3482 92.3171 18.7767 93.5402 19.9927C94.7634 21.2087 96.1756 22.0292 97.6056 22.4483C98.7224 21.5924 100.111 20.8782 101.966 20.1167C97.0738 18.092 95.4311 16.4569 93.4102 11.5752C92.6421 13.4228 91.933 14.8041 91.0821 15.9197L91.0762 15.9138Z" fill="url(#paint25_radial_1158_78266)"/>
<path opacity="0.3" d="M93.4098 11.5811C93.0907 13.4169 93.9712 15.7841 95.8563 17.6672C97.7413 19.5504 100.111 20.424 101.955 20.1112C97.0795 18.0923 95.4367 16.4512 93.4157 11.5811H93.4098Z" fill="url(#paint26_radial_1158_78266)"/>
<path opacity="0.8" d="M93.4111 11.5752C91.3843 16.4572 89.7415 18.0983 84.8545 20.1172C86.6923 20.4359 89.0737 19.5563 90.9588 17.6673C92.8438 15.7783 93.7302 13.4111 93.4111 11.5693V11.5752Z" fill="url(#paint27_radial_1158_78266)"/>
<path d="M101.942 20.1225C100.022 19.6621 97.5517 20.459 95.6489 22.3657C93.7461 24.2665 92.9425 26.7282 93.4034 28.6526C93.4034 28.6526 93.4034 28.6526 93.4034 28.6585C95.4303 23.7825 97.0671 22.1414 101.942 20.1225Z" fill="url(#paint28_radial_1158_78266)"/>
<path opacity="0.7" d="M93.4159 28.6462C95.4368 23.7761 97.0796 22.135 101.961 20.1161C100.123 19.7973 97.7474 20.671 95.8623 22.56C93.9772 24.4431 93.1027 26.8103 93.4159 28.6462Z" fill="url(#paint29_radial_1158_78266)"/>
<path opacity="0.5" d="M91.0061 22.5605C89.0796 20.5712 86.6509 19.6798 84.8545 20.1166C89.7415 22.1414 91.3843 23.7766 93.4111 28.6585C93.4171 28.6408 93.423 28.6231 93.4348 28.6113C93.7066 26.7931 92.832 24.4436 91.012 22.5605H91.0061Z" fill="url(#paint30_radial_1158_78266)"/>
<path d="M99.3311 6.22756C102.894 4.75774 104.094 3.55945 105.571 0C107.048 3.55945 108.248 4.75774 111.811 6.22756C108.248 7.70328 107.048 8.90157 105.571 12.4551C104.094 8.89567 102.894 7.69738 99.3311 6.22756Z" fill="url(#paint31_linear_1158_78266)"/>
<path d="M105.619 6.16293C106.487 7.0307 107.521 7.62692 108.609 7.95159C109.43 7.31995 110.446 6.79457 111.811 6.22786C108.248 4.75207 107.049 3.55372 105.571 0C105.004 1.36954 104.478 2.38489 103.84 3.20543C104.165 4.27981 104.762 5.30697 105.619 6.16293Z" fill="url(#paint32_radial_1158_78266)"/>
<path opacity="0.4" d="M105.564 0.0118064C105.6 1.36954 106.297 2.92798 107.58 4.20897C108.862 5.48996 110.428 6.18654 111.787 6.22196C108.241 4.75207 107.042 3.55372 105.57 0C105.57 0 105.57 0.00590319 105.57 0.0118064H105.564Z" fill="url(#paint33_radial_1158_78266)"/>
<path d="M105.293 0.637238C105.305 0.885171 105.293 1.14491 105.258 1.41646C105.098 2.45542 104.537 3.50028 103.68 4.35625C102.823 5.21221 101.777 5.77301 100.737 5.9324C100.46 5.97372 100.194 5.98553 99.9396 5.96782C99.7505 6.05046 99.5496 6.13901 99.3428 6.22165C99.6028 6.28659 99.8746 6.3161 100.158 6.3161C100.365 6.3161 100.578 6.2984 100.791 6.26888C101.902 6.09769 103.018 5.50146 103.922 4.59828C104.833 3.68919 105.423 2.57939 105.595 1.46959C105.672 0.95601 105.654 0.477852 105.548 0.0410156C105.459 0.247627 105.376 0.448336 105.293 0.637238Z" fill="url(#paint34_radial_1158_78266)"/>
<path d="M99.3311 6.22805C100.649 6.39924 102.327 5.74399 103.68 4.39806C105.034 3.05214 105.672 1.41695 105.524 0.106445C104.07 3.57752 102.859 4.76996 99.3311 6.22805Z" fill="url(#paint35_radial_1158_78266)"/>
<path d="M105.588 12.4199C107.053 8.90159 108.259 7.70324 111.799 6.23925C110.398 5.89687 108.602 6.48128 107.219 7.86263C105.836 9.24398 105.257 11.0267 105.588 12.4199Z" fill="url(#paint36_radial_1158_78266)"/>
<defs>
<linearGradient id="paint0_linear_1158_78266" x1="112.814" y1="102.478" x2="112.814" y2="83.4173" gradientUnits="userSpaceOnUse">
<stop offset="0.07" stop-color="#4727C7"/>
<stop offset="0.47" stop-color="#7757F7"/>
<stop offset="0.97" stop-color="#7757F7"/>
</linearGradient>
<linearGradient id="paint1_linear_1158_78266" x1="97.5927" y1="102.479" x2="97.5927" y2="83.4173" gradientUnits="userSpaceOnUse">
<stop offset="0.07" stop-color="#4727C7"/>
<stop offset="0.47" stop-color="#7757F7"/>
<stop offset="0.97" stop-color="#7757F7"/>
</linearGradient>
<linearGradient id="paint2_linear_1158_78266" x1="81.4852" y1="102.478" x2="81.4852" y2="83.417" gradientUnits="userSpaceOnUse">
<stop offset="0.07" stop-color="#4727C7"/>
<stop offset="0.47" stop-color="#7757F7"/>
<stop offset="0.97" stop-color="#7757F7"/>
</linearGradient>
<linearGradient id="paint3_linear_1158_78266" x1="65.2827" y1="102.478" x2="65.2827" y2="83.4163" gradientUnits="userSpaceOnUse">
<stop offset="0.07" stop-color="#4727C7"/>
<stop offset="0.47" stop-color="#7757F7"/>
<stop offset="0.97" stop-color="#7757F7"/>
</linearGradient>
<linearGradient id="paint4_linear_1158_78266" x1="50.3987" y1="102.478" x2="50.3987" y2="83.4169" gradientUnits="userSpaceOnUse">
<stop offset="0.07" stop-color="#4727C7"/>
<stop offset="0.47" stop-color="#7757F7"/>
<stop offset="0.97" stop-color="#7757F7"/>
</linearGradient>
<linearGradient id="paint5_linear_1158_78266" x1="31.9384" y1="102.478" x2="31.9384" y2="83.4169" gradientUnits="userSpaceOnUse">
<stop offset="0.07" stop-color="#4727C7"/>
<stop offset="0.47" stop-color="#7757F7"/>
<stop offset="0.97" stop-color="#7757F7"/>
</linearGradient>
<linearGradient id="paint6_linear_1158_78266" x1="10.2698" y1="102.477" x2="10.2698" y2="83.4169" gradientUnits="userSpaceOnUse">
<stop offset="0.07" stop-color="#4727C7"/>
<stop offset="0.47" stop-color="#7757F7"/>
<stop offset="0.97" stop-color="#7757F7"/>
</linearGradient>
<linearGradient id="paint7_linear_1158_78266" x1="0.0472203" y1="76.6153" x2="119.897" y2="11.8724" gradientUnits="userSpaceOnUse">
<stop offset="0.07" stop-color="#4727C7"/>
<stop offset="0.37" stop-color="#7757F7"/>
<stop offset="0.57" stop-color="#D747A7"/>
<stop offset="0.97" stop-color="#F72727"/>
</linearGradient>
<linearGradient id="paint8_linear_1158_78266" x1="17.1175" y1="-5.53651" x2="35.0173" y2="15.312" gradientUnits="userSpaceOnUse">
<stop offset="0.45" stop-color="white"/>
<stop offset="0.61" stop-color="white" stop-opacity="0.3"/>
<stop offset="0.8" stop-color="white" stop-opacity="0"/>
</linearGradient>
<linearGradient id="paint9_linear_1158_78266" x1="62.6388" y1="-5.56651" x2="78.3071" y2="23.6766" gradientUnits="userSpaceOnUse">
<stop offset="0.35" stop-color="white"/>
<stop offset="0.42" stop-color="white" stop-opacity="0.3"/>
<stop offset="0.68" stop-color="white" stop-opacity="0"/>
</linearGradient>
<radialGradient id="paint10_radial_1158_78266" cx="0" cy="0" r="1" gradientTransform="matrix(3.74946 -19.18 -51.7637 -10.0983 85.9365 87.9204)" gradientUnits="userSpaceOnUse">
<stop offset="0.24" stop-color="white"/>
<stop offset="0.36" stop-color="white" stop-opacity="0.3"/>
<stop offset="0.66" stop-color="white" stop-opacity="0"/>
</radialGradient>
<radialGradient id="paint11_radial_1158_78266" cx="0" cy="0" r="1" gradientTransform="matrix(-7.2519 -8.38384 -19.9162 17.1916 13.7448 74.6459)" gradientUnits="userSpaceOnUse">
<stop offset="0.27" stop-color="white"/>
<stop offset="0.5" stop-color="white" stop-opacity="0.3"/>
<stop offset="0.67" stop-color="white" stop-opacity="0"/>
</radialGradient>
<radialGradient id="paint12_radial_1158_78266" cx="0" cy="0" r="1" gradientTransform="matrix(9.32666 9.96336 12.4593 -11.639 4.29383 12.0761)" gradientUnits="userSpaceOnUse">
<stop stop-color="white"/>
<stop offset="0.74" stop-color="white" stop-opacity="0"/>
</radialGradient>
<radialGradient id="paint13_radial_1158_78266" cx="0" cy="0" r="1" gradientTransform="matrix(8.159 8.64011 10.8054 -10.1826 54.6564 10.3349)" gradientUnits="userSpaceOnUse">
<stop stop-color="white"/>
<stop offset="0.74" stop-color="white" stop-opacity="0"/>
</radialGradient>
<radialGradient id="paint14_radial_1158_78266" cx="0" cy="0" r="1" gradientTransform="matrix(13.7279 16.7132 12.3896 -10.1556 101.58 16.3395)" gradientUnits="userSpaceOnUse">
<stop stop-color="white"/>
<stop offset="0.8" stop-color="white" stop-opacity="0"/>
</radialGradient>
<linearGradient id="paint15_linear_1158_78266" x1="0.0472203" y1="76.6153" x2="119.897" y2="11.8725" gradientUnits="userSpaceOnUse">
<stop offset="0.07" stop-color="#4727C7"/>
<stop offset="0.37" stop-color="#7757F7"/>
<stop offset="0.57" stop-color="#D747A7"/>
<stop offset="0.97" stop-color="#F72727"/>
</linearGradient>
<radialGradient id="paint16_radial_1158_78266" cx="0" cy="0" r="1" gradientUnits="userSpaceOnUse" gradientTransform="translate(-1.64977 56.7135) scale(5.87567 26.9926)">
<stop stop-color="white"/>
<stop offset="1" stop-color="white" stop-opacity="0"/>
</radialGradient>
<radialGradient id="paint17_radial_1158_78266" cx="0" cy="0" r="1" gradientUnits="userSpaceOnUse" gradientTransform="translate(32.7395 47.4556) scale(5.87567 17.6756)">
<stop stop-color="white"/>
<stop offset="1" stop-color="white" stop-opacity="0"/>
</radialGradient>
<radialGradient id="paint18_radial_1158_78266" cx="0" cy="0" r="1" gradientUnits="userSpaceOnUse" gradientTransform="translate(101.849 42.3044) scale(5.87566 15.0377)">
<stop stop-color="white"/>
<stop offset="1" stop-color="white" stop-opacity="0"/>
</radialGradient>
<radialGradient id="paint19_radial_1158_78266" cx="0" cy="0" r="1" gradientUnits="userSpaceOnUse" gradientTransform="translate(67.3797 46.6087) scale(5.87568 14.87)">
<stop stop-color="white"/>
<stop offset="1" stop-color="white" stop-opacity="0"/>
</radialGradient>
<radialGradient id="paint20_radial_1158_78266" cx="0" cy="0" r="1" gradientUnits="userSpaceOnUse" gradientTransform="translate(52.5195 47.5028) rotate(180) scale(5.87566 17.6756)">
<stop stop-color="white"/>
<stop offset="1" stop-color="white" stop-opacity="0"/>
</radialGradient>
<radialGradient id="paint21_radial_1158_78266" cx="0" cy="0" r="1" gradientUnits="userSpaceOnUse" gradientTransform="translate(121.729 40.0878) rotate(180) scale(5.87566 17.6756)">
<stop stop-color="white"/>
<stop offset="1" stop-color="white" stop-opacity="0"/>
</radialGradient>
<radialGradient id="paint22_radial_1158_78266" cx="0" cy="0" r="1" gradientUnits="userSpaceOnUse" gradientTransform="translate(87.2046 42.7756) rotate(180) scale(5.87597 11.4145)">
<stop stop-color="white"/>
<stop offset="1" stop-color="white" stop-opacity="0"/>
</radialGradient>
<radialGradient id="paint23_radial_1158_78266" cx="0" cy="0" r="1" gradientUnits="userSpaceOnUse" gradientTransform="translate(18.075 49.0403) rotate(180) scale(5.87567 17.6756)">
<stop stop-color="white"/>
<stop offset="1" stop-color="white" stop-opacity="0"/>
</radialGradient>
<linearGradient id="paint24_linear_1158_78266" x1="-2.54554" y1="71.8497" x2="117.204" y2="7.15674" gradientUnits="userSpaceOnUse">
<stop offset="0.07" stop-color="#4727C7"/>
<stop offset="0.37" stop-color="#7757F7"/>
<stop offset="0.57" stop-color="#D747A7"/>
<stop offset="0.97" stop-color="#F72727"/>
</linearGradient>
<radialGradient id="paint25_radial_1158_78266" cx="0" cy="0" r="1" gradientUnits="userSpaceOnUse" gradientTransform="translate(97.7238 16.7402) scale(5.89718 5.89109)">
<stop offset="0.11" stop-color="#FF9AB1"/>
<stop offset="1" stop-color="#FF2A5C"/>
</radialGradient>
<radialGradient id="paint26_radial_1158_78266" cx="0" cy="0" r="1" gradientUnits="userSpaceOnUse" gradientTransform="translate(99.2718 15.8786) scale(4.12468 4.12042)">
<stop offset="0.36" stop-color="#E9355E"/>
<stop offset="1" stop-color="#FFA7BD"/>
</radialGradient>
<radialGradient id="paint27_radial_1158_78266" cx="0" cy="0" r="1" gradientUnits="userSpaceOnUse" gradientTransform="translate(85.5459 12.1419) scale(8.53302 8.5242)">
<stop offset="0.76" stop-color="#E9355E"/>
<stop offset="1" stop-color="#FFA7BD"/>
</radialGradient>
<radialGradient id="paint28_radial_1158_78266" cx="0" cy="0" r="1" gradientUnits="userSpaceOnUse" gradientTransform="translate(96.6062 23.0033) scale(4.46151 4.45691)">
<stop offset="0.36" stop-color="#E9355E"/>
<stop offset="1" stop-color="#E83662"/>
</radialGradient>
<radialGradient id="paint29_radial_1158_78266" cx="0" cy="0" r="1" gradientUnits="userSpaceOnUse" gradientTransform="translate(100.619 26.4089) scale(7.49889 7.49114)">
<stop offset="0.36" stop-color="#E9355E"/>
<stop offset="1" stop-color="#FD5781"/>
</radialGradient>
<radialGradient id="paint30_radial_1158_78266" cx="0" cy="0" r="1" gradientUnits="userSpaceOnUse" gradientTransform="translate(90.7224 23.0151) scale(8.94075 8.93152)">
<stop stop-color="#E93561"/>
<stop offset="0.41" stop-color="#B51845"/>
<stop offset="0.74" stop-color="#E9355F"/>
</radialGradient>
<linearGradient id="paint31_linear_1158_78266" x1="-5.61278" y1="66.1715" x2="114.136" y2="1.47856" gradientUnits="userSpaceOnUse">
<stop offset="0.07" stop-color="#4727C7"/>
<stop offset="0.37" stop-color="#7757F7"/>
<stop offset="0.57" stop-color="#D747A7"/>
<stop offset="0.97" stop-color="#F72727"/>
</linearGradient>
<radialGradient id="paint32_radial_1158_78266" cx="0" cy="0" r="1" gradientUnits="userSpaceOnUse" gradientTransform="translate(109.986 2.83353) scale(6.28749 6.28099)">
<stop offset="0.49" stop-color="#FF8C94"/>
<stop offset="0.58" stop-color="#FE8188"/>
<stop offset="0.74" stop-color="#FB6369"/>
<stop offset="0.95" stop-color="#F73537"/>
<stop offset="1" stop-color="#F6282A"/>
</radialGradient>
<radialGradient id="paint33_radial_1158_78266" cx="0" cy="0" r="1" gradientUnits="userSpaceOnUse" gradientTransform="translate(110.605 2.88076) scale(3.38602 3.38253)">
<stop stop-color="#FF8C94"/>
<stop offset="1" stop-color="#F6282A"/>
</radialGradient>
<radialGradient id="paint34_radial_1158_78266" cx="0" cy="0" r="1" gradientUnits="userSpaceOnUse" gradientTransform="translate(100.932 3.13429) scale(1.9087 1.90673)">
<stop stop-color="white"/>
<stop offset="1" stop-color="#F22C39"/>
</radialGradient>
<radialGradient id="paint35_radial_1158_78266" cx="0" cy="0" r="1" gradientUnits="userSpaceOnUse" gradientTransform="translate(103.609 3.18201) scale(2.96055 2.9575)">
<stop offset="0.36" stop-color="#F22C3A"/>
<stop offset="1" stop-color="#FF949B"/>
</radialGradient>
<radialGradient id="paint36_radial_1158_78266" cx="0" cy="0" r="1" gradientUnits="userSpaceOnUse" gradientTransform="translate(110.54 10.1176) scale(7.12069 7.11334)">
<stop offset="0.3" stop-color="#F6282A"/>
<stop offset="1" stop-color="#FFCBCE"/>
</radialGradient>
</defs>
</svg>
