<svg width="13" height="13" viewBox="0 0 13 13" fill="none" xmlns="http://www.w3.org/2000/svg">
<path d="M10.1321 0H1.93687C0.867165 0 0 0.867165 0 1.93687V10.1321C0 11.2018 0.867165 12.069 1.93687 12.069H10.1321C11.2018 12.069 12.069 11.2018 12.069 10.1321V1.93687C12.069 0.867165 11.2018 0 10.1321 0Z" fill="url(#paint0_linear_856_42546)"/>
<path d="M10.862 3.9162C10.1312 3.9162 9.53876 4.50815 9.53876 5.23845V7.06707C9.534 7.46503 9.20926 7.78691 8.81083 7.78691C8.41239 7.78691 8.08955 7.46645 8.0829 7.07087C8.0829 7.06707 8.08242 7.06279 8.08242 7.05898V5.94736L8.07719 5.81804C8.05009 5.42245 7.90745 5.05445 7.67923 4.74635C7.60221 4.64318 7.51567 4.54761 7.42106 4.4606C7.39538 4.4373 7.36971 4.41448 7.34356 4.39261C7.33024 4.3812 7.31645 4.37026 7.30267 4.35885L7.28935 4.34839C7.28555 4.34554 7.28127 4.34221 7.27747 4.33936C7.27129 4.3346 7.26415 4.32937 7.25607 4.32367C7.23135 4.30512 7.2071 4.28753 7.1819 4.27042C7.03356 4.16819 6.87808 4.08927 6.7188 4.03269C6.69836 4.02508 6.67744 4.01795 6.65604 4.01129C6.42021 3.93569 6.17725 3.90669 5.93809 3.92C5.9224 3.92048 5.90719 3.92143 5.8915 3.92286C5.48403 3.95424 5.09082 4.10591 4.76751 4.35457C4.76038 4.3598 4.75372 4.36503 4.74707 4.37074C4.73708 4.37882 4.7271 4.3869 4.71711 4.39499C4.6748 4.43017 4.61394 4.42874 4.57162 4.39356C4.57162 4.39356 4.57115 4.39356 4.57115 4.39308C4.55783 4.38167 4.54404 4.37074 4.53026 4.35933L4.51694 4.34887C4.51314 4.34601 4.50886 4.34269 4.50506 4.33983C4.49888 4.33508 4.49174 4.32985 4.48366 4.32414C4.31345 4.19577 4.1323 4.09925 3.94639 4.03316C3.92595 4.02555 3.90503 4.01842 3.88363 4.01177C3.6478 3.93617 3.40484 3.90717 3.16568 3.92048C3.14999 3.92095 3.13478 3.9219 3.11909 3.92333C2.71162 3.95471 2.31841 4.10638 1.9951 4.35505C1.98797 4.36028 1.98131 4.36551 1.97466 4.37121C1.54246 4.71022 1.2415 5.22609 1.20964 5.85607C1.20774 5.89268 1.20679 5.92977 1.20679 5.96685V9.10964C1.25053 9.10964 1.29427 9.10774 1.33706 9.10346C1.96229 9.04213 2.45963 8.5467 2.52286 7.92242C2.52762 7.8782 2.52952 7.83303 2.52952 7.78739V5.95877C2.53427 5.56081 2.85901 5.23893 3.25745 5.23893C3.63116 5.23893 3.93926 5.52182 3.98062 5.88412C3.98348 5.91123 3.98585 5.9388 3.98585 5.96685V7.77931C3.98585 7.86251 4.02912 7.94001 4.09949 7.98375L4.51647 8.24335C4.59397 8.29138 4.69239 8.29185 4.77036 8.2443L5.18782 7.98803C5.25724 7.94524 5.30145 7.87012 5.30145 7.78881V5.9583C5.30145 5.93452 5.30335 5.9117 5.30573 5.88935C5.34424 5.5242 5.65377 5.23845 6.02938 5.23845C6.42734 5.23845 6.75066 5.55891 6.75731 5.95449C6.75731 5.9583 6.75779 5.96258 6.75779 5.96638V7.078L6.76302 7.2078C6.78299 7.49974 6.86619 7.77645 7.00027 8.02559C7.04782 8.11403 7.10155 8.19914 7.16145 8.27949C7.23848 8.38266 7.32501 8.47823 7.41963 8.56524C7.4453 8.58854 7.47098 8.61136 7.49713 8.63323C7.51044 8.64464 7.52423 8.65558 7.53802 8.66699L7.55133 8.67745C7.55514 8.6803 7.55941 8.68363 7.56322 8.68648C7.5694 8.69124 7.57653 8.69647 7.58461 8.70217C7.60934 8.72072 7.63359 8.73831 7.65879 8.75542C7.71774 8.79584 7.77765 8.83197 7.83851 8.86525C7.93122 8.91565 8.02537 8.9594 8.12188 8.99363C8.14233 9.00124 8.16325 9.00837 8.18464 9.01502C8.42047 9.09062 8.66343 9.11963 8.90259 9.10631C8.91828 9.10584 8.9335 9.10489 8.94919 9.10346C9.15363 9.08777 9.3538 9.04213 9.54399 8.96843C9.73322 8.89521 9.91199 8.79584 10.0727 8.67174C10.0798 8.66651 10.0865 8.66128 10.0931 8.65558C10.3732 8.43449 10.5976 8.1397 10.7298 7.78786C10.8016 7.59768 10.8463 7.39038 10.8572 7.16929C10.8591 7.13268 10.8601 7.0956 10.8601 7.05851V3.9162H10.8615H10.862Z" fill="white"/>
<path d="M8.72289 5.25318C8.88597 4.85997 9.01815 4.72779 9.41136 4.56519C9.01768 4.4021 8.8855 4.2704 8.72289 3.8772C8.55981 4.2704 8.42763 4.40258 8.03442 4.56519C8.42811 4.72827 8.56028 4.85997 8.72289 5.25318Z" fill="white"/>
<path d="M9.19922 3.44643C9.48592 3.32804 9.58244 3.23153 9.7013 2.94482C9.82017 3.23153 9.91669 3.32804 10.2034 3.44643C9.91669 3.5653 9.82017 3.66182 9.7013 3.94804C9.58244 3.66134 9.48592 3.56482 9.19922 3.44643Z" fill="white"/>
<defs>
<linearGradient id="paint0_linear_856_42546" x1="12.069" y1="0" x2="0" y2="12.069" gradientUnits="userSpaceOnUse">
<stop stop-color="#F72727"/>
<stop offset="0.35" stop-color="#D747A7"/>
<stop offset="0.65" stop-color="#7757F7"/>
<stop offset="1" stop-color="#4727C7"/>
</linearGradient>
</defs>
</svg>
