<svg width="122" height="41" viewBox="0 0 122 41" fill="none" xmlns="http://www.w3.org/2000/svg">
<path d="M34.348 0H6.56602C2.93971 0 0 2.93971 0 6.56602V34.348C0 37.9744 2.93971 40.9141 6.56602 40.9141H34.348C37.9744 40.9141 40.9141 37.9744 40.9141 34.348V6.56602C40.9141 2.93971 37.9744 0 34.348 0Z" fill="url(#paint0_linear_856_41832)"/>
<path d="M36.823 13.2734C34.3457 13.2734 32.3373 15.2802 32.3373 17.7559V23.955C32.3212 25.3041 31.2203 26.3953 29.8696 26.3953C28.5189 26.3953 27.4245 25.3089 27.4019 23.9679C27.4019 23.955 27.4003 23.9405 27.4003 23.9276V20.1591L27.3826 19.7207C27.2907 18.3797 26.8072 17.1321 26.0335 16.0877C25.7724 15.7379 25.479 15.4139 25.1583 15.119C25.0712 15.04 24.9842 14.9626 24.8956 14.8885C24.8504 14.8498 24.8037 14.8127 24.7569 14.774L24.7118 14.7386C24.6989 14.7289 24.6844 14.7176 24.6715 14.708C24.6506 14.6918 24.6264 14.6741 24.599 14.6548C24.5152 14.5919 24.433 14.5323 24.3475 14.4742C23.8447 14.1277 23.3176 13.8601 22.7776 13.6683C22.7083 13.6425 22.6374 13.6184 22.5649 13.5958C21.7654 13.3395 20.9418 13.2412 20.131 13.2863C20.0778 13.2879 20.0263 13.2912 19.9731 13.296C18.5917 13.4024 17.2588 13.9166 16.1627 14.7595C16.1385 14.7773 16.116 14.795 16.0934 14.8143C16.0596 14.8417 16.0257 14.8691 15.9919 14.8965C15.8484 15.0158 15.6421 15.011 15.4986 14.8917C15.4986 14.8917 15.497 14.8917 15.497 14.8901C15.4519 14.8514 15.4052 14.8143 15.3584 14.7757L15.3133 14.7402C15.3004 14.7305 15.2859 14.7192 15.273 14.7096C15.252 14.6935 15.2279 14.6757 15.2005 14.6564C14.6234 14.2212 14.0093 13.894 13.3791 13.6699C13.3098 13.6442 13.2389 13.62 13.1663 13.5974C12.3669 13.3411 11.5432 13.2428 10.7325 13.2879C10.6793 13.2896 10.6277 13.2928 10.5745 13.2976C9.19321 13.404 7.86023 13.9182 6.76419 14.7611C6.74002 14.7789 6.71745 14.7966 6.69489 14.8159C5.22974 15.9652 4.20946 17.714 4.10147 19.8497C4.09502 19.9738 4.0918 20.0995 4.0918 20.2252V30.8793C4.24008 30.8793 4.38837 30.8729 4.53344 30.8584C6.65298 30.6505 8.33894 28.9709 8.55332 26.8546C8.56943 26.7047 8.57588 26.5516 8.57588 26.3969V20.1978C8.592 18.8487 9.69287 17.7575 11.0436 17.7575C12.3105 17.7575 13.3549 18.7166 13.4952 19.9448C13.5048 20.0366 13.5129 20.1301 13.5129 20.2252V26.3695C13.5129 26.6515 13.6596 26.9143 13.8981 27.0626L15.3117 27.9426C15.5744 28.1054 15.908 28.107 16.1724 27.9458L17.5876 27.0771C17.8229 26.932 17.9728 26.6773 17.9728 26.4017V20.1962C17.9728 20.1156 17.9792 20.0382 17.9873 19.9625C18.1179 18.7246 19.1672 17.7559 20.4405 17.7559C21.7896 17.7559 22.8856 18.8423 22.9082 20.1833C22.9082 20.1962 22.9098 20.2107 22.9098 20.2236V23.992L22.9275 24.4321C22.9952 25.4217 23.2773 26.3598 23.7318 27.2044C23.893 27.5042 24.0751 27.7927 24.2782 28.0651C24.5393 28.4149 24.8327 28.7388 25.1535 29.0338C25.2405 29.1128 25.3275 29.1902 25.4162 29.2643C25.4613 29.303 25.5081 29.3401 25.5548 29.3787L25.5999 29.4142C25.6128 29.4239 25.6273 29.4352 25.6402 29.4448C25.6612 29.4609 25.6854 29.4787 25.7128 29.498C25.7966 29.5609 25.8788 29.6205 25.9642 29.6785C26.1641 29.8155 26.3672 29.938 26.5735 30.0509C26.8878 30.2217 27.2069 30.37 27.5341 30.4861C27.6034 30.5118 27.6743 30.536 27.7469 30.5586C28.5463 30.8149 29.37 30.9132 30.1807 30.8681C30.2339 30.8664 30.2855 30.8632 30.3387 30.8584C31.0318 30.8052 31.7103 30.6505 32.3551 30.4006C32.9966 30.1524 33.6026 29.8155 34.1474 29.3949C34.1716 29.3771 34.1941 29.3594 34.2167 29.3401C35.1661 28.5906 35.9269 27.5912 36.3749 26.3985C36.6183 25.7538 36.7698 25.051 36.8069 24.3015C36.8134 24.1774 36.8166 24.0517 36.8166 23.926V13.2734H36.8214H36.823Z" fill="white"/>
<path d="M29.5712 17.8091C30.1241 16.4762 30.5722 16.0281 31.9051 15.4768C30.5705 14.924 30.1225 14.4775 29.5712 13.1445C29.0184 14.4775 28.5703 14.9256 27.2373 15.4768C28.5719 16.0297 29.02 16.4762 29.5712 17.8091Z" fill="white"/>
<path d="M31.1855 11.6809C32.1575 11.2796 32.4847 10.9524 32.8876 9.98047C33.2906 10.9524 33.6178 11.2796 34.5897 11.6809C33.6178 12.0839 33.2906 12.4111 32.8876 13.3814C32.4847 12.4095 32.1575 12.0823 31.1855 11.6809Z" fill="white"/>
<path d="M54.0821 17.957H52.0341V6.13303H53.9861L58.0341 12.565H58.1301L62.1621 6.13303H64.1301V17.957H62.0661V10.005H61.9861L58.8021 15.045H57.3461L54.1781 10.037H54.0821V17.957ZM70.9706 16.197C71.7599 16.197 72.3732 15.9517 72.8106 15.461C73.2586 14.9704 73.4826 14.2717 73.4826 13.365V6.13303H75.5946V13.477C75.5946 14.4477 75.4079 15.285 75.0346 15.989C74.6612 16.693 74.1226 17.2317 73.4186 17.605C72.7252 17.9784 71.9092 18.165 70.9706 18.165C70.0212 18.165 69.1999 17.9784 68.5066 17.605C67.8132 17.2317 67.2799 16.693 66.9066 15.989C66.5332 15.285 66.3466 14.4477 66.3466 13.477V6.13303H68.4426V13.301C68.4426 14.2184 68.6666 14.933 69.1146 15.445C69.5626 15.9464 70.1812 16.197 70.9706 16.197ZM82.6949 17.957H80.5989V8.10103H77.0789V6.13303H86.1989V8.10103H82.6949V17.957ZM89.5091 18.165C88.6664 18.165 87.9304 17.9784 87.3011 17.605C86.6824 17.2317 86.2024 16.6984 85.8611 16.005C85.5304 15.3117 85.3651 14.4957 85.3651 13.557C85.3651 12.629 85.5304 11.8184 85.8611 11.125C86.2024 10.4317 86.6824 9.89836 87.3011 9.52503C87.9304 9.1517 88.6664 8.96503 89.5091 8.96503C90.3517 8.96503 91.0824 9.1517 91.7011 9.52503C92.3304 9.89836 92.8104 10.4317 93.1411 11.125C93.4824 11.8184 93.6531 12.629 93.6531 13.557C93.6531 14.4957 93.4824 15.3117 93.1411 16.005C92.8104 16.6984 92.3304 17.2317 91.7011 17.605C91.0824 17.9784 90.3517 18.165 89.5091 18.165ZM89.5091 16.261C90.1491 16.261 90.6557 16.021 91.0291 15.541C91.4024 15.0504 91.5891 14.389 91.5891 13.557C91.5891 12.7357 91.4024 12.085 91.0291 11.605C90.6557 11.125 90.1491 10.885 89.5091 10.885C88.8797 10.885 88.3784 11.125 88.0051 11.605C87.6317 12.085 87.4451 12.7357 87.4451 13.557C87.4451 14.389 87.6317 15.0504 88.0051 15.541C88.3784 16.021 88.8797 16.261 89.5091 16.261ZM103.026 17.957H100.994V16.821H100.914C100.648 17.2477 100.306 17.5784 99.8902 17.813C99.4849 18.0477 99.0315 18.165 98.5302 18.165C97.8049 18.165 97.1595 17.973 96.5942 17.589C96.0289 17.1944 95.5915 16.645 95.2822 15.941C94.9729 15.2264 94.8182 14.405 94.8182 13.477C94.8182 12.581 94.9675 11.7917 95.2662 11.109C95.5755 10.4264 96.0022 9.89836 96.5462 9.52503C97.1009 9.1517 97.7355 8.96503 98.4502 8.96503C98.9622 8.96503 99.4262 9.08236 99.8422 9.31703C100.258 9.5517 100.616 9.88236 100.914 10.309H100.994V6.13303H103.026V17.957ZM101.058 13.573C101.058 12.773 100.866 12.1277 100.482 11.637C100.098 11.1464 99.5969 10.901 98.9782 10.901C98.3595 10.901 97.8582 11.1464 97.4742 11.637C97.0902 12.1277 96.8982 12.773 96.8982 13.573C96.8982 14.373 97.0955 15.0184 97.4902 15.509C97.8849 15.9997 98.3969 16.245 99.0262 16.245C99.6342 16.245 100.125 15.9997 100.498 15.509C100.872 15.0184 101.058 14.373 101.058 13.573ZM107.352 18.165C106.541 18.165 105.869 17.9464 105.336 17.509C104.802 17.061 104.536 16.453 104.536 15.685C104.536 15.0664 104.701 14.5224 105.032 14.053C105.362 13.573 105.837 13.205 106.456 12.949C107.074 12.693 107.805 12.565 108.648 12.565H109.88V12.229C109.88 11.7704 109.72 11.4024 109.4 11.125C109.09 10.837 108.68 10.693 108.168 10.693C107.442 10.693 106.856 11.013 106.408 11.653L104.968 10.645C105.757 9.52503 106.872 8.96503 108.312 8.96503C109.016 8.96503 109.64 9.1037 110.184 9.38103C110.728 9.6477 111.149 10.0317 111.448 10.533C111.757 11.0237 111.912 11.5997 111.912 12.261V17.957H109.88V16.853H109.784C109.581 17.269 109.261 17.5944 108.824 17.829C108.386 18.053 107.896 18.165 107.352 18.165ZM107.912 16.453C108.424 16.453 108.877 16.3144 109.272 16.037C109.677 15.749 109.88 15.349 109.88 14.837V14.277H109.064C108.242 14.277 107.624 14.389 107.208 14.613C106.802 14.8264 106.6 15.141 106.6 15.557C106.6 15.8344 106.717 16.053 106.952 16.213C107.197 16.373 107.517 16.453 107.912 16.453ZM116.195 17.957L112.739 9.18903H114.995L117.251 15.477H117.347L119.507 9.18903H121.779L116.995 21.285H114.803L116.195 17.957Z" fill="#081021"/>
<path d="M54.1661 36.125C53.4221 36.125 52.8261 35.913 52.3781 35.489C51.9301 35.057 51.7061 34.457 51.7061 33.689C51.7061 33.257 51.7701 32.881 51.8981 32.561C52.0341 32.233 52.2181 31.877 52.4501 31.493C52.6021 31.253 52.7141 31.057 52.7861 30.905C52.8581 30.745 52.8941 30.585 52.8941 30.425C52.8941 30.273 52.8501 30.157 52.7621 30.077C52.6741 29.989 52.5541 29.945 52.4021 29.945H51.7781V29.129H52.5101C52.9021 29.129 53.2101 29.237 53.4341 29.453C53.6581 29.669 53.7701 29.965 53.7701 30.341C53.7701 30.597 53.7221 30.837 53.6261 31.061C53.5381 31.285 53.4061 31.553 53.2301 31.865C53.0221 32.217 52.8661 32.529 52.7621 32.801C52.6581 33.065 52.6061 33.361 52.6061 33.689C52.6061 34.169 52.7501 34.557 53.0381 34.853C53.3341 35.141 53.7181 35.285 54.1901 35.285C54.6861 35.285 55.0781 35.129 55.3661 34.817C55.6621 34.505 55.8101 34.081 55.8101 33.545V32.501C55.8101 32.149 55.7261 31.877 55.5581 31.685C55.3981 31.485 55.1501 31.337 54.8141 31.241V30.725L56.4821 28.937L57.0941 29.549L55.7501 30.929V30.989C56.3901 31.253 56.7101 31.729 56.7101 32.417V33.629C56.7101 34.389 56.4781 34.997 56.0141 35.453C55.5501 35.901 54.9341 36.125 54.1661 36.125ZM55.7734 37.733H54.9094V36.989H56.5894V38.921H55.7734V37.733ZM61.6157 36.125C61.1277 36.125 60.6917 36.013 60.3077 35.789C59.9237 35.557 59.6237 35.241 59.4077 34.841H59.3357V35.957H58.4357V29.129H59.3357V33.065C59.3357 33.489 59.4237 33.869 59.5997 34.205C59.7757 34.533 60.0197 34.793 60.3317 34.985C60.6437 35.169 60.9957 35.261 61.3877 35.261C61.9157 35.261 62.3237 35.081 62.6117 34.721C62.8997 34.361 63.0437 33.845 63.0437 33.173V29.129H63.9437V33.293C63.9437 34.173 63.7397 34.865 63.3317 35.369C62.9237 35.873 62.3517 36.125 61.6157 36.125ZM68.0528 36.125C67.3088 36.125 66.7128 35.913 66.2648 35.489C65.8168 35.057 65.5928 34.457 65.5928 33.689C65.5928 33.257 65.6568 32.881 65.7848 32.561C65.9208 32.233 66.1048 31.877 66.3368 31.493C66.4888 31.253 66.6008 31.057 66.6728 30.905C66.7448 30.745 66.7808 30.585 66.7808 30.425C66.7808 30.273 66.7368 30.157 66.6488 30.077C66.5608 29.989 66.4408 29.945 66.2888 29.945H65.6648V29.129H66.3968C66.7888 29.129 67.0968 29.237 67.3208 29.453C67.5448 29.669 67.6568 29.965 67.6568 30.341C67.6568 30.597 67.6088 30.837 67.5128 31.061C67.4248 31.285 67.2928 31.553 67.1168 31.865C66.9088 32.217 66.7528 32.529 66.6488 32.801C66.5448 33.065 66.4928 33.361 66.4928 33.689C66.4928 34.169 66.6368 34.557 66.9248 34.853C67.2208 35.141 67.6048 35.285 68.0768 35.285C68.5728 35.285 68.9648 35.129 69.2528 34.817C69.5488 34.505 69.6968 34.081 69.6968 33.545V32.501C69.6968 32.149 69.6128 31.877 69.4448 31.685C69.2848 31.485 69.0368 31.337 68.7008 31.241V30.725L70.3688 28.937L70.9808 29.549L69.6368 30.929V30.989C70.2768 31.253 70.5968 31.729 70.5968 32.417V33.629C70.5968 34.389 70.3648 34.997 69.9008 35.453C69.4368 35.901 68.8208 36.125 68.0528 36.125ZM74.5904 36.125C73.8544 36.125 73.2784 35.885 72.8624 35.405C72.4544 34.917 72.2504 34.249 72.2504 33.401V29.129H73.1504V33.281C73.1504 33.913 73.2944 34.401 73.5824 34.745C73.8704 35.089 74.2824 35.261 74.8184 35.261C75.2104 35.261 75.5584 35.169 75.8624 34.985C76.1744 34.793 76.4184 34.533 76.5944 34.205C76.7704 33.869 76.8584 33.489 76.8584 33.065V29.129H77.7584V35.957H76.8584V34.841H76.7864C76.5704 35.241 76.2704 35.557 75.8864 35.789C75.5024 36.013 75.0704 36.125 74.5904 36.125ZM81.2795 36.125C80.6555 36.125 80.1595 35.953 79.7915 35.609C79.4315 35.265 79.2515 34.797 79.2515 34.205C79.2515 33.493 79.5235 32.937 80.0675 32.537C80.6195 32.137 81.3795 31.937 82.3475 31.937H83.7275V31.469C83.7275 30.925 83.5795 30.513 83.2835 30.233C82.9955 29.945 82.5875 29.801 82.0595 29.801C81.3235 29.801 80.7035 30.065 80.1995 30.593L79.6475 29.945C79.9515 29.641 80.3075 29.401 80.7155 29.225C81.1315 29.049 81.5875 28.961 82.0835 28.961C82.7795 28.961 83.3515 29.129 83.7995 29.465L84.7955 28.541L85.3595 29.189L84.3395 30.125C84.5315 30.493 84.6275 30.901 84.6275 31.349V35.957H83.7275V32.777H82.3595C81.6715 32.777 81.1315 32.905 80.7395 33.161C80.3555 33.409 80.1635 33.749 80.1635 34.181C80.1635 34.517 80.2755 34.785 80.4995 34.985C80.7315 35.185 81.0395 35.285 81.4235 35.285C81.6875 35.285 81.9355 35.241 82.1675 35.153V35.993C81.8955 36.081 81.5995 36.125 81.2795 36.125ZM89.0967 31.145C89.0967 30.713 88.9767 30.381 88.7367 30.149C88.5047 29.917 88.1807 29.801 87.7647 29.801C87.1647 29.801 86.6687 30.025 86.2767 30.473L85.7247 29.825C85.9727 29.553 86.2727 29.341 86.6247 29.189C86.9767 29.037 87.3647 28.961 87.7887 28.961C88.4607 28.961 88.9967 29.149 89.3967 29.525C89.7967 29.893 89.9967 30.401 89.9967 31.049V35.957H89.0967V31.145ZM94.2476 36.125C93.7196 36.125 93.2516 36.037 92.8436 35.861C92.4436 35.677 92.1316 35.421 91.9076 35.093C91.6916 34.765 91.5836 34.389 91.5836 33.965C91.5836 33.589 91.6796 33.265 91.8716 32.993C92.0636 32.721 92.3556 32.521 92.7476 32.393V32.321C92.3476 32.177 92.0436 31.969 91.8356 31.697C91.6356 31.425 91.5356 31.109 91.5356 30.749C91.5356 30.237 91.7356 29.821 92.1356 29.501C92.5356 29.173 93.0476 29.009 93.6716 29.009C93.9996 29.009 94.2996 29.053 94.5716 29.141V29.969C94.3236 29.889 94.0636 29.849 93.7916 29.849C93.3836 29.849 93.0556 29.941 92.8076 30.125C92.5596 30.309 92.4356 30.561 92.4356 30.881C92.4356 31.209 92.5556 31.465 92.7956 31.649C93.0436 31.833 93.3756 31.925 93.7916 31.925H94.5716V32.741H93.7916C93.3996 32.741 93.0876 32.845 92.8556 33.053C92.6236 33.261 92.5076 33.541 92.5076 33.893C92.5076 34.309 92.6676 34.645 92.9876 34.901C93.3076 35.157 93.7196 35.285 94.2236 35.285C94.7996 35.285 95.2636 35.117 95.6156 34.781C95.9756 34.445 96.1556 33.993 96.1556 33.425V29.129H97.0556V33.521C97.0556 34.313 96.7996 34.945 96.2876 35.417C95.7836 35.889 95.1036 36.125 94.2476 36.125ZM102.01 36.125C101.522 36.125 101.086 36.013 100.702 35.789C100.318 35.557 100.018 35.241 99.8023 34.841H99.7303V35.957H98.8303V29.129H99.7303V33.065C99.7303 33.489 99.8183 33.869 99.9943 34.205C100.17 34.533 100.414 34.793 100.726 34.985C101.038 35.169 101.39 35.261 101.782 35.261C102.31 35.261 102.718 35.081 103.006 34.721C103.294 34.361 103.438 33.845 103.438 33.173V29.129H104.338V33.293C104.338 34.173 104.134 34.865 103.726 35.369C103.318 35.873 102.746 36.125 102.01 36.125ZM102.762 39.173C102.338 39.173 101.998 39.053 101.742 38.813C101.478 38.581 101.346 38.269 101.346 37.877V37.673H100.77V36.989H102.102V37.805C102.102 38.005 102.162 38.165 102.282 38.285C102.402 38.413 102.562 38.477 102.762 38.477C102.962 38.477 103.126 38.417 103.254 38.297C103.374 38.177 103.434 38.013 103.434 37.805V36.989H104.214V37.877C104.214 38.269 104.082 38.581 103.818 38.813C103.554 39.053 103.202 39.173 102.762 39.173Z" fill="#081021"/>
<defs>
<linearGradient id="paint0_linear_856_41832" x1="40.9141" y1="0" x2="0" y2="40.9141" gradientUnits="userSpaceOnUse">
<stop stop-color="#F72727"/>
<stop offset="0.35" stop-color="#D747A7"/>
<stop offset="0.65" stop-color="#7757F7"/>
<stop offset="1" stop-color="#4727C7"/>
</linearGradient>
</defs>
</svg>
