<svg width="115" height="31" viewBox="0 0 115 31" fill="none" xmlns="http://www.w3.org/2000/svg">
<path d="M67.0981 23.5536C66.3648 23.5536 65.7181 23.3869 65.1581 23.0536C64.6115 22.7069 64.1715 22.2336 63.8381 21.6336H63.7181V23.2736H61.1781V11.7536H63.7181V18.3736C63.7181 19.2136 63.9448 19.8936 64.3981 20.4136C64.8648 20.9202 65.4515 21.1736 66.1581 21.1736C66.8248 21.1736 67.3381 20.9402 67.6981 20.4736C68.0715 19.9936 68.2581 19.3336 68.2581 18.4936V11.7536H70.7981V18.9536C70.7981 20.3936 70.4648 21.5202 69.7981 22.3336C69.1448 23.1469 68.2448 23.5536 67.0981 23.5536ZM67.6513 28.6936C66.8246 28.6936 66.1646 28.4936 65.6713 28.0936C65.1779 27.6936 64.9313 27.1602 64.9313 26.4936V26.3736H63.9513V24.7136H66.8313V26.0536C66.8313 26.3069 66.9113 26.5136 67.0713 26.6736C67.2179 26.8336 67.4179 26.9136 67.6713 26.9136C67.9246 26.9136 68.1313 26.8336 68.2913 26.6736C68.4379 26.5269 68.5113 26.3202 68.5113 26.0536V24.7136H70.5913V26.1936C70.5913 26.9536 70.3246 27.5602 69.7913 28.0136C69.2579 28.4669 68.5446 28.6936 67.6513 28.6936ZM73.3656 11.7336H75.9056V13.3936H76.0256C76.359 12.7802 76.8123 12.3069 77.3856 11.9736C77.959 11.6402 78.619 11.4736 79.3656 11.4736C80.5123 11.4736 81.4123 11.8669 82.0656 12.6536C82.7323 13.4269 83.0656 14.4936 83.0656 15.8536V23.2736H80.5256V16.3136C80.5256 15.5402 80.339 14.9336 79.9656 14.4936C79.5923 14.0536 79.0723 13.8336 78.4056 13.8336C77.6723 13.8336 77.0723 14.0936 76.6056 14.6136C76.139 15.1202 75.9056 15.7869 75.9056 16.6136V23.2736H73.3656V11.7336ZM80.1317 28.6936C79.3051 28.6936 78.6451 28.4936 78.1517 28.0936C77.6584 27.6936 77.4117 27.1602 77.4117 26.4936V26.3736H76.4317V24.7136H79.3117V26.0536C79.3117 26.3069 79.3917 26.5136 79.5517 26.6736C79.6984 26.8336 79.8984 26.9136 80.1517 26.9136C80.4051 26.9136 80.6117 26.8336 80.7717 26.6736C80.9184 26.5269 80.9917 26.3202 80.9917 26.0536V24.7136H83.0717V26.1936C83.0717 26.9536 82.8051 27.5602 82.2717 28.0136C81.7384 28.4669 81.0251 28.6936 80.1317 28.6936ZM88.3713 23.2736C86.7179 23.2736 85.8913 22.4936 85.8913 20.9336V11.7536H88.4313V20.2536C88.4313 20.7202 88.6646 20.9536 89.1313 20.9536H89.8113V23.2736H88.3713ZM92.833 23.2736C91.553 21.4202 90.913 19.5002 90.913 17.5136C90.913 16.2869 91.1463 15.2202 91.613 14.3136C92.093 13.4069 92.7663 12.7069 93.633 12.2136C94.4996 11.7202 95.513 11.4736 96.673 11.4736C97.6996 11.4736 98.593 11.6669 99.353 12.0536C100.113 12.4402 100.693 12.9869 101.093 13.6936C101.506 14.4002 101.713 15.2269 101.713 16.1736V23.2736H99.213V16.3736C99.213 15.5736 98.973 14.9402 98.493 14.4736C98.0263 13.9936 97.3863 13.7536 96.573 13.7536C95.5996 13.7536 94.8196 14.0936 94.233 14.7736C93.6596 15.4536 93.373 16.3669 93.373 17.5136C93.373 18.9669 93.7663 20.4136 94.553 21.8536C95.3263 20.8136 95.7396 19.6869 95.793 18.4736H94.593V16.4136H97.753C97.833 16.8136 97.873 17.2469 97.873 17.7136C97.873 19.7802 97.2063 21.6336 95.873 23.2736H92.833ZM108.625 23.5536C107.705 23.5536 106.891 23.4069 106.185 23.1136C105.478 22.8069 104.925 22.3736 104.525 21.8136C104.138 21.2536 103.945 20.6002 103.945 19.8536C103.945 19.2402 104.091 18.7136 104.385 18.2736C104.691 17.8202 105.145 17.4936 105.745 17.2936V17.1736C105.131 16.9602 104.665 16.6269 104.345 16.1736C104.025 15.7069 103.865 15.1669 103.865 14.5536C103.865 13.9802 104.011 13.4669 104.305 13.0136C104.611 12.5602 105.031 12.2069 105.565 11.9536C106.098 11.6869 106.705 11.5536 107.385 11.5536C107.958 11.5536 108.498 11.6402 109.005 11.8136V13.8736C108.645 13.7669 108.311 13.7136 108.005 13.7136C107.525 13.7136 107.131 13.8269 106.825 14.0536C106.518 14.2802 106.365 14.5869 106.365 14.9736C106.365 15.3602 106.525 15.6669 106.845 15.8936C107.165 16.1069 107.585 16.2136 108.105 16.2136H109.005V18.2936H108.025C107.571 18.2936 107.205 18.4202 106.925 18.6736C106.645 18.9136 106.505 19.2402 106.505 19.6536C106.505 20.1336 106.698 20.5269 107.085 20.8336C107.471 21.1269 107.971 21.2736 108.585 21.2736C109.318 21.2736 109.898 21.0602 110.325 20.6336C110.765 20.1936 110.985 19.6069 110.985 18.8736V11.7536H113.525V19.0136C113.525 20.4136 113.085 21.5202 112.205 22.3336C111.338 23.1469 110.145 23.5536 108.625 23.5536ZM110.161 9.85357C110.161 9.00024 110.374 8.37357 110.801 7.97357C111.228 7.57357 111.888 7.37357 112.781 7.37357H114.361V9.19357H113.181C112.688 9.19357 112.441 9.44024 112.441 9.93357V10.3136H110.161V9.85357Z" fill="black"/>
<path d="M47.846 4.81337C44.2248 4.81337 41.2892 7.7466 41.2892 11.3654V20.4266C41.2657 22.3986 39.6565 23.9936 37.6822 23.9936C35.7078 23.9936 34.1081 22.4057 34.0751 20.4455C34.0751 20.4266 34.0728 20.4054 34.0728 20.3866V14.8782L34.0469 14.2374C33.9126 12.2772 33.2058 10.4537 32.0749 8.92696C31.6932 8.41571 31.2644 7.94215 30.7956 7.511C30.6683 7.39555 30.5411 7.28246 30.4115 7.17409C30.3456 7.11754 30.2773 7.06336 30.2089 7.00681L30.143 6.95498C30.1241 6.94084 30.1029 6.92435 30.0841 6.91021C30.0534 6.88665 30.0181 6.86074 29.978 6.83247C29.8555 6.74058 29.7354 6.65341 29.6105 6.56859C28.8754 6.06205 28.105 5.67095 27.3158 5.39059C27.2144 5.35289 27.1108 5.31755 27.0048 5.28457C25.8362 4.90996 24.6323 4.76625 23.4472 4.83221C23.3694 4.83457 23.294 4.83928 23.2163 4.84635C21.1972 5.00185 19.2488 5.75341 17.6467 6.98561C17.6114 7.01152 17.5784 7.03744 17.5454 7.06571C17.4959 7.10576 17.4464 7.14582 17.397 7.18587C17.1873 7.36021 16.8857 7.35314 16.676 7.1788C16.676 7.1788 16.6737 7.1788 16.6737 7.17644C16.6077 7.1199 16.5394 7.06571 16.4711 7.00917L16.4051 6.95734C16.3862 6.9432 16.365 6.92671 16.3462 6.91257C16.3156 6.88901 16.2802 6.86309 16.2402 6.83482C15.3967 6.1987 14.4991 5.72043 13.5779 5.39294C13.4766 5.35525 13.3729 5.31991 13.2669 5.28692C12.0983 4.91232 10.8944 4.7686 9.70931 4.83457C9.63156 4.83693 9.55617 4.84164 9.47842 4.84871C7.45933 5.0042 5.51091 5.75577 3.90882 6.98796C3.87348 7.01388 3.8405 7.0398 3.80751 7.06807C1.6659 8.7479 0.174552 11.3042 0.0166995 14.4259C0.00727549 14.6073 0.00256348 14.7911 0.00256348 14.9748V30.5481C0.219316 30.5481 0.436069 30.5386 0.648109 30.5174C3.74626 30.2135 6.21064 27.7585 6.52399 24.6651C6.54755 24.446 6.55697 24.2222 6.55697 23.996V14.9348C6.58053 12.9628 8.18969 11.3678 10.164 11.3678C12.0158 11.3678 13.5425 12.7696 13.7475 14.5649C13.7616 14.6992 13.7734 14.8358 13.7734 14.9748V23.9559C13.7734 24.3682 13.9878 24.7523 14.3365 24.969L16.4027 26.2554C16.7868 26.4934 17.2744 26.4957 17.6608 26.2601L19.7294 24.9902C20.0734 24.7782 20.2925 24.4059 20.2925 24.0031V14.9324C20.2925 14.8146 20.3019 14.7015 20.3137 14.5908C20.5045 12.7814 22.0383 11.3654 23.8995 11.3654C25.8715 11.3654 27.4736 12.9534 27.5066 14.9136C27.5066 14.9324 27.5089 14.9536 27.5089 14.9725V20.4808L27.5349 21.124C27.6338 22.5706 28.0461 23.9418 28.7105 25.1764C28.9461 25.6146 29.2123 26.0363 29.5092 26.4345C29.8909 26.9457 30.3197 27.4193 30.7885 27.8504C30.9157 27.9659 31.043 28.079 31.1725 28.1873C31.2385 28.2439 31.3068 28.2981 31.3752 28.3546L31.4411 28.4065C31.46 28.4206 31.4812 28.4371 31.5 28.4512C31.5306 28.4748 31.566 28.5007 31.606 28.529C31.7286 28.6208 31.8487 28.708 31.9736 28.7928C32.2657 28.9931 32.5626 29.1722 32.8641 29.3371C33.3236 29.5868 33.7901 29.8036 34.2683 29.9732C34.3696 30.0109 34.4733 30.0462 34.5793 30.0792C35.7479 30.4538 36.9518 30.5975 38.1369 30.5316C38.2146 30.5292 38.29 30.5245 38.3678 30.5174C39.3809 30.4397 40.3727 30.2135 41.3151 29.8483C42.2528 29.4855 43.1387 28.9931 43.935 28.3782C43.9704 28.3523 44.0033 28.3263 44.0363 28.2981C45.424 27.2025 46.5361 25.7418 47.191 23.9984C47.5468 23.056 47.7682 22.0287 47.8224 20.9332C47.8319 20.7518 47.8366 20.568 47.8366 20.3842V4.81337H47.8436H47.846Z" fill="url(#paint0_linear_12_137)"/>
<path d="M9.7091 4.82494C10.8942 4.76133 12.0981 4.90269 13.2667 5.27729C13.3727 5.31028 13.4764 5.34562 13.5777 5.38331C14.5012 5.7108 15.3965 6.18907 16.24 6.82519C16.28 6.85346 16.313 6.87938 16.346 6.90294C16.3672 6.91708 16.386 6.93357 16.4049 6.9477L16.4708 6.99954C16.5392 7.05608 16.6075 7.11027 16.6735 7.16681L16.6758 7.16917C16.8855 7.34587 17.1871 7.35058 17.3968 7.17624C17.4462 7.13618 17.4957 7.09613 17.5452 7.05608C17.5805 7.02781 17.6135 6.99954 17.6465 6.97598C19.2462 5.74378 21.1946 4.99222 23.2161 4.83672C23.2938 4.82965 23.3716 4.82729 23.447 4.82258C24.6321 4.75897 25.836 4.90033 27.0045 5.27494C27.1106 5.30792 27.2142 5.34326 27.3155 5.38096C28.1048 5.66132 28.8752 6.05478 29.6103 6.55896C29.7328 6.64378 29.8553 6.73095 29.9778 6.82284C30.0179 6.85111 30.0509 6.87702 30.0838 6.90058C30.1027 6.91472 30.1239 6.93121 30.1427 6.94535L30.2087 6.99718C30.277 7.05372 30.3454 7.10791 30.4113 7.16446C30.5409 7.27519 30.6681 7.38592 30.7954 7.50137C31.2642 7.93252 31.693 8.40607 32.0747 8.91733C32.0747 8.91968 32.0794 8.92204 32.0794 8.9244C31.9875 8.84194 31.8933 8.75948 31.799 8.67937C31.7307 8.62283 31.66 8.56628 31.5917 8.50738L31.5234 8.45319C31.5022 8.4367 31.4833 8.42021 31.4621 8.40607C31.4291 8.38251 31.3938 8.35424 31.3537 8.32597C31.2289 8.23173 31.104 8.1422 30.9768 8.05503C30.2229 7.53435 29.4312 7.13383 28.6208 6.84404C28.5147 6.80634 28.4087 6.76865 28.3004 6.73566C27.1011 6.34928 25.8642 6.20321 24.6485 6.26917C24.5708 6.27153 24.4907 6.27624 24.4106 6.28331C22.3373 6.44116 20.3347 7.21393 18.6926 8.47911C18.6572 8.50503 18.6242 8.5333 18.5865 8.56157C18.5347 8.60162 18.4852 8.64403 18.4334 8.68408C18.2166 8.86314 17.908 8.85607 17.6936 8.67702C17.6936 8.67702 17.6913 8.67702 17.6913 8.67466C17.6229 8.61812 17.5522 8.56157 17.4839 8.50267L17.4156 8.44848C17.3944 8.43199 17.3755 8.4155 17.3543 8.40136C17.3214 8.3778 17.286 8.34953 17.246 8.32126C16.3813 7.66629 15.4601 7.17624 14.5106 6.84168C14.4046 6.80399 14.2986 6.76629 14.1902 6.73095C12.991 6.34457 11.7541 6.19849 10.5384 6.26446C10.4607 6.26682 10.3806 6.27153 10.3005 6.2786C8.22717 6.43645 6.22457 7.20922 4.58243 8.4744C4.54709 8.50032 4.51411 8.52859 4.47877 8.55686C2.27826 10.2909 0.746854 12.9155 0.58429 16.122C0.57251 16.3081 0.567798 16.4966 0.567798 16.6875V30.5078C0.381673 30.5243 0.190837 30.5314 0 30.5314V14.9746C0 14.7909 0.00471201 14.6071 0.014136 14.4257C0.169632 11.304 1.66334 8.7477 3.80495 7.05844C3.83793 7.03016 3.87092 7.00189 3.90626 6.97833C5.50599 5.74614 7.4544 4.99457 9.47586 4.83908C9.55361 4.83201 9.63135 4.82965 9.70675 4.82494H9.7091ZM27.2731 13.693C28.1943 14.355 28.7975 15.4293 28.8187 16.6427C28.8187 16.6639 28.821 16.6827 28.821 16.7039V22.3631L28.8469 23.0228C28.9435 24.4317 29.3299 25.7722 29.9519 26.9903C29.7988 26.8112 29.6503 26.6298 29.5113 26.4413C29.2145 26.0408 28.9483 25.6214 28.7127 25.1832C28.0483 23.9487 27.636 22.5775 27.537 21.1309L27.5111 20.4877V14.9793C27.5111 14.9605 27.5087 14.9393 27.5087 14.9204C27.5017 14.4916 27.4192 14.0793 27.2731 13.6977V13.693ZM47.8411 6.52833C45.0304 7.33645 42.9736 9.92806 42.9736 12.9956V22.3065C42.95 24.328 41.2984 25.9654 39.2676 25.9654C37.6301 25.9654 36.2448 24.9029 35.7548 23.4351C36.3131 23.7885 36.9728 23.9934 37.6843 23.9934C39.661 23.9934 41.2702 22.3984 41.2914 20.4312V11.3652C41.2914 10.887 41.3432 10.4205 41.4398 9.97046C41.7037 9.83617 41.9958 9.70424 42.3257 9.56759C42.0759 9.46392 41.8474 9.36261 41.6353 9.26131C42.0382 8.07152 42.7733 7.03723 43.7298 6.26446C43.7534 6.31865 43.777 6.37284 43.8005 6.42938C43.8476 6.31394 43.8971 6.2032 43.9442 6.09954C45.0327 5.29143 46.3827 4.81316 47.8434 4.8108V6.52598L47.8411 6.52833ZM13.6743 14.1335C14.2256 14.706 14.5955 15.4529 14.6897 16.2822C14.7062 16.4212 14.7156 16.5602 14.7156 16.7039V25.2044L14.341 24.9712C13.99 24.7544 13.7779 24.3704 13.7779 23.9581V14.977C13.7779 14.838 13.7685 14.7013 13.752 14.567C13.7355 14.421 13.7096 14.2773 13.6766 14.1359L13.6743 14.1335Z" fill="url(#paint1_linear_12_137)"/>
<path d="M47.8411 6.56582C44.4272 6.8933 41.7602 9.76763 41.7602 13.264V22.5749C41.7367 24.5964 40.0851 26.2338 38.0542 26.2338C36.0257 26.2338 34.3836 24.6034 34.3506 22.589C34.3506 22.5702 34.3482 22.549 34.3482 22.5278V21.7597C34.8878 23.0673 36.1765 23.9909 37.682 23.9909C39.6587 23.9909 41.2678 22.3959 41.289 20.4286V11.3627C41.289 7.74618 44.2223 4.81294 47.8411 4.81059V6.56346V6.56582ZM20.2687 24.243C20.2523 24.3184 20.2287 24.3914 20.1981 24.4621V24.3113L20.2687 24.243ZM27.5111 16.1383C27.5677 16.388 27.6006 16.6448 27.6054 16.9111C27.6054 16.9299 27.6077 16.9511 27.6077 16.9723V21.8163C27.5771 21.5901 27.5512 21.3592 27.537 21.1283L27.5111 20.4851V16.1406V16.1383ZM23.4494 4.82708C24.6344 4.76347 25.8384 4.90483 27.0069 5.27943C27.113 5.31242 27.2166 5.34776 27.3179 5.38546C28.1072 5.66582 28.8776 6.05927 29.6127 6.56346C29.7352 6.64828 29.8577 6.73545 29.9802 6.82733C30.0203 6.85561 30.0532 6.88152 30.0862 6.90508C30.1051 6.91922 30.1263 6.93571 30.1451 6.94985L30.2111 7.00168C30.2794 7.05822 30.3477 7.11241 30.4137 7.16896C30.5433 7.27969 30.6705 7.39042 30.7977 7.50586C31.2666 7.93701 31.6954 8.41057 32.0771 8.92183C33.2079 10.4485 33.9147 12.2721 34.049 14.2323L34.0608 14.5079C33.731 13.1414 33.1255 11.8716 32.2962 10.7548C31.9051 10.2294 31.4621 9.74407 30.9815 9.30114C30.8519 9.18334 30.72 9.06554 30.5881 8.95481C30.5197 8.89827 30.4491 8.84172 30.3807 8.78282L30.3124 8.72863C30.2936 8.71214 30.2724 8.69565 30.2512 8.68151C30.2182 8.65795 30.1828 8.62968 30.1428 8.60141C30.0179 8.50717 29.893 8.41764 29.7658 8.33047C29.0119 7.80979 28.2203 7.40927 27.4098 7.11948C27.3038 7.08178 27.1978 7.04409 27.0894 7.00875C25.8902 6.62236 24.6533 6.47629 23.4376 6.54226C23.3598 6.54461 23.2797 6.54932 23.1996 6.55639C21.3148 6.70011 19.4913 7.35037 17.941 8.41764L16.8525 7.26555C17.034 7.33152 17.2436 7.30325 17.3991 7.17131C17.4486 7.13126 17.4981 7.09121 17.5476 7.05115C17.5829 7.02288 17.6159 6.99461 17.6489 6.97105C19.2486 5.73886 21.197 4.98729 23.2185 4.83179C23.2962 4.82472 23.374 4.82237 23.4494 4.81766V4.82708Z" fill="url(#paint2_linear_12_137)"/>
<path d="M23.8333 9.61737C25.8571 9.61737 27.5039 11.2477 27.5369 13.2621C27.5369 13.281 27.5393 13.3022 27.5393 13.321V18.9802L27.5652 19.6398C27.6665 21.1241 28.0906 22.5354 28.7715 23.8029C29.0141 24.2529 29.2874 24.6841 29.5914 25.0964C29.9825 25.6217 30.4254 26.1071 30.906 26.55C31.0356 26.6678 31.1675 26.7856 31.2995 26.8964C31.3678 26.9529 31.4385 27.0094 31.5068 27.0683L31.5751 27.1225C31.5963 27.139 31.6152 27.1555 31.6364 27.1696C31.6694 27.1932 31.7047 27.2215 31.7448 27.2498C31.8696 27.344 31.9945 27.4335 32.1217 27.5207C32.4209 27.728 32.7272 27.9094 33.0359 28.0791C33.5071 28.3359 33.9877 28.5573 34.4777 28.7317C34.5838 28.7694 34.6898 28.8071 34.7981 28.8401C35.9974 29.2264 37.2343 29.3725 38.45 29.3065C38.5277 29.3042 38.6078 29.2995 38.6879 29.2924C39.7269 29.2123 40.7471 28.9791 41.7154 28.6068C42.679 28.2346 43.5884 27.728 44.4059 27.0966C44.4413 27.0707 44.4743 27.0424 44.5096 27.0142C45.697 26.0788 46.6866 24.8796 47.3722 23.4731C47.3156 23.6545 47.2544 23.8312 47.1884 24.0079C46.5334 25.7513 45.4214 27.2144 44.0337 28.3076C44.0007 28.3359 43.9677 28.3641 43.9324 28.3877C43.1337 29.0026 42.2502 29.495 41.3125 29.8579C40.3701 30.2207 39.3782 30.4469 38.3651 30.527C38.2874 30.534 38.2096 30.5364 38.1343 30.5411C36.9492 30.6047 35.7453 30.4634 34.5767 30.0887C34.4707 30.0558 34.367 30.0204 34.2657 29.9827C33.7898 29.8131 33.3209 29.5987 32.8615 29.3466C32.5599 29.1817 32.2631 29.005 31.9709 28.8024C31.8484 28.7175 31.7259 28.6304 31.6034 28.5385C31.5634 28.5102 31.5304 28.4843 31.4974 28.4607C31.4762 28.4466 31.4573 28.4301 31.4385 28.416L31.3725 28.3641C31.3042 28.3076 31.2359 28.2534 31.1699 28.1969C31.0403 28.0861 30.9131 27.9754 30.7859 27.86C30.317 27.4288 29.8882 26.9553 29.5066 26.444C29.2097 26.0435 28.9435 25.6241 28.7079 25.1859C28.0435 23.9513 27.6312 22.5801 27.5322 21.1335L27.5063 20.4904V14.982C27.5063 14.9632 27.5039 14.942 27.5039 14.9231C27.4733 12.9629 25.8689 11.375 23.8969 11.375C22.0357 11.375 20.5019 12.7909 20.3111 14.6003C20.2993 14.7111 20.2899 14.8242 20.2899 14.9372V24.0102C20.2899 24.4131 20.0707 24.7877 19.7268 24.9974L17.6582 26.2673C17.2718 26.5029 16.7841 26.5005 16.4001 26.2626L14.3339 24.9762C13.9828 24.7594 13.7708 24.3754 13.7708 23.9631V23.4024C13.8415 23.4754 13.9192 23.539 14.0064 23.5932L16.1291 24.9149C16.525 25.16 17.0244 25.1623 17.4202 24.9197L19.5454 23.6144C19.8988 23.3977 20.1249 23.0136 20.1249 22.599V13.281C20.1249 13.1632 20.1344 13.0477 20.1461 12.9346C20.3417 11.0757 21.9179 9.62208 23.8309 9.62208L23.8333 9.61737ZM9.72552 9.61737C11.6268 9.61737 13.1959 11.0569 13.4056 12.9016C13.4221 13.0407 13.4315 13.1797 13.4315 13.3234V13.4482C12.8543 12.2208 11.608 11.3702 10.1661 11.3702C8.18941 11.3702 6.58025 12.9653 6.55905 14.9325V23.9985C6.55905 24.2246 6.54963 24.4485 6.52607 24.6676C6.21272 27.7586 3.74833 30.216 0.650184 30.5199C0.438144 30.5411 0.221391 30.5505 0.00463867 30.5505V29.2806C3.16169 28.9461 5.66848 26.4346 5.9889 23.2752C6.01246 23.049 6.02188 22.8205 6.02188 22.5896V13.2786C6.04544 11.2572 7.697 9.61973 9.72788 9.61973L9.72552 9.61737ZM41.713 9.04015C41.6965 9.23098 41.6895 9.42182 41.6895 9.61501V18.926C41.6824 19.515 41.5363 20.0733 41.2842 20.5658C41.2842 20.521 41.2866 20.4762 41.2889 20.4315V11.3655C41.2889 10.5456 41.4397 9.76109 41.7154 9.03779L41.713 9.04015Z" fill="url(#paint3_radial_12_137)"/>
<path d="M23.9158 9.31064C26.0244 9.31064 27.7419 11.0093 27.7749 13.1085C27.7749 13.1297 27.7772 13.1509 27.7772 13.1721V19.0669L27.8055 19.7548C27.9115 21.3027 28.3521 22.7705 29.0636 24.0922C29.3157 24.5611 29.6008 25.0111 29.9189 25.4399C30.3264 25.9888 30.7882 26.493 31.2901 26.9548C31.4243 27.0797 31.561 27.1998 31.7 27.3153C31.7707 27.3742 31.8437 27.4331 31.9168 27.4943L31.9874 27.5509C32.0086 27.5674 32.0298 27.5839 32.051 27.598C32.084 27.6239 32.1217 27.6522 32.1641 27.6804C32.2937 27.7794 32.4256 27.8713 32.5576 27.9632C32.8686 28.1776 33.189 28.3684 33.5118 28.5451C34.0018 28.8137 34.5036 29.0422 35.0125 29.226C35.1209 29.266 35.2317 29.3037 35.3447 29.3391C36.5934 29.742 37.8845 29.8927 39.152 29.8244C39.2345 29.8221 39.317 29.8173 39.3994 29.8103C40.4832 29.7278 41.5458 29.4852 42.5541 29.0941C42.9193 28.9527 43.2774 28.7925 43.6261 28.6158C42.9122 29.1223 42.1371 29.5393 41.3196 29.8527C40.3772 30.2155 39.3853 30.4417 38.3722 30.5218C38.2945 30.5289 38.2167 30.5312 38.1413 30.5359C36.9563 30.5995 35.7523 30.4582 34.5838 30.0836C34.4777 30.0506 34.3741 30.0153 34.2728 29.9776C33.7968 29.8079 33.328 29.5935 32.8686 29.3414C32.567 29.1765 32.2702 28.9998 31.978 28.7972C31.8555 28.7124 31.733 28.6252 31.6105 28.5333C31.5704 28.5051 31.5374 28.4791 31.5045 28.4556C31.4832 28.4414 31.4644 28.4249 31.4456 28.4108L31.3796 28.359C31.3113 28.3024 31.2429 28.2482 31.177 28.1917C31.0474 28.081 30.9202 27.9702 30.7929 27.8548C30.3241 27.4236 29.8953 26.9501 29.5136 26.4388C29.2168 26.0383 28.9505 25.6189 28.7149 25.1807C28.0505 23.9462 27.6382 22.575 27.5393 21.1284L27.5134 20.4852V14.9768C27.5134 14.958 27.511 14.9368 27.511 14.9179C27.4804 12.9577 25.8759 11.3698 23.904 11.3698C22.0427 11.3698 20.509 12.7858 20.3181 14.5952C20.3063 14.7059 20.2969 14.819 20.2969 14.9321V24.0051C20.2969 24.4079 20.0778 24.7826 19.7338 24.9922L17.6653 26.2621C17.2789 26.4977 16.7912 26.4954 16.4072 26.2574L14.3409 24.971C13.9899 24.7543 13.7779 24.3703 13.7779 23.958V23.9273L15.8935 25.2467C16.3058 25.5011 16.8265 25.5035 17.2388 25.2514L19.4535 23.892C19.821 23.6658 20.0566 23.2676 20.0566 22.8341V13.125C20.0566 13.0025 20.066 12.8823 20.0802 12.7645C20.2851 10.8279 21.9273 9.31299 23.9181 9.31299L23.9158 9.31064ZM9.21427 9.31299C11.1957 9.31299 12.8307 10.8114 13.0498 12.7339C13.0522 12.7645 13.0569 12.7952 13.0593 12.8258C12.4019 11.9423 11.3488 11.3698 10.1661 11.3698C8.18941 11.3698 6.58025 12.9648 6.55905 14.9321V23.998C6.55905 24.2242 6.54963 24.448 6.52607 24.6671C6.21272 27.7582 3.74833 30.2155 0.650185 30.5194C0.438144 30.5406 0.221391 30.5501 0.00463867 30.5501V29.6406C2.85305 28.948 5.01822 26.5213 5.32215 23.5433C5.34571 23.3077 5.35749 23.0697 5.35749 22.8271V13.125C5.38105 11.0187 7.10329 9.31064 9.21898 9.31064L9.21427 9.31299ZM42.884 7.08185C42.6507 7.78159 42.5235 8.5308 42.5235 9.30828V19.0103C42.5094 20.3203 41.8379 21.4747 40.8248 22.1603C41.1146 21.6491 41.2842 21.0577 41.2913 20.4286V11.3627C41.2913 9.72529 41.8921 8.22923 42.8863 7.07949L42.884 7.08185Z" fill="url(#paint4_radial_12_137)"/>
<path d="M47.846 4.81345C44.2248 4.81345 41.2892 7.74668 41.2892 11.3655V20.4267C41.2657 22.3987 39.6565 23.9937 37.6822 23.9937C35.7078 23.9937 34.1081 22.4058 34.0751 20.4456C34.0751 20.4267 34.0728 20.4055 34.0728 20.3867V14.8783L34.0469 14.2375C33.9126 12.2773 33.2058 10.4537 32.0749 8.92704C31.6932 8.41579 31.2644 7.94223 30.7956 7.51108C30.6683 7.39564 30.5411 7.28255 30.4115 7.17417C30.3456 7.11763 30.2773 7.06344 30.2089 7.0069L30.143 6.95506C30.1241 6.94093 30.1029 6.92443 30.0841 6.9103C30.0534 6.88674 30.0181 6.86082 29.978 6.83255C29.8555 6.74067 29.7354 6.65349 29.6105 6.56868C28.8754 6.06213 28.105 5.67104 27.3158 5.39067C27.2144 5.35298 27.1108 5.31764 27.0048 5.28465C25.8362 4.91005 24.6323 4.76633 23.4472 4.8323C23.3694 4.83465 23.294 4.83937 23.2163 4.84643C21.1972 5.00193 19.2488 5.7535 17.6467 6.98569C17.6114 7.01161 17.5784 7.03752 17.5454 7.0658C17.4959 7.10585 17.4464 7.1459 17.397 7.18595C17.1873 7.3603 16.8857 7.35323 16.676 7.17888C16.676 7.17888 16.6737 7.17888 16.6737 7.17653C16.6077 7.11998 16.5394 7.0658 16.4711 7.00925L16.4051 6.95742C16.3862 6.94328 16.365 6.92679 16.3462 6.91265C16.3156 6.88909 16.2802 6.86318 16.2402 6.83491C15.3967 6.19878 14.4991 5.72051 13.5779 5.39303C13.4766 5.35533 13.3729 5.31999 13.2669 5.28701C12.0983 4.9124 10.8944 4.76869 9.70931 4.83465C9.63156 4.83701 9.55617 4.84172 9.47842 4.84879C7.45933 5.00429 5.51091 5.75585 3.90882 6.98805C3.87348 7.01396 3.8405 7.03988 3.80751 7.06815C1.6659 8.74799 0.174552 11.3043 0.0166995 14.426C0.00727549 14.6074 0.00256348 14.7912 0.00256348 14.9749V30.5481C0.219316 30.5481 0.436069 30.5387 0.648109 30.5175C3.74626 30.2136 6.21064 27.7586 6.52399 24.6652C6.54755 24.4461 6.55697 24.2223 6.55697 23.9961V14.9349C6.58053 12.9629 8.18969 11.3679 10.164 11.3679C12.0158 11.3679 13.5425 12.7697 13.7475 14.565C13.7616 14.6993 13.7734 14.8359 13.7734 14.9749V23.956C13.7734 24.3683 13.9878 24.7524 14.3365 24.9691L16.4027 26.2555C16.7868 26.4935 17.2744 26.4958 17.6608 26.2602L19.7294 24.9903C20.0734 24.7783 20.2925 24.406 20.2925 24.0032V14.9325C20.2925 14.8147 20.3019 14.7016 20.3137 14.5909C20.5045 12.7815 22.0383 11.3655 23.8995 11.3655C25.8715 11.3655 27.4736 12.9535 27.5066 14.9137C27.5066 14.9325 27.5089 14.9537 27.5089 14.9726V20.4809L27.5349 21.1241C27.6338 22.5707 28.0461 23.9419 28.7105 25.1764C28.9461 25.6147 29.2123 26.0364 29.5092 26.4346C29.8909 26.9458 30.3197 27.4194 30.7885 27.8505C30.9157 27.966 31.043 28.079 31.1725 28.1874C31.2385 28.244 31.3068 28.2982 31.3752 28.3547L31.4411 28.4065C31.46 28.4207 31.4812 28.4372 31.5 28.4513C31.5306 28.4749 31.566 28.5008 31.606 28.529C31.7286 28.6209 31.8487 28.7081 31.9736 28.7929C32.2657 28.9932 32.5626 29.1722 32.8641 29.3372C33.3236 29.5869 33.7901 29.8036 34.2683 29.9733C34.3696 30.011 34.4733 30.0463 34.5793 30.0793C35.7479 30.4539 36.9518 30.5976 38.1369 30.5317C38.2146 30.5293 38.29 30.5246 38.3678 30.5175C39.3809 30.4398 40.3727 30.2136 41.3151 29.8484C42.2528 29.4856 43.1387 28.9932 43.935 28.3783C43.9704 28.3523 44.0033 28.3264 44.0363 28.2982C45.424 27.2026 46.5361 25.7419 47.191 23.9984C47.5468 23.056 47.7682 22.0288 47.8224 20.9333C47.8319 20.7519 47.8366 20.5681 47.8366 20.3843V4.81345H47.8436H47.846Z" fill="url(#paint5_radial_12_137)"/>
<path d="M47.846 4.81345C44.2248 4.81345 41.2892 7.74668 41.2892 11.3655V20.4267C41.2657 22.3987 39.6565 23.9937 37.6822 23.9937C35.7078 23.9937 34.1081 22.4058 34.0751 20.4456C34.0751 20.4267 34.0728 20.4055 34.0728 20.3867V14.8783L34.0469 14.2375C33.9126 12.2773 33.2058 10.4537 32.0749 8.92704C31.6932 8.41579 31.2644 7.94223 30.7956 7.51108C30.6683 7.39564 30.5411 7.28255 30.4115 7.17417C30.3456 7.11763 30.2773 7.06344 30.2089 7.0069L30.143 6.95506C30.1241 6.94093 30.1029 6.92443 30.0841 6.9103C30.0534 6.88674 30.0181 6.86082 29.978 6.83255C29.8555 6.74067 29.7354 6.65349 29.6105 6.56868C28.8754 6.06213 28.105 5.67104 27.3158 5.39067C27.2144 5.35298 27.1108 5.31764 27.0048 5.28465C25.8362 4.91005 24.6323 4.76633 23.4472 4.8323C23.3694 4.83465 23.294 4.83937 23.2163 4.84643C21.1972 5.00193 19.2488 5.7535 17.6467 6.98569C17.6114 7.01161 17.5784 7.03752 17.5454 7.0658C17.4959 7.10585 17.4464 7.1459 17.397 7.18595C17.1873 7.3603 16.8857 7.35323 16.676 7.17888C16.676 7.17888 16.6737 7.17888 16.6737 7.17653C16.6077 7.11998 16.5394 7.0658 16.4711 7.00925L16.4051 6.95742C16.3862 6.94328 16.365 6.92679 16.3462 6.91265C16.3156 6.88909 16.2802 6.86318 16.2402 6.83491C15.3967 6.19878 14.4991 5.72051 13.5779 5.39303C13.4766 5.35533 13.3729 5.31999 13.2669 5.28701C12.0983 4.9124 10.8944 4.76869 9.70931 4.83465C9.63156 4.83701 9.55617 4.84172 9.47842 4.84879C7.45933 5.00429 5.51091 5.75585 3.90882 6.98805C3.87348 7.01396 3.8405 7.03988 3.80751 7.06815C1.6659 8.74799 0.174552 11.3043 0.0166995 14.426C0.00727549 14.6074 0.00256348 14.7912 0.00256348 14.9749V30.5481C0.219316 30.5481 0.436069 30.5387 0.648109 30.5175C3.74626 30.2136 6.21064 27.7586 6.52399 24.6652C6.54755 24.4461 6.55697 24.2223 6.55697 23.9961V14.9349C6.58053 12.9629 8.18969 11.3679 10.164 11.3679C12.0158 11.3679 13.5425 12.7697 13.7475 14.565C13.7616 14.6993 13.7734 14.8359 13.7734 14.9749V23.956C13.7734 24.3683 13.9878 24.7524 14.3365 24.9691L16.4027 26.2555C16.7868 26.4935 17.2744 26.4958 17.6608 26.2602L19.7294 24.9903C20.0734 24.7783 20.2925 24.406 20.2925 24.0032V14.9325C20.2925 14.8147 20.3019 14.7016 20.3137 14.5909C20.5045 12.7815 22.0383 11.3655 23.8995 11.3655C25.8715 11.3655 27.4736 12.9535 27.5066 14.9137C27.5066 14.9325 27.5089 14.9537 27.5089 14.9726V20.4809L27.5349 21.1241C27.6338 22.5707 28.0461 23.9419 28.7105 25.1764C28.9461 25.6147 29.2123 26.0364 29.5092 26.4346C29.8909 26.9458 30.3197 27.4194 30.7885 27.8505C30.9157 27.966 31.043 28.079 31.1725 28.1874C31.2385 28.244 31.3068 28.2982 31.3752 28.3547L31.4411 28.4065C31.46 28.4207 31.4812 28.4372 31.5 28.4513C31.5306 28.4749 31.566 28.5008 31.606 28.529C31.7286 28.6209 31.8487 28.7081 31.9736 28.7929C32.2657 28.9932 32.5626 29.1722 32.8641 29.3372C33.3236 29.5869 33.7901 29.8036 34.2683 29.9733C34.3696 30.011 34.4733 30.0463 34.5793 30.0793C35.7479 30.4539 36.9518 30.5976 38.1369 30.5317C38.2146 30.5293 38.29 30.5246 38.3678 30.5175C39.3809 30.4398 40.3727 30.2136 41.3151 29.8484C42.2528 29.4856 43.1387 28.9932 43.935 28.3783C43.9704 28.3523 44.0033 28.3264 44.0363 28.2982C45.424 27.2026 46.5361 25.7419 47.191 23.9984C47.5468 23.056 47.7682 22.0288 47.8224 20.9333C47.8319 20.7519 47.8366 20.5681 47.8366 20.3843V4.81345H47.8436H47.846Z" fill="url(#paint6_radial_12_137)"/>
<path d="M47.846 4.81345C44.2248 4.81345 41.2892 7.74668 41.2892 11.3655V20.4267C41.2657 22.3987 39.6565 23.9937 37.6822 23.9937C35.7078 23.9937 34.1081 22.4058 34.0751 20.4456C34.0751 20.4267 34.0728 20.4055 34.0728 20.3867V14.8783L34.0469 14.2375C33.9126 12.2773 33.2058 10.4537 32.0749 8.92704C31.6932 8.41579 31.2644 7.94223 30.7956 7.51108C30.6683 7.39564 30.5411 7.28255 30.4115 7.17417C30.3456 7.11763 30.2773 7.06344 30.2089 7.0069L30.143 6.95506C30.1241 6.94093 30.1029 6.92443 30.0841 6.9103C30.0534 6.88674 30.0181 6.86082 29.978 6.83255C29.8555 6.74067 29.7354 6.65349 29.6105 6.56868C28.8754 6.06213 28.105 5.67104 27.3158 5.39067C27.2144 5.35298 27.1108 5.31764 27.0048 5.28465C25.8362 4.91005 24.6323 4.76633 23.4472 4.8323C23.3694 4.83465 23.294 4.83937 23.2163 4.84643C21.1972 5.00193 19.2488 5.7535 17.6467 6.98569C17.6114 7.01161 17.5784 7.03752 17.5454 7.0658C17.4959 7.10585 17.4464 7.1459 17.397 7.18595C17.1873 7.3603 16.8857 7.35323 16.676 7.17888C16.676 7.17888 16.6737 7.17888 16.6737 7.17653C16.6077 7.11998 16.5394 7.0658 16.4711 7.00925L16.4051 6.95742C16.3862 6.94328 16.365 6.92679 16.3462 6.91265C16.3156 6.88909 16.2802 6.86318 16.2402 6.83491C15.3967 6.19878 14.4991 5.72051 13.5779 5.39303C13.4766 5.35533 13.3729 5.31999 13.2669 5.28701C12.0983 4.9124 10.8944 4.76869 9.70931 4.83465C9.63156 4.83701 9.55617 4.84172 9.47842 4.84879C7.45933 5.00429 5.51091 5.75585 3.90882 6.98805C3.87348 7.01396 3.8405 7.03988 3.80751 7.06815C1.6659 8.74799 0.174552 11.3043 0.0166995 14.426C0.00727549 14.6074 0.00256348 14.7912 0.00256348 14.9749V30.5481C0.219316 30.5481 0.436069 30.5387 0.648109 30.5175C3.74626 30.2136 6.21064 27.7586 6.52399 24.6652C6.54755 24.4461 6.55697 24.2223 6.55697 23.9961V14.9349C6.58053 12.9629 8.18969 11.3679 10.164 11.3679C12.0158 11.3679 13.5425 12.7697 13.7475 14.565C13.7616 14.6993 13.7734 14.8359 13.7734 14.9749V23.956C13.7734 24.3683 13.9878 24.7524 14.3365 24.9691L16.4027 26.2555C16.7868 26.4935 17.2744 26.4958 17.6608 26.2602L19.7294 24.9903C20.0734 24.7783 20.2925 24.406 20.2925 24.0032V14.9325C20.2925 14.8147 20.3019 14.7016 20.3137 14.5909C20.5045 12.7815 22.0383 11.3655 23.8995 11.3655C25.8715 11.3655 27.4736 12.9535 27.5066 14.9137C27.5066 14.9325 27.5089 14.9537 27.5089 14.9726V20.4809L27.5349 21.1241C27.6338 22.5707 28.0461 23.9419 28.7105 25.1764C28.9461 25.6147 29.2123 26.0364 29.5092 26.4346C29.8909 26.9458 30.3197 27.4194 30.7885 27.8505C30.9157 27.966 31.043 28.079 31.1725 28.1874C31.2385 28.244 31.3068 28.2982 31.3752 28.3547L31.4411 28.4065C31.46 28.4207 31.4812 28.4372 31.5 28.4513C31.5306 28.4749 31.566 28.5008 31.606 28.529C31.7286 28.6209 31.8487 28.7081 31.9736 28.7929C32.2657 28.9932 32.5626 29.1722 32.8641 29.3372C33.3236 29.5869 33.7901 29.8036 34.2683 29.9733C34.3696 30.011 34.4733 30.0463 34.5793 30.0793C35.7479 30.4539 36.9518 30.5976 38.1369 30.5317C38.2146 30.5293 38.29 30.5246 38.3678 30.5175C39.3809 30.4398 40.3727 30.2136 41.3151 29.8484C42.2528 29.4856 43.1387 28.9932 43.935 28.3783C43.9704 28.3523 44.0033 28.3264 44.0363 28.2982C45.424 27.2026 46.5361 25.7419 47.191 23.9984C47.5468 23.056 47.7682 22.0288 47.8224 20.9333C47.8319 20.7519 47.8366 20.5681 47.8366 20.3843V4.81345H47.8436H47.846Z" fill="url(#paint7_radial_12_137)"/>
<g opacity="0.77">
<path d="M10.2584 4.81068V5.28895C11.2361 5.28895 12.1997 5.43974 13.1233 5.73659C13.2128 5.76486 13.3071 5.79785 13.4131 5.83554C13.4131 5.83554 13.4154 5.83554 13.4178 5.83554C14.3154 6.15361 15.1683 6.61538 15.9529 7.2091C15.9529 7.2091 15.9576 7.21145 15.9576 7.21381C15.9929 7.23973 16.0259 7.26329 16.0565 7.28685C16.0659 7.29392 16.073 7.29863 16.0824 7.3057C16.0871 7.30805 16.0895 7.31276 16.0942 7.31512L16.1083 7.3269L16.172 7.37638C16.1955 7.39522 16.2167 7.41407 16.2403 7.43292C16.2756 7.46119 16.3133 7.49182 16.3487 7.52009C16.3604 7.53187 16.3746 7.54365 16.3887 7.55308C16.5748 7.70386 16.8081 7.78632 17.046 7.78632C17.284 7.78632 17.5196 7.7015 17.7034 7.55072L17.7081 7.54601C17.7528 7.50831 17.8 7.47062 17.8447 7.43528C17.8471 7.43292 17.8518 7.43056 17.8541 7.42821C17.8824 7.40465 17.9107 7.38109 17.9366 7.36224C17.939 7.36224 17.9413 7.35753 17.9437 7.35753C19.4869 6.1701 21.3222 5.46565 23.2565 5.31722C23.3295 5.31251 23.4002 5.3078 23.4709 5.30544C23.4732 5.30544 23.4756 5.30544 23.4779 5.30544C23.6523 5.29602 23.829 5.29131 24.001 5.29131C24.9787 5.29131 25.9423 5.44209 26.8659 5.73895C26.9554 5.76722 27.0496 5.8002 27.1557 5.8379C27.1557 5.8379 27.158 5.8379 27.1604 5.8379C27.9214 6.10884 28.6564 6.4858 29.342 6.95936C29.4716 7.04889 29.5871 7.13371 29.6931 7.21381C29.6931 7.21381 29.6954 7.21617 29.6978 7.21852C29.7331 7.24444 29.7661 7.268 29.7944 7.29156C29.8015 7.29627 29.8038 7.29863 29.8109 7.30334C29.8156 7.30805 29.8203 7.31041 29.825 7.31512C29.8321 7.31983 29.8392 7.3269 29.8462 7.33161L29.9075 7.38109L29.9711 7.43292C30.0159 7.46826 30.0583 7.5036 30.1007 7.53894C30.2232 7.6426 30.3481 7.75334 30.4706 7.86407C30.9229 8.27873 31.3329 8.73344 31.691 9.21171C32.7936 10.6983 33.4438 12.4442 33.5711 14.263L33.597 14.8873V20.3863C33.597 20.4145 33.597 20.4357 33.5993 20.4522C33.6182 21.5313 34.0493 22.5397 34.815 23.2959C35.5831 24.0546 36.6033 24.4716 37.6823 24.4716C38.7614 24.4716 39.7839 24.0522 40.5543 23.2889C41.3247 22.5279 41.7558 21.5148 41.7676 20.4334C41.7676 20.4334 41.7676 20.4263 41.7676 20.424V11.3627C41.7676 8.17742 44.2367 5.55518 47.3631 5.3078V20.3863C47.3631 20.5724 47.3584 20.742 47.349 20.9093C47.349 20.9093 47.349 20.9117 47.349 20.914C47.2995 21.9224 47.0969 22.9048 46.7482 23.8331C46.1451 25.4375 45.1061 26.8512 43.7443 27.9255C43.7396 27.9302 43.7325 27.9349 43.7278 27.9396C43.6995 27.9632 43.6783 27.982 43.6548 27.9985C43.6524 27.9985 43.6501 28.0032 43.6477 28.0032C42.8914 28.5852 42.0503 29.0587 41.1456 29.4051C40.2409 29.7538 39.2938 29.9682 38.3326 30.0435C38.2595 30.0483 38.1888 30.053 38.1205 30.0553C38.1182 30.0553 38.1158 30.0553 38.1135 30.0553C37.9391 30.0648 37.7624 30.0695 37.5904 30.0695C36.6127 30.0695 35.6491 29.9187 34.7279 29.6242C34.6383 29.5959 34.5441 29.5629 34.4381 29.5252C34.4381 29.5252 34.4357 29.5252 34.4334 29.5252C33.9952 29.3697 33.5475 29.1671 33.0999 28.9197C32.7795 28.7454 32.5014 28.5758 32.2517 28.4038C32.1221 28.3119 32.0067 28.2294 31.9007 28.1493C31.9007 28.1493 31.8983 28.147 31.896 28.1446C31.8606 28.1187 31.8276 28.0951 31.797 28.0716C31.7876 28.0645 31.7805 28.0598 31.7711 28.0527C31.7664 28.0504 31.764 28.0457 31.7593 28.0433L31.7452 28.0315L31.6816 27.982C31.6604 27.9632 31.6368 27.9443 31.6156 27.9279C31.5732 27.8925 31.5284 27.8572 31.4884 27.8242C31.3658 27.7205 31.241 27.6098 31.1185 27.4991C30.6661 27.0844 30.2562 26.6297 29.8981 26.1491C29.62 25.7745 29.3632 25.3716 29.1371 24.9499C28.4892 23.7436 28.1122 22.4478 28.018 21.0978L27.992 20.4711V14.9722C27.992 14.9439 27.992 14.9203 27.9897 14.9062C27.9708 13.8295 27.5397 12.8211 26.7716 12.0625C26.0012 11.3038 24.9834 10.8868 23.9044 10.8868C22.8889 10.8868 21.9159 11.2638 21.1643 11.9447C20.4175 12.6209 19.9486 13.5444 19.8426 14.5386C19.8261 14.6918 19.8191 14.8119 19.8191 14.9321V24.0027C19.8191 24.2336 19.6895 24.4551 19.4845 24.5823L17.4159 25.8522C17.3028 25.9205 17.1733 25.9582 17.039 25.9582C16.9047 25.9582 16.7727 25.9205 16.6597 25.8499L14.5934 24.5635C14.3814 24.4315 14.2565 24.2054 14.2565 23.9556V14.9745C14.2565 14.8331 14.2471 14.6871 14.2283 14.5104C13.9927 12.4465 12.2492 10.8892 10.1689 10.8892C9.08745 10.8892 8.0673 11.3086 7.29688 12.0719C6.52647 12.8329 6.09532 13.846 6.08354 14.9274C6.08354 14.9274 6.08354 14.9345 6.08354 14.9368V23.998C6.08354 24.2124 6.07412 24.4198 6.05291 24.6177C5.76312 27.4802 3.47073 29.7608 0.605823 30.0412C0.565771 30.0459 0.525719 30.0483 0.485667 30.053V14.9769C0.485667 14.7907 0.490379 14.6211 0.499803 14.4538C0.499803 14.4538 0.499803 14.4515 0.499803 14.4491C0.638807 11.6502 1.92283 9.15752 4.10921 7.43292C4.11392 7.42821 4.12099 7.4235 4.1257 7.41878C4.15161 7.39522 4.17517 7.37638 4.19873 7.35988C4.20109 7.35988 4.20345 7.35517 4.2058 7.35517C5.74899 6.16774 7.58432 5.4633 9.5186 5.31487C9.59163 5.31015 9.66231 5.30544 9.73299 5.30309C9.73535 5.30309 9.73771 5.30309 9.74006 5.30309C9.91441 5.29366 10.0911 5.28895 10.2631 5.28895V4.81068M10.2584 4.81068C10.0746 4.81068 9.89085 4.81539 9.70943 4.82482C9.63169 4.82717 9.55629 4.83188 9.47855 4.83895C7.45945 4.99445 5.51103 5.74602 3.90895 6.97821C3.8736 7.00413 3.84062 7.03004 3.80764 7.05831C1.66603 8.74757 0.174674 11.3038 0.0168216 14.4256C0.00739756 14.607 0.00268555 14.7907 0.00268555 14.9745V30.5477C0.219438 30.5477 0.436191 30.5383 0.648231 30.5171C3.74638 30.2132 6.21076 27.7582 6.52411 24.6648C6.54767 24.4457 6.5571 24.2218 6.5571 23.9957V14.9345C6.58066 12.9625 8.18981 11.3675 10.1641 11.3675C12.016 11.3675 13.5427 12.7693 13.7476 14.5646C13.7618 14.6989 13.7735 14.8355 13.7735 14.9745V23.9556C13.7735 24.3679 13.9879 24.752 14.3366 24.9687L16.4029 26.2551C16.596 26.3752 16.8152 26.4341 17.0343 26.4341C17.2534 26.4341 17.4678 26.3752 17.6586 26.2574L19.7272 24.9876C20.0712 24.7755 20.2903 24.4033 20.2903 24.0004V14.9297C20.2903 14.8119 20.2997 14.6989 20.3115 14.5881C20.5023 12.7787 22.0361 11.3627 23.8973 11.3627C25.8693 11.3627 27.4714 12.9507 27.5044 14.9109C27.5044 14.9297 27.5067 14.9509 27.5067 14.9698V20.4781L27.5326 21.1213C27.6316 22.5679 28.0439 23.9391 28.7083 25.1737C28.9439 25.6119 29.2101 26.0336 29.507 26.4318C29.8886 26.943 30.3174 27.4166 30.7863 27.8477C30.9135 27.9632 31.0407 28.0763 31.1703 28.1847C31.2363 28.2412 31.3046 28.2954 31.3729 28.3519L31.4389 28.4038C31.4577 28.4179 31.4789 28.4344 31.4978 28.4485C31.5284 28.4721 31.5638 28.498 31.6038 28.5263C31.7263 28.6182 31.8465 28.7053 31.9713 28.7902C32.2635 28.9904 32.5603 29.1695 32.8619 29.3344C33.3213 29.5841 33.7878 29.8009 34.2661 29.9705C34.3674 30.0082 34.4711 30.0435 34.5771 30.0765C35.5643 30.3946 36.5797 30.5454 37.5834 30.5454C37.7671 30.5454 37.9509 30.5407 38.1323 30.5312C38.21 30.5289 38.2854 30.5242 38.3632 30.5171C39.3763 30.4394 40.3682 30.2132 41.3106 29.848C42.2482 29.4852 43.1341 28.9928 43.9304 28.3778C43.9658 28.3519 43.9988 28.326 44.0317 28.2977C45.4194 27.2022 46.5315 25.7415 47.1864 23.998C47.5422 23.0556 47.7637 22.0284 47.8178 20.9329C47.8273 20.7514 47.832 20.5677 47.832 20.3839V4.81304C44.2132 4.81539 41.2799 7.74863 41.2799 11.3651V20.4263C41.2564 22.3983 39.6472 23.9933 37.6729 23.9933C35.6985 23.9933 34.0988 22.4054 34.0658 20.4452C34.0658 20.4263 34.0635 20.4051 34.0635 20.3863V14.8779L34.0376 14.2371C33.9033 12.2769 33.1965 10.4533 32.0656 8.92663C31.6839 8.41538 31.2551 7.94182 30.7863 7.51067C30.659 7.39522 30.5318 7.28214 30.4022 7.17376C30.3363 7.11721 30.268 7.06303 30.1996 7.00648L30.1337 6.95465C30.1148 6.94051 30.0936 6.92402 30.0748 6.90989C30.0441 6.88633 30.0088 6.86041 29.9687 6.83214C29.8462 6.74025 29.7261 6.65308 29.6012 6.56826C28.8661 6.06172 28.0957 5.67062 27.3064 5.39026C27.2051 5.35256 27.1015 5.31722 26.9955 5.28424C26.0083 4.96618 24.9929 4.81539 23.9892 4.81539C23.8054 4.81539 23.6217 4.8201 23.4402 4.82953C23.3625 4.83188 23.2871 4.8366 23.2094 4.84366C21.1903 4.99916 19.2418 5.75073 17.6398 6.98292C17.6044 7.00884 17.5714 7.03475 17.5384 7.06303C17.489 7.10308 17.4395 7.14313 17.39 7.18318C17.2864 7.268 17.1615 7.31041 17.0366 7.31041C16.9117 7.31041 16.7751 7.26564 16.6691 7.17611C16.6691 7.17611 16.6667 7.17611 16.6667 7.17376C16.6008 7.11721 16.5324 7.06303 16.4641 7.00648L16.3981 6.95465C16.3793 6.94051 16.3581 6.92402 16.3392 6.90989C16.3086 6.88633 16.2733 6.86041 16.2332 6.83214C15.3898 6.19601 14.4921 5.71774 13.5709 5.39026C13.4696 5.35256 13.366 5.31722 13.2599 5.28424C12.2728 4.96618 11.2573 4.81539 10.2537 4.81539L10.2584 4.81068Z" fill="url(#paint8_linear_12_137)"/>
</g>
<path d="M0.89305 15.7133H0.890694C0.675998 15.7133 0.501953 15.8874 0.501953 16.102V28.3062C0.501953 28.5209 0.675998 28.6949 0.890694 28.6949H0.89305C1.10775 28.6949 1.28179 28.5209 1.28179 28.3062V16.102C1.28179 15.8874 1.10775 15.7133 0.89305 15.7133Z" fill="url(#paint9_radial_12_137)"/>
<path d="M15.0315 14.3039H14.2517V24.2298H15.0315V14.3039Z" fill="url(#paint10_radial_12_137)"/>
<path d="M42.5496 13.4945H41.7698V21.9384H42.5496V13.4945Z" fill="url(#paint11_radial_12_137)"/>
<path d="M28.7645 14.2872H27.9846V22.6369H28.7645V14.2872Z" fill="url(#paint12_radial_12_137)"/>
<path d="M19.8095 14.3086H19.0297V24.2344H19.8095V14.3086Z" fill="url(#paint13_radial_12_137)"/>
<path d="M47.3628 11.3331H46.583V21.259H47.3628V11.3331Z" fill="url(#paint14_radial_12_137)"/>
<path d="M33.5966 14.9215H32.8168V21.3298H33.5966V14.9215Z" fill="url(#paint15_radial_12_137)"/>
<path d="M6.07623 14.3021H5.29639V24.2279H6.07623V14.3021Z" fill="url(#paint16_radial_12_137)"/>
<path d="M37.2461 11.439C38.0542 9.4906 38.7092 8.83563 40.6576 8.02988C38.7068 7.22177 38.0518 6.56915 37.2461 4.62073C36.438 6.56915 35.783 7.22412 33.8346 8.02988C35.7854 8.83799 36.4403 9.4906 37.2461 11.439Z" fill="url(#paint17_linear_12_137)"/>
<path d="M36.3154 6.35252C36.4827 6.92503 36.8102 7.49519 37.2979 7.98052C37.7856 8.46586 38.3487 8.79335 38.9188 8.96062C39.3641 8.619 39.9178 8.33393 40.6575 8.03C38.7068 7.22189 38.0518 6.56927 37.2461 4.62085C36.9398 5.35828 36.657 5.90959 36.3178 6.35488L36.3154 6.35252Z" fill="url(#paint18_radial_12_137)"/>
<path opacity="0.3" d="M37.246 4.62271C37.1188 5.35543 37.4698 6.30019 38.2214 7.05175C38.973 7.80332 39.9177 8.15201 40.6528 8.02714C38.7091 7.22139 38.0541 6.56642 37.2484 4.62271H37.246Z" fill="url(#paint19_radial_12_137)"/>
<path opacity="0.8" d="M37.2461 4.6203C36.438 6.56872 35.783 7.22369 33.8346 8.02945C34.5673 8.15667 35.5168 7.80563 36.2683 7.05171C37.0199 6.29778 37.3733 5.35302 37.2461 4.61795V4.6203Z" fill="url(#paint20_radial_12_137)"/>
<path d="M40.6482 8.03195C39.8825 7.84818 38.8977 8.16624 38.139 8.92723C37.3804 9.68586 37.06 10.6683 37.2438 11.4364C37.2438 11.4364 37.2438 11.4364 37.2438 11.4387C38.0519 9.49267 38.7045 8.8377 40.6482 8.03195Z" fill="url(#paint21_radial_12_137)"/>
<path opacity="0.7" d="M37.2485 11.4335C38.0542 9.48977 38.7092 8.8348 40.6553 8.02904C39.9226 7.90182 38.9754 8.2505 38.2239 9.00443C37.4723 9.756 37.1236 10.7008 37.2485 11.4335Z" fill="url(#paint22_radial_12_137)"/>
<path opacity="0.5" d="M36.2873 9.00548C35.5193 8.2115 34.5509 7.85575 33.8347 8.03009C35.7831 8.8382 36.4381 9.49082 37.2462 11.4392C37.2486 11.4322 37.2509 11.4251 37.2556 11.4204C37.364 10.6947 37.0153 9.75705 36.2897 9.00548H36.2873Z" fill="url(#paint23_radial_12_137)"/>
<path d="M39.6069 2.48559C41.0276 1.89894 41.5059 1.42067 42.0949 0C42.6839 1.42067 43.1621 1.89894 44.5828 2.48559C43.1621 3.07459 42.6839 3.55286 42.0949 4.97118C41.5059 3.55051 41.0276 3.07224 39.6069 2.48559Z" fill="url(#paint24_linear_12_137)"/>
<path d="M42.1136 2.45981C42.4599 2.80614 42.8722 3.0441 43.3057 3.17368C43.6332 2.92159 44.0384 2.7119 44.5827 2.48572C43.162 1.89672 42.6837 1.41845 42.0947 0.000133514C41.8686 0.546728 41.6589 0.951962 41.4044 1.27945C41.534 1.70824 41.772 2.11819 42.1136 2.45981Z" fill="url(#paint25_radial_12_137)"/>
<path opacity="0.4" d="M42.0927 0.00484553C42.1068 0.546728 42.3848 1.16871 42.8961 1.67997C43.4073 2.19122 44.0316 2.46923 44.5735 2.48337C43.1599 1.89672 42.6817 1.41845 42.095 0.000133514C42.095 0.000133514 42.095 0.00248952 42.095 0.00484553H42.0927Z" fill="url(#paint26_radial_12_137)"/>
<path d="M41.9841 0.253735C41.9888 0.352687 41.9841 0.456352 41.9699 0.564728C41.9063 0.979386 41.6825 1.3964 41.3409 1.73802C40.9993 2.07964 40.5822 2.30346 40.1676 2.36708C40.0569 2.38357 39.9508 2.38828 39.8495 2.38121C39.7741 2.4142 39.694 2.44954 39.6116 2.48252C39.7152 2.50844 39.8236 2.52022 39.9367 2.52022C40.0192 2.52022 40.104 2.51315 40.1888 2.50137C40.6317 2.43304 41.077 2.19509 41.4375 1.83462C41.8003 1.47179 42.0359 1.02886 42.1042 0.585932C42.1349 0.380959 42.1278 0.190122 42.0854 0.0157776C42.05 0.0982379 42.0171 0.178342 41.9841 0.253735Z" fill="url(#paint27_radial_12_137)"/>
<path d="M39.6069 2.48588C40.1323 2.5542 40.8014 2.29269 41.341 1.75552C41.8805 1.21835 42.1349 0.565732 42.076 0.0426979C41.4965 1.42803 41.0135 1.90395 39.6069 2.48588Z" fill="url(#paint28_radial_12_137)"/>
<path d="M42.1018 4.95664C42.6861 3.55246 43.1667 3.07419 44.578 2.4899C44.0196 2.35325 43.3034 2.5865 42.7521 3.1378C42.2007 3.68911 41.9699 4.40062 42.1018 4.95664Z" fill="url(#paint29_radial_12_137)"/>
<defs>
<linearGradient id="paint0_linear_12_137" x1="0.0190555" y1="30.581" x2="47.8295" y2="4.78044" gradientUnits="userSpaceOnUse">
<stop offset="0.07" stop-color="#4727C7"/>
<stop offset="0.37" stop-color="#7757F7"/>
<stop offset="0.57" stop-color="#D747A7"/>
<stop offset="0.97" stop-color="#F72727"/>
</linearGradient>
<linearGradient id="paint1_linear_12_137" x1="6.82535" y1="-2.21011" x2="13.9711" y2="6.10424" gradientUnits="userSpaceOnUse">
<stop offset="0.45" stop-color="white"/>
<stop offset="0.61" stop-color="white" stop-opacity="0.3"/>
<stop offset="0.8" stop-color="white" stop-opacity="0"/>
</linearGradient>
<linearGradient id="paint2_linear_12_137" x1="24.9761" y1="-2.2221" x2="31.2336" y2="9.44485" gradientUnits="userSpaceOnUse">
<stop offset="0.35" stop-color="white"/>
<stop offset="0.42" stop-color="white" stop-opacity="0.3"/>
<stop offset="0.68" stop-color="white" stop-opacity="0"/>
</linearGradient>
<radialGradient id="paint3_radial_12_137" cx="0" cy="0" r="1" gradientUnits="userSpaceOnUse" gradientTransform="translate(34.2659 35.0933) rotate(-78.95) scale(7.80028 21.0299)">
<stop offset="0.24" stop-color="white"/>
<stop offset="0.36" stop-color="white" stop-opacity="0.3"/>
<stop offset="0.66" stop-color="white" stop-opacity="0"/>
</radialGradient>
<radialGradient id="paint4_radial_12_137" cx="0" cy="0" r="1" gradientTransform="matrix(-2.89159 -3.3464 -7.94128 6.862 5.48049 29.7945)" gradientUnits="userSpaceOnUse">
<stop offset="0.27" stop-color="white"/>
<stop offset="0.5" stop-color="white" stop-opacity="0.3"/>
<stop offset="0.67" stop-color="white" stop-opacity="0"/>
</radialGradient>
<radialGradient id="paint5_radial_12_137" cx="0" cy="0" r="1" gradientTransform="matrix(3.71887 3.97686 4.96795 -4.64568 1.71233 4.82004)" gradientUnits="userSpaceOnUse">
<stop stop-color="white"/>
<stop offset="0.74" stop-color="white" stop-opacity="0"/>
</radialGradient>
<radialGradient id="paint6_radial_12_137" cx="0" cy="0" r="1" gradientTransform="matrix(3.25328 3.44868 4.30849 -4.06438 21.7937 4.12506)" gradientUnits="userSpaceOnUse">
<stop stop-color="white"/>
<stop offset="0.74" stop-color="white" stop-opacity="0"/>
</radialGradient>
<radialGradient id="paint7_radial_12_137" cx="0" cy="0" r="1" gradientTransform="matrix(5.47382 6.67106 4.94017 -4.05358 40.5037 6.52178)" gradientUnits="userSpaceOnUse">
<stop stop-color="white"/>
<stop offset="0.8" stop-color="white" stop-opacity="0"/>
</radialGradient>
<linearGradient id="paint8_linear_12_137" x1="0.0191776" y1="30.5807" x2="47.8297" y2="4.78011" gradientUnits="userSpaceOnUse">
<stop offset="0.07" stop-color="#4727C7"/>
<stop offset="0.37" stop-color="#7757F7"/>
<stop offset="0.57" stop-color="#D747A7"/>
<stop offset="0.97" stop-color="#F72727"/>
</linearGradient>
<radialGradient id="paint9_radial_12_137" cx="0" cy="0" r="1" gradientUnits="userSpaceOnUse" gradientTransform="translate(-0.657791 22.6382) scale(2.34284 10.7741)">
<stop stop-color="white"/>
<stop offset="1" stop-color="white" stop-opacity="0"/>
</radialGradient>
<radialGradient id="paint10_radial_12_137" cx="0" cy="0" r="1" gradientUnits="userSpaceOnUse" gradientTransform="translate(13.0544 18.9423) scale(2.34284 7.05517)">
<stop stop-color="white"/>
<stop offset="1" stop-color="white" stop-opacity="0"/>
</radialGradient>
<radialGradient id="paint11_radial_12_137" cx="0" cy="0" r="1" gradientUnits="userSpaceOnUse" gradientTransform="translate(40.6112 16.8871) scale(2.34284 6.00229)">
<stop stop-color="white"/>
<stop offset="1" stop-color="white" stop-opacity="0"/>
</radialGradient>
<radialGradient id="paint12_radial_12_137" cx="0" cy="0" r="1" gradientUnits="userSpaceOnUse" gradientTransform="translate(26.8666 18.6043) scale(2.34284 5.93533)">
<stop stop-color="white"/>
<stop offset="1" stop-color="white" stop-opacity="0"/>
</radialGradient>
<radialGradient id="paint13_radial_12_137" cx="0" cy="0" r="1" gradientUnits="userSpaceOnUse" gradientTransform="translate(20.9415 18.9611) rotate(-180) scale(2.34284 7.05517)">
<stop stop-color="white"/>
<stop offset="1" stop-color="white" stop-opacity="0"/>
</radialGradient>
<radialGradient id="paint14_radial_12_137" cx="0" cy="0" r="1" gradientUnits="userSpaceOnUse" gradientTransform="translate(48.5376 16.0016) rotate(180) scale(2.34284 7.05517)">
<stop stop-color="white"/>
<stop offset="1" stop-color="white" stop-opacity="0"/>
</radialGradient>
<radialGradient id="paint15_radial_12_137" cx="0" cy="0" r="1" gradientUnits="userSpaceOnUse" gradientTransform="translate(34.7712 17.0747) rotate(-180) scale(2.34284 4.55586)">
<stop stop-color="white"/>
<stop offset="1" stop-color="white" stop-opacity="0"/>
</radialGradient>
<radialGradient id="paint16_radial_12_137" cx="0" cy="0" r="1" gradientUnits="userSpaceOnUse" gradientTransform="translate(7.20742 19.5753) rotate(-180) scale(2.34284 7.05517)">
<stop stop-color="white"/>
<stop offset="1" stop-color="white" stop-opacity="0"/>
</radialGradient>
<linearGradient id="paint17_linear_12_137" x1="-1.01309" y1="28.678" x2="46.755" y2="2.89856" gradientUnits="userSpaceOnUse">
<stop offset="0.07" stop-color="#4727C7"/>
<stop offset="0.37" stop-color="#7757F7"/>
<stop offset="0.57" stop-color="#D747A7"/>
<stop offset="0.97" stop-color="#F72727"/>
</linearGradient>
<radialGradient id="paint18_radial_12_137" cx="0" cy="0" r="1" gradientUnits="userSpaceOnUse" gradientTransform="translate(38.9659 6.68236) scale(2.35129 2.3513)">
<stop offset="0.11" stop-color="#FF9AB1"/>
<stop offset="1" stop-color="#FF2A5C"/>
</radialGradient>
<radialGradient id="paint19_radial_12_137" cx="0" cy="0" r="1" gradientUnits="userSpaceOnUse" gradientTransform="translate(39.5832 6.33788) scale(1.64449 1.6445)">
<stop offset="0.36" stop-color="#E9355E"/>
<stop offset="1" stop-color="#FFA7BD"/>
</radialGradient>
<radialGradient id="paint20_radial_12_137" cx="0" cy="0" r="1" gradientUnits="userSpaceOnUse" gradientTransform="translate(34.1102 4.84648) scale(3.40207 3.40208)">
<stop offset="0.76" stop-color="#E9355E"/>
<stop offset="1" stop-color="#FFA7BD"/>
</radialGradient>
<radialGradient id="paint21_radial_12_137" cx="0" cy="0" r="1" gradientUnits="userSpaceOnUse" gradientTransform="translate(38.5207 9.18168) scale(1.77878 1.77879)">
<stop offset="0.36" stop-color="#E9355E"/>
<stop offset="1" stop-color="#E83662"/>
</radialGradient>
<radialGradient id="paint22_radial_12_137" cx="0" cy="0" r="1" gradientUnits="userSpaceOnUse" gradientTransform="translate(40.1205 10.5405) scale(2.98977 2.98978)">
<stop offset="0.36" stop-color="#E9355E"/>
<stop offset="1" stop-color="#FD5781"/>
</radialGradient>
<radialGradient id="paint23_radial_12_137" cx="0" cy="0" r="1" gradientUnits="userSpaceOnUse" gradientTransform="translate(36.1742 9.18689) scale(3.56464 3.56464)">
<stop stop-color="#E93561"/>
<stop offset="0.41" stop-color="#B51845"/>
<stop offset="0.74" stop-color="#E9355F"/>
</radialGradient>
<linearGradient id="paint24_linear_12_137" x1="-2.23573" y1="26.4109" x2="45.5323" y2="0.631485" gradientUnits="userSpaceOnUse">
<stop offset="0.07" stop-color="#4727C7"/>
<stop offset="0.37" stop-color="#7757F7"/>
<stop offset="0.57" stop-color="#D747A7"/>
<stop offset="0.97" stop-color="#F72727"/>
</linearGradient>
<radialGradient id="paint25_radial_12_137" cx="0" cy="0" r="1" gradientUnits="userSpaceOnUse" gradientTransform="translate(43.8547 1.13102) scale(2.50679 2.50679)">
<stop offset="0.49" stop-color="#FF8C94"/>
<stop offset="0.58" stop-color="#FE8188"/>
<stop offset="0.74" stop-color="#FB6369"/>
<stop offset="0.95" stop-color="#F73537"/>
<stop offset="1" stop-color="#F6282A"/>
</radialGradient>
<radialGradient id="paint26_radial_12_137" cx="0" cy="0" r="1" gradientUnits="userSpaceOnUse" gradientTransform="translate(44.1023 1.14987) scale(1.34999 1.34999)">
<stop stop-color="#FF8C94"/>
<stop offset="1" stop-color="#F6282A"/>
</radialGradient>
<radialGradient id="paint27_radial_12_137" cx="0" cy="0" r="1" gradientUnits="userSpaceOnUse" gradientTransform="translate(40.2453 1.25033) scale(0.76099 0.760991)">
<stop stop-color="white"/>
<stop offset="1" stop-color="#F22C39"/>
</radialGradient>
<radialGradient id="paint28_radial_12_137" cx="0" cy="0" r="1" gradientUnits="userSpaceOnUse" gradientTransform="translate(41.3127 1.27018) scale(1.18036 1.18036)">
<stop offset="0.36" stop-color="#F22C3A"/>
<stop offset="1" stop-color="#FF949B"/>
</radialGradient>
<radialGradient id="paint29_radial_12_137" cx="0" cy="0" r="1" gradientUnits="userSpaceOnUse" gradientTransform="translate(44.0761 4.0378) scale(2.83899 2.83899)">
<stop offset="0.3" stop-color="#F6282A"/>
<stop offset="1" stop-color="#FFCBCE"/>
</radialGradient>
</defs>
</svg>
