<svg width="20" height="20" viewBox="0 0 20 20" fill="none" xmlns="http://www.w3.org/2000/svg">
<path d="M17.9166 11.732C16.9168 12.2658 15.775 12.5685 14.5625 12.5685C10.6242 12.5685 7.43152 9.37579 7.43152 5.43742C7.43152 4.22492 7.73413 3.08311 8.26794 2.08337C4.72296 2.91419 2.08325 6.09598 2.08325 9.89429C2.08325 14.325 5.675 17.9167 10.1057 17.9167C13.904 17.9167 17.0858 15.277 17.9166 11.732Z" stroke="black" stroke-width="1.5" stroke-linecap="round" stroke-linejoin="round"/>
<path d="M16.6667 5.00002C15.2371 5.59172 14.7581 6.07295 14.1667 7.50164C13.5754 6.07107 13.0945 5.59172 11.6667 5.00002C13.0964 4.40833 13.5754 3.9271 14.1667 2.49841C14.7581 3.92897 15.239 4.40833 16.6667 5.00002Z" fill="black"/>
</svg>
