<svg width="151" height="151" viewBox="0 0 151 151" fill="none" xmlns="http://www.w3.org/2000/svg">
<path d="M90.5171 0H84.4827V6.03448H90.5171V0Z" fill="black"/>
<path d="M54.3104 6.03448H48.2759V12.069H54.3104V6.03448Z" fill="black"/>
<path d="M72.4139 6.03448H66.3794V12.069H72.4139V6.03448Z" fill="black"/>
<path d="M78.4483 6.03448H72.4138V12.069H78.4483V6.03448Z" fill="black"/>
<path d="M90.5171 6.03448H84.4827V12.069H90.5171V6.03448Z" fill="black"/>
<path d="M102.586 6.03448H96.5518V12.069H102.586V6.03448Z" fill="black"/>
<path d="M54.3104 12.069H48.2759V18.1035H54.3104V12.069Z" fill="black"/>
<path d="M60.3448 12.069H54.3103V18.1035H60.3448V12.069Z" fill="black"/>
<path d="M72.4139 12.069H66.3794V18.1035H72.4139V12.069Z" fill="black"/>
<path d="M78.4483 12.069H72.4138V18.1035H78.4483V12.069Z" fill="black"/>
<path d="M90.5171 12.069H84.4827V18.1035H90.5171V12.069Z" fill="black"/>
<path d="M102.586 12.069H96.5518V18.1035H102.586V12.069Z" fill="black"/>
<path d="M54.3104 18.1034H48.2759V24.1379H54.3104V18.1034Z" fill="black"/>
<path d="M60.3448 18.1034H54.3103V24.1379H60.3448V18.1034Z" fill="black"/>
<path d="M66.3792 18.1034H60.3447V24.1379H66.3792V18.1034Z" fill="black"/>
<path d="M84.4827 18.1034H78.4482V24.1379H84.4827V18.1034Z" fill="black"/>
<path d="M90.5171 18.1034H84.4827V24.1379H90.5171V18.1034Z" fill="black"/>
<path d="M96.5518 18.1034H90.5173V24.1379H96.5518V18.1034Z" fill="black"/>
<path d="M102.586 18.1034H96.5518V24.1379H102.586V18.1034Z" fill="black"/>
<path d="M66.3792 24.1379H60.3447V30.1724H66.3792V24.1379Z" fill="black"/>
<path d="M84.4827 24.1379H78.4482V30.1724H84.4827V24.1379Z" fill="black"/>
<path d="M102.586 24.1379H96.5518V30.1724H102.586V24.1379Z" fill="black"/>
<path d="M60.3448 30.1724H54.3103V36.2069H60.3448V30.1724Z" fill="black"/>
<path d="M66.3792 30.1724H60.3447V36.2069H66.3792V30.1724Z" fill="black"/>
<path d="M72.4139 30.1724H66.3794V36.2069H72.4139V30.1724Z" fill="black"/>
<path d="M78.4483 30.1724H72.4138V36.2069H78.4483V30.1724Z" fill="black"/>
<path d="M84.4827 30.1724H78.4482V36.2069H84.4827V30.1724Z" fill="black"/>
<path d="M90.5171 30.1724H84.4827V36.2069H90.5171V30.1724Z" fill="black"/>
<path d="M102.586 30.1724H96.5518V36.2069H102.586V30.1724Z" fill="black"/>
<path d="M54.3104 36.207H48.2759V42.2415H54.3104V36.207Z" fill="black"/>
<path d="M66.3792 36.207H60.3447V42.2415H66.3792V36.207Z" fill="black"/>
<path d="M78.4483 36.207H72.4138V42.2415H78.4483V36.207Z" fill="black"/>
<path d="M90.5171 36.207H84.4827V42.2415H90.5171V36.207Z" fill="black"/>
<path d="M102.586 36.207H96.5518V42.2415H102.586V36.207Z" fill="black"/>
<path d="M54.3104 42.2414H48.2759V48.2759H54.3104V42.2414Z" fill="black"/>
<path d="M66.3792 42.2414H60.3447V48.2759H66.3792V42.2414Z" fill="black"/>
<path d="M72.4139 42.2414H66.3794V48.2759H72.4139V42.2414Z" fill="black"/>
<path d="M78.4483 42.2414H72.4138V48.2759H78.4483V42.2414Z" fill="black"/>
<path d="M90.5171 42.2414H84.4827V48.2759H90.5171V42.2414Z" fill="black"/>
<path d="M96.5518 42.2414H90.5173V48.2759H96.5518V42.2414Z" fill="black"/>
<path d="M6.03448 48.2759H0V54.3104H6.03448V48.2759Z" fill="black"/>
<path d="M42.2413 48.2759H36.2068V54.3104H42.2413V48.2759Z" fill="black"/>
<path d="M54.3104 48.2759H48.2759V54.3104H54.3104V48.2759Z" fill="black"/>
<path d="M72.4139 48.2759H66.3794V54.3104H72.4139V48.2759Z" fill="black"/>
<path d="M78.4483 48.2759H72.4138V54.3104H78.4483V48.2759Z" fill="black"/>
<path d="M84.4827 48.2759H78.4482V54.3104H84.4827V48.2759Z" fill="black"/>
<path d="M90.5171 48.2759H84.4827V54.3104H90.5171V48.2759Z" fill="black"/>
<path d="M96.5518 48.2759H90.5173V54.3104H96.5518V48.2759Z" fill="black"/>
<path d="M108.621 48.2759H102.586V54.3104H108.621V48.2759Z" fill="black"/>
<path d="M114.655 48.2759H108.621V54.3104H114.655V48.2759Z" fill="black"/>
<path d="M132.759 48.2759H126.724V54.3104H132.759V48.2759Z" fill="black"/>
<path d="M138.793 48.2759H132.759V54.3104H138.793V48.2759Z" fill="black"/>
<path d="M144.828 48.2759H138.793V54.3104H144.828V48.2759Z" fill="black"/>
<path d="M6.03448 54.3104H0V60.3448H6.03448V54.3104Z" fill="black"/>
<path d="M12.0689 54.3104H6.03442V60.3448H12.0689V54.3104Z" fill="black"/>
<path d="M24.138 54.3104H18.1035V60.3448H24.138V54.3104Z" fill="black"/>
<path d="M30.1724 54.3104H24.1379V60.3448H30.1724V54.3104Z" fill="black"/>
<path d="M48.2759 54.3104H42.2415V60.3448H48.2759V54.3104Z" fill="black"/>
<path d="M54.3104 54.3104H48.2759V60.3448H54.3104V54.3104Z" fill="black"/>
<path d="M66.3792 54.3104H60.3447V60.3448H66.3792V54.3104Z" fill="black"/>
<path d="M72.4139 54.3104H66.3794V60.3448H72.4139V54.3104Z" fill="black"/>
<path d="M96.5518 54.3104H90.5173V60.3448H96.5518V54.3104Z" fill="black"/>
<path d="M108.621 54.3104H102.586V60.3448H108.621V54.3104Z" fill="black"/>
<path d="M120.69 54.3104H114.655V60.3448H120.69V54.3104Z" fill="black"/>
<path d="M126.724 54.3104H120.69V60.3448H126.724V54.3104Z" fill="black"/>
<path d="M132.759 54.3104H126.724V60.3448H132.759V54.3104Z" fill="black"/>
<path d="M138.793 54.3104H132.759V60.3448H138.793V54.3104Z" fill="black"/>
<path d="M144.828 54.3104H138.793V60.3448H144.828V54.3104Z" fill="black"/>
<path d="M12.0689 60.3448H6.03442V66.3793H12.0689V60.3448Z" fill="black"/>
<path d="M24.138 60.3448H18.1035V66.3793H24.138V60.3448Z" fill="black"/>
<path d="M30.1724 60.3448H24.1379V66.3793H30.1724V60.3448Z" fill="black"/>
<path d="M36.2068 60.3448H30.1724V66.3793H36.2068V60.3448Z" fill="black"/>
<path d="M42.2413 60.3448H36.2068V66.3793H42.2413V60.3448Z" fill="black"/>
<path d="M48.2759 60.3448H42.2415V66.3793H48.2759V60.3448Z" fill="black"/>
<path d="M54.3104 60.3448H48.2759V66.3793H54.3104V60.3448Z" fill="black"/>
<path d="M66.3792 60.3448H60.3447V66.3793H66.3792V60.3448Z" fill="black"/>
<path d="M72.4139 60.3448H66.3794V66.3793H72.4139V60.3448Z" fill="black"/>
<path d="M96.5518 60.3448H90.5173V66.3793H96.5518V60.3448Z" fill="black"/>
<path d="M108.621 60.3448H102.586V66.3793H108.621V60.3448Z" fill="black"/>
<path d="M114.655 60.3448H108.621V66.3793H114.655V60.3448Z" fill="black"/>
<path d="M120.69 60.3448H114.655V66.3793H120.69V60.3448Z" fill="black"/>
<path d="M132.759 60.3448H126.724V66.3793H132.759V60.3448Z" fill="black"/>
<path d="M144.828 60.3448H138.793V66.3793H144.828V60.3448Z" fill="black"/>
<path d="M150.862 60.3448H144.828V66.3793H150.862V60.3448Z" fill="black"/>
<path d="M12.0689 66.3793H6.03442V72.4138H12.0689V66.3793Z" fill="black"/>
<path d="M18.1033 66.3793H12.0688V72.4138H18.1033V66.3793Z" fill="black"/>
<path d="M36.2068 66.3793H30.1724V72.4138H36.2068V66.3793Z" fill="black"/>
<path d="M54.3104 66.3793H48.2759V72.4138H54.3104V66.3793Z" fill="black"/>
<path d="M90.5171 66.3793H84.4827V72.4138H90.5171V66.3793Z" fill="black"/>
<path d="M96.5518 66.3793H90.5173V72.4138H96.5518V66.3793Z" fill="black"/>
<path d="M102.586 66.3793H96.5518V72.4138H102.586V66.3793Z" fill="black"/>
<path d="M114.655 66.3793H108.621V72.4138H114.655V66.3793Z" fill="black"/>
<path d="M120.69 66.3793H114.655V72.4138H120.69V66.3793Z" fill="black"/>
<path d="M132.759 66.3793H126.724V72.4138H132.759V66.3793Z" fill="black"/>
<path d="M150.862 66.3793H144.828V72.4138H150.862V66.3793Z" fill="black"/>
<path d="M6.03448 72.4138H0V78.4482H6.03448V72.4138Z" fill="black"/>
<path d="M12.0689 72.4138H6.03442V78.4482H12.0689V72.4138Z" fill="black"/>
<path d="M30.1724 72.4138H24.1379V78.4482H30.1724V72.4138Z" fill="black"/>
<path d="M42.2413 72.4138H36.2068V78.4482H42.2413V72.4138Z" fill="black"/>
<path d="M48.2759 72.4138H42.2415V78.4482H48.2759V72.4138Z" fill="black"/>
<path d="M54.3104 72.4138H48.2759V78.4482H54.3104V72.4138Z" fill="black"/>
<path d="M66.3792 72.4138H60.3447V78.4482H66.3792V72.4138Z" fill="black"/>
<path d="M78.4483 72.4138H72.4138V78.4482H78.4483V72.4138Z" fill="black"/>
<path d="M102.586 72.4138H96.5518V78.4482H102.586V72.4138Z" fill="black"/>
<path d="M114.655 72.4138H108.621V78.4482H114.655V72.4138Z" fill="black"/>
<path d="M150.862 72.4138H144.828V78.4482H150.862V72.4138Z" fill="black"/>
<path d="M6.03448 78.4482H0V84.4827H6.03448V78.4482Z" fill="black"/>
<path d="M12.0689 78.4482H6.03442V84.4827H12.0689V78.4482Z" fill="black"/>
<path d="M30.1724 78.4482H24.1379V84.4827H30.1724V78.4482Z" fill="black"/>
<path d="M36.2068 78.4482H30.1724V84.4827H36.2068V78.4482Z" fill="black"/>
<path d="M48.2759 78.4482H42.2415V84.4827H48.2759V78.4482Z" fill="black"/>
<path d="M54.3104 78.4482H48.2759V84.4827H54.3104V78.4482Z" fill="black"/>
<path d="M90.5171 78.4482H84.4827V84.4827H90.5171V78.4482Z" fill="black"/>
<path d="M96.5518 78.4482H90.5173V84.4827H96.5518V78.4482Z" fill="black"/>
<path d="M120.69 78.4482H114.655V84.4827H120.69V78.4482Z" fill="black"/>
<path d="M144.828 78.4482H138.793V84.4827H144.828V78.4482Z" fill="black"/>
<path d="M6.03448 84.4827H0V90.5172H6.03448V84.4827Z" fill="black"/>
<path d="M18.1033 84.4827H12.0688V90.5172H18.1033V84.4827Z" fill="black"/>
<path d="M36.2068 84.4827H30.1724V90.5172H36.2068V84.4827Z" fill="black"/>
<path d="M42.2413 84.4827H36.2068V90.5172H42.2413V84.4827Z" fill="black"/>
<path d="M72.4139 84.4827H66.3794V90.5172H72.4139V84.4827Z" fill="black"/>
<path d="M78.4483 84.4827H72.4138V90.5172H78.4483V84.4827Z" fill="black"/>
<path d="M84.4827 84.4827H78.4482V90.5172H84.4827V84.4827Z" fill="black"/>
<path d="M96.5518 84.4827H90.5173V90.5172H96.5518V84.4827Z" fill="black"/>
<path d="M102.586 84.4827H96.5518V90.5172H102.586V84.4827Z" fill="black"/>
<path d="M108.621 84.4827H102.586V90.5172H108.621V84.4827Z" fill="black"/>
<path d="M120.69 84.4827H114.655V90.5172H120.69V84.4827Z" fill="black"/>
<path d="M132.759 84.4827H126.724V90.5172H132.759V84.4827Z" fill="black"/>
<path d="M144.828 84.4827H138.793V90.5172H144.828V84.4827Z" fill="black"/>
<path d="M150.862 84.4827H144.828V90.5172H150.862V84.4827Z" fill="black"/>
<path d="M6.03448 90.5172H0V96.5516H6.03448V90.5172Z" fill="black"/>
<path d="M18.1033 90.5172H12.0688V96.5516H18.1033V90.5172Z" fill="black"/>
<path d="M48.2759 90.5172H42.2415V96.5516H48.2759V90.5172Z" fill="black"/>
<path d="M54.3104 90.5172H48.2759V96.5516H54.3104V90.5172Z" fill="black"/>
<path d="M72.4139 90.5172H66.3794V96.5516H72.4139V90.5172Z" fill="black"/>
<path d="M90.5171 90.5172H84.4827V96.5516H90.5171V90.5172Z" fill="black"/>
<path d="M102.586 90.5172H96.5518V96.5516H102.586V90.5172Z" fill="black"/>
<path d="M108.621 90.5172H102.586V96.5516H108.621V90.5172Z" fill="black"/>
<path d="M120.69 90.5172H114.655V96.5516H120.69V90.5172Z" fill="black"/>
<path d="M138.793 90.5172H132.759V96.5516H138.793V90.5172Z" fill="black"/>
<path d="M150.862 90.5172H144.828V96.5516H150.862V90.5172Z" fill="black"/>
<path d="M6.03448 96.5517H0V102.586H6.03448V96.5517Z" fill="black"/>
<path d="M18.1033 96.5517H12.0688V102.586H18.1033V96.5517Z" fill="black"/>
<path d="M24.138 96.5517H18.1035V102.586H24.138V96.5517Z" fill="black"/>
<path d="M42.2413 96.5517H36.2068V102.586H42.2413V96.5517Z" fill="black"/>
<path d="M48.2759 96.5517H42.2415V102.586H48.2759V96.5517Z" fill="black"/>
<path d="M60.3448 96.5517H54.3103V102.586H60.3448V96.5517Z" fill="black"/>
<path d="M72.4139 96.5517H66.3794V102.586H72.4139V96.5517Z" fill="black"/>
<path d="M102.586 96.5517H96.5518V102.586H102.586V96.5517Z" fill="black"/>
<path d="M108.621 96.5517H102.586V102.586H108.621V96.5517Z" fill="black"/>
<path d="M114.655 96.5517H108.621V102.586H114.655V96.5517Z" fill="black"/>
<path d="M120.69 96.5517H114.655V102.586H120.69V96.5517Z" fill="black"/>
<path d="M126.724 96.5517H120.69V102.586H126.724V96.5517Z" fill="black"/>
<path d="M138.793 96.5517H132.759V102.586H138.793V96.5517Z" fill="black"/>
<path d="M54.3104 102.586H48.2759V108.621H54.3104V102.586Z" fill="black"/>
<path d="M60.3448 102.586H54.3103V108.621H60.3448V102.586Z" fill="black"/>
<path d="M78.4483 102.586H72.4138V108.621H78.4483V102.586Z" fill="black"/>
<path d="M84.4827 102.586H78.4482V108.621H84.4827V102.586Z" fill="black"/>
<path d="M96.5518 102.586H90.5173V108.621H96.5518V102.586Z" fill="black"/>
<path d="M102.586 102.586H96.5518V108.621H102.586V102.586Z" fill="black"/>
<path d="M126.724 102.586H120.69V108.621H126.724V102.586Z" fill="black"/>
<path d="M138.793 102.586H132.759V108.621H138.793V102.586Z" fill="black"/>
<path d="M66.3792 108.621H60.3447V114.655H66.3792V108.621Z" fill="black"/>
<path d="M72.4139 108.621H66.3794V114.655H72.4139V108.621Z" fill="black"/>
<path d="M102.586 108.621H96.5518V114.655H102.586V108.621Z" fill="black"/>
<path d="M114.655 108.621H108.621V114.655H114.655V108.621Z" fill="black"/>
<path d="M126.724 108.621H120.69V114.655H126.724V108.621Z" fill="black"/>
<path d="M132.759 108.621H126.724V114.655H132.759V108.621Z" fill="black"/>
<path d="M150.862 108.621H144.828V114.655H150.862V108.621Z" fill="black"/>
<path d="M66.3792 114.655H60.3447V120.69H66.3792V114.655Z" fill="black"/>
<path d="M78.4483 114.655H72.4138V120.69H78.4483V114.655Z" fill="black"/>
<path d="M84.4827 114.655H78.4482V120.69H84.4827V114.655Z" fill="black"/>
<path d="M96.5518 114.655H90.5173V120.69H96.5518V114.655Z" fill="black"/>
<path d="M102.586 114.655H96.5518V120.69H102.586V114.655Z" fill="black"/>
<path d="M126.724 114.655H120.69V120.69H126.724V114.655Z" fill="black"/>
<path d="M144.828 114.655H138.793V120.69H144.828V114.655Z" fill="black"/>
<path d="M150.862 114.655H144.828V120.69H150.862V114.655Z" fill="black"/>
<path d="M60.3448 120.69H54.3103V126.724H60.3448V120.69Z" fill="black"/>
<path d="M78.4483 120.69H72.4138V126.724H78.4483V120.69Z" fill="black"/>
<path d="M90.5171 120.69H84.4827V126.724H90.5171V120.69Z" fill="black"/>
<path d="M96.5518 120.69H90.5173V126.724H96.5518V120.69Z" fill="black"/>
<path d="M102.586 120.69H96.5518V126.724H102.586V120.69Z" fill="black"/>
<path d="M108.621 120.69H102.586V126.724H108.621V120.69Z" fill="black"/>
<path d="M114.655 120.69H108.621V126.724H114.655V120.69Z" fill="black"/>
<path d="M120.69 120.69H114.655V126.724H120.69V120.69Z" fill="black"/>
<path d="M126.724 120.69H120.69V126.724H126.724V120.69Z" fill="black"/>
<path d="M132.759 120.69H126.724V126.724H132.759V120.69Z" fill="black"/>
<path d="M138.793 120.69H132.759V126.724H138.793V120.69Z" fill="black"/>
<path d="M144.828 120.69H138.793V126.724H144.828V120.69Z" fill="black"/>
<path d="M150.862 120.69H144.828V126.724H150.862V120.69Z" fill="black"/>
<path d="M60.3448 126.724H54.3103V132.759H60.3448V126.724Z" fill="black"/>
<path d="M90.5171 126.724H84.4827V132.759H90.5171V126.724Z" fill="black"/>
<path d="M96.5518 126.724H90.5173V132.759H96.5518V126.724Z" fill="black"/>
<path d="M102.586 126.724H96.5518V132.759H102.586V126.724Z" fill="black"/>
<path d="M108.621 126.724H102.586V132.759H108.621V126.724Z" fill="black"/>
<path d="M114.655 126.724H108.621V132.759H114.655V126.724Z" fill="black"/>
<path d="M132.759 126.724H126.724V132.759H132.759V126.724Z" fill="black"/>
<path d="M144.828 126.724H138.793V132.759H144.828V126.724Z" fill="black"/>
<path d="M150.862 126.724H144.828V132.759H150.862V126.724Z" fill="black"/>
<path d="M60.3448 132.759H54.3103V138.793H60.3448V132.759Z" fill="black"/>
<path d="M66.3792 132.759H60.3447V138.793H66.3792V132.759Z" fill="black"/>
<path d="M72.4139 132.759H66.3794V138.793H72.4139V132.759Z" fill="black"/>
<path d="M78.4483 132.759H72.4138V138.793H78.4483V132.759Z" fill="black"/>
<path d="M96.5518 132.759H90.5173V138.793H96.5518V132.759Z" fill="black"/>
<path d="M120.69 132.759H114.655V138.793H120.69V132.759Z" fill="black"/>
<path d="M138.793 132.759H132.759V138.793H138.793V132.759Z" fill="black"/>
<path d="M150.862 132.759H144.828V138.793H150.862V132.759Z" fill="black"/>
<path d="M66.3792 138.793H60.3447V144.828H66.3792V138.793Z" fill="black"/>
<path d="M72.4139 138.793H66.3794V144.828H72.4139V138.793Z" fill="black"/>
<path d="M90.5171 138.793H84.4827V144.828H90.5171V138.793Z" fill="black"/>
<path d="M102.586 138.793H96.5518V144.828H102.586V138.793Z" fill="black"/>
<path d="M108.621 138.793H102.586V144.828H108.621V138.793Z" fill="black"/>
<path d="M114.655 138.793H108.621V144.828H114.655V138.793Z" fill="black"/>
<path d="M120.69 138.793H114.655V144.828H120.69V138.793Z" fill="black"/>
<path d="M126.724 138.793H120.69V144.828H126.724V138.793Z" fill="black"/>
<path d="M150.862 138.793H144.828V144.828H150.862V138.793Z" fill="black"/>
<path d="M54.3104 144.828H48.2759V150.862H54.3104V144.828Z" fill="black"/>
<path d="M84.4827 144.828H78.4482V150.862H84.4827V144.828Z" fill="black"/>
<path d="M90.5171 144.828H84.4827V150.862H90.5171V144.828Z" fill="black"/>
<path d="M102.586 144.828H96.5518V150.862H102.586V144.828Z" fill="black"/>
<path d="M108.621 144.828H102.586V150.862H108.621V144.828Z" fill="black"/>
<path d="M114.655 144.828H108.621V150.862H114.655V144.828Z" fill="black"/>
<path d="M132.759 144.828H126.724V150.862H132.759V144.828Z" fill="black"/>
<path d="M150.862 144.828H144.828V150.862H150.862V144.828Z" fill="black"/>
<path d="M35.9052 0H6.33621H0V6.33621V35.9052V42.2414H6.33621H35.9052H42.2414V35.9052V6.33621V0H35.9052ZM35.9052 35.9052H6.33621V6.33621H35.9052V35.9052Z" fill="black"/>
<path d="M144.526 0H114.957H108.621V6.33621V35.9052V42.2414H114.957H144.526H150.862V35.9052V6.33621V0H144.526ZM144.526 35.9052H114.957V6.33621H144.526V35.9052Z" fill="black"/>
<path d="M35.9052 108.621H6.33621H0V114.957V144.526V150.862H6.33621H35.9052H42.2414V144.526V114.957V108.621H35.9052ZM35.9052 144.526H6.33621V114.957H35.9052V144.526Z" fill="black"/>
<path d="M30.1723 12.069H12.0688V30.1724H30.1723V12.069Z" fill="black"/>
<path d="M138.793 12.069H120.69V30.1724H138.793V12.069Z" fill="black"/>
<path d="M30.1723 120.69H12.0688V138.793H30.1723V120.69Z" fill="black"/>
</svg>
