<svg width="20" height="20" viewBox="0 0 20 20" fill="none" xmlns="http://www.w3.org/2000/svg">
<path d="M8.33485 2.5C5.87955 2.52673 4.50923 2.68274 3.59875 3.59323C2.5 4.69198 2.5 6.4604 2.5 9.99717C2.5 13.5341 2.5 15.3025 3.59875 16.4012C4.6975 17.5 6.46592 17.5 10.0028 17.5C13.5396 17.5 15.308 17.5 16.4068 16.4012C17.3174 15.4906 17.4733 14.1198 17.5 11.6636" stroke="black" stroke-width="1.25" stroke-linecap="round" stroke-linejoin="round"/>
<path d="M11.6667 2.5H15.0001C16.1786 2.5 16.7678 2.5 17.134 2.86612C17.5001 3.23223 17.5001 3.82149 17.5001 5V8.33333M16.6667 3.33333L9.16675 10.8333" stroke="black" stroke-width="1.25" stroke-linecap="round" stroke-linejoin="round"/>
</svg>
