<svg width="349" height="248" viewBox="0 0 349 248" fill="none" xmlns="http://www.w3.org/2000/svg">
<path opacity="0.3" d="M98.2817 0C115.04 8.37919e-05 131.112 6.6574 142.962 18.5074C154.812 30.3574 161.469 46.4295 161.469 63.1878C161.469 79.9462 154.812 96.0182 142.962 107.868C131.112 119.718 115.04 126.375 98.2814 126.375C81.523 126.375 65.451 119.718 53.6011 107.868C41.7511 96.0182 35.0938 79.9462 35.0938 63.1878C35.0937 46.4295 41.7509 30.3574 53.6008 18.5074C65.4508 6.6574 81.5234 8.37919e-05 98.2817 0L98.2811 12.6375C84.8744 12.6376 72.0168 17.9635 62.5369 27.4435C53.057 36.9235 47.7312 49.7811 47.7313 63.1878C47.7313 76.5946 53.0571 89.4521 62.5371 98.9321C72.0171 108.412 84.8747 113.738 98.2814 113.738C111.688 113.738 124.546 108.412 134.026 98.9321C143.506 89.4521 148.832 76.5946 148.832 63.1878C148.832 49.7811 143.506 36.9235 134.026 27.4435C124.546 17.9635 111.688 12.6376 98.2811 12.6375L98.2817 0Z" fill="url(#paint0_linear_29_223)"/>
<path fill-rule="evenodd" clip-rule="evenodd" d="M98.2822 0C107.416 5.87738e-05 116.442 1.98074 124.736 5.80469C133.031 9.62866 140.398 15.2051 146.33 22.1504C152.262 29.0959 156.617 37.2452 159.097 46.0361C161.576 54.8271 162.12 64.0508 160.691 73.0723C159.263 82.0937 155.895 90.6984 150.82 98.293C145.746 105.887 139.085 112.292 131.297 117.064C123.509 121.837 114.779 124.864 105.709 125.938C96.6385 127.011 87.4426 126.106 78.7558 123.283L78.7568 123.279C76.4009 122.514 74.0862 121.61 71.8262 120.568C63.5315 116.744 56.1643 111.168 50.2324 104.223C44.3004 97.2772 39.9441 89.1279 37.4648 80.3369C34.9856 71.5461 34.4413 62.3221 35.8701 53.3008C37.299 44.2794 40.6667 35.6746 45.7412 28.0801C50.8157 20.4855 57.4767 14.081 65.2646 9.30859L71.8682 20.084C65.6378 23.9019 60.3086 29.0259 56.249 35.1016C52.1896 41.1771 49.4956 48.0604 48.3525 55.2773C47.2095 62.4944 47.6446 69.8736 49.6279 76.9062C51.6113 83.939 55.0963 90.4583 59.8418 96.0146C64.5874 101.571 70.4813 106.033 77.1172 109.092C83.7531 112.151 90.9732 113.735 98.2803 113.735V113.736C100.262 113.736 102.247 113.622 104.224 113.388C111.48 112.529 118.464 110.107 124.694 106.289C130.925 102.471 136.253 97.3471 140.312 91.2715C144.372 85.1959 147.067 78.3128 148.21 71.0957C149.353 63.8786 148.917 56.4995 146.934 49.4668C144.95 42.4342 141.466 35.9147 136.721 30.3584C131.975 24.8021 126.081 20.3404 119.445 17.2812C112.81 14.2221 105.589 12.6378 98.2822 12.6377V0Z" fill="#3B1F5F"/>
<path d="M113.026 66.5161C112.268 66.5161 111.592 66.36 110.997 66.0478C110.402 65.7207 109.934 65.2673 109.592 64.6875C109.265 64.1078 109.102 63.4537 109.102 62.7252C109.102 61.9819 109.265 61.3204 109.592 60.7406C109.934 60.1609 110.402 59.7149 110.997 59.4027C111.592 59.0756 112.268 58.9121 113.026 58.9121C114.171 58.9121 115.107 59.2689 115.836 59.9825C116.564 60.6812 116.929 61.5954 116.929 62.7252C116.929 63.8402 116.564 64.7544 115.836 65.468C115.107 66.1667 114.171 66.5161 113.026 66.5161ZM113.628 75.4133H110.707L122.771 58.9121H125.692L113.628 75.4133ZM113.026 64.576C113.561 64.576 114 64.4051 114.342 64.0632C114.684 63.7213 114.855 63.2753 114.855 62.7252C114.855 62.1752 114.684 61.7292 114.342 61.3873C114 61.0454 113.561 60.8744 113.026 60.8744C112.491 60.8744 112.045 61.0454 111.688 61.3873C111.346 61.7292 111.175 62.1752 111.175 62.7252C111.175 63.2753 111.346 63.7213 111.688 64.0632C112.045 64.4051 112.491 64.576 113.026 64.576ZM123.395 75.4133C122.637 75.4133 121.961 75.2573 121.366 74.9451C120.771 74.618 120.303 74.1646 119.961 73.5848C119.634 73.0051 119.471 72.351 119.471 71.6225C119.471 70.8941 119.634 70.24 119.961 69.6602C120.303 69.0804 120.771 68.627 121.366 68.3C121.961 67.9729 122.637 67.8094 123.395 67.8094C124.139 67.8094 124.807 67.9729 125.402 68.3C125.997 68.627 126.458 69.0804 126.785 69.6602C127.127 70.24 127.298 70.8941 127.298 71.6225C127.298 72.351 127.127 73.0051 126.785 73.5848C126.458 74.1646 125.997 74.618 125.402 74.9451C124.807 75.2573 124.139 75.4133 123.395 75.4133ZM123.395 73.4733C123.93 73.4733 124.369 73.3024 124.711 72.9605C125.068 72.6185 125.246 72.1726 125.246 71.6225C125.246 71.0725 125.068 70.6265 124.711 70.2846C124.369 69.9278 123.93 69.7494 123.395 69.7494C122.845 69.7494 122.399 69.9278 122.057 70.2846C121.73 70.6265 121.567 71.0725 121.567 71.6225C121.567 72.1726 121.73 72.6185 122.057 72.9605C122.399 73.3024 122.845 73.4733 123.395 73.4733Z" fill="#3B1F5F"/>
<path d="M99.2928 75.8298C96.7359 75.8298 94.7637 74.8586 93.3762 72.9161C91.9887 70.9736 91.2949 68.149 91.2949 64.4425C91.2949 60.7161 91.9887 57.8816 93.3762 55.9391C94.7637 53.9966 96.7359 53.0254 99.2928 53.0254C101.87 53.0254 103.842 53.9966 105.209 55.9391C106.597 57.8816 107.291 60.7161 107.291 64.4425C107.291 68.1689 106.597 71.0033 105.209 72.9458C103.842 74.8685 101.87 75.8298 99.2928 75.8298ZM99.2928 72.1728C100.581 72.1728 101.562 71.5187 102.236 70.2105C102.93 68.9023 103.277 66.9796 103.277 64.4425C103.277 61.8657 102.93 59.9232 102.236 58.615C101.562 57.3068 100.581 56.6527 99.2928 56.6527C98.0243 56.6527 97.0431 57.3167 96.3494 58.6447C95.6556 59.9529 95.3087 61.8855 95.3087 64.4425C95.3087 66.9796 95.6556 68.9023 96.3494 70.2105C97.0431 71.5187 98.0243 72.1728 99.2928 72.1728Z" fill="#3B1F5F"/>
<path d="M80.5894 53.0254C82.0958 53.0254 83.4436 53.3425 84.6329 53.9768C85.8222 54.6111 86.7538 55.4931 87.4277 56.623C88.1016 57.733 88.4386 59.0015 88.4386 60.4286C88.4386 61.3404 88.3494 62.1531 88.171 62.8667C87.9926 63.5604 87.7548 64.2145 87.4575 64.829C87.1601 65.4236 86.6745 66.3057 86.0006 67.4751L81.4516 75.4136H76.8431L81.6894 67.3859L81.6003 67.3265C80.9461 67.5643 80.2425 67.6832 79.4893 67.6832C78.2405 67.6832 77.0909 67.3859 76.0404 66.7913C75.0097 66.1966 74.1871 65.3542 73.5726 64.2641C72.978 63.1739 72.6807 61.9351 72.6807 60.5476C72.6807 59.0808 73.0176 57.7825 73.6916 56.6527C74.3655 55.5031 75.2971 54.6111 76.4864 53.9768C77.6955 53.3425 79.0631 53.0254 80.5894 53.0254ZM80.411 64.1451C81.6003 64.1451 82.5616 63.8082 83.295 63.1343C84.0482 62.4405 84.4248 61.5386 84.4248 60.4286C84.4248 59.279 84.0581 58.3474 83.3247 57.6338C82.6111 56.9203 81.6696 56.5635 80.5002 56.5635C79.3902 56.5635 78.4685 56.9203 77.7351 57.6338C77.0215 58.3474 76.6647 59.279 76.6647 60.4286C76.6647 61.5188 77.0116 62.4108 77.7054 63.1045C78.3991 63.7983 79.301 64.1451 80.411 64.1451Z" fill="#3B1F5F"/>
<ellipse cx="45.1251" cy="136.444" rx="45.1251" ry="44.7784" fill="#CCCAF4"/>
<ellipse cx="45.125" cy="136.445" rx="38.7344" ry="38.4368" fill="white" stroke="#3B1F5F" stroke-width="1.73872" stroke-linecap="round" stroke-linejoin="round" stroke-dasharray="0.04 3.68"/>
<path d="M44.484 131.543V142.568V131.543ZM49.9964 137.055H38.9717H49.9964Z" fill="white"/>
<path d="M44.484 131.543V142.568M49.9964 137.055H38.9717" stroke="#3B1F5F" stroke-width="1.73872" stroke-linecap="round" stroke-linejoin="round"/>
<g filter="url(#filter0_d_29_223)">
<path d="M342.669 131.544C342.669 191.016 294.457 239.228 234.984 239.228C175.512 239.228 127.3 191.016 127.3 131.544C127.3 72.0713 175.512 23.8594 234.984 23.8594C294.457 23.8594 342.669 72.0713 342.669 131.544Z" fill="url(#paint1_linear_29_223)"/>
<path d="M342.669 131.544C342.669 191.016 294.457 239.228 234.984 239.228C175.512 239.228 127.3 191.016 127.3 131.544C127.3 72.0713 175.512 23.8594 234.984 23.8594C294.457 23.8594 342.669 72.0713 342.669 131.544Z" stroke="white" stroke-width="1.73872"/>
</g>
<path fill-rule="evenodd" clip-rule="evenodd" d="M227.844 192.67L227.18 192.006C219.645 185.324 212.688 179.737 206.414 174.699C183.396 156.217 169.571 145.116 170.093 114.34C170.757 103.056 176.067 92.4346 185.361 85.7966C199.249 76.5374 215.131 77.6423 227.137 85.0957C230.625 87.2605 233.784 89.9609 236.474 93.0984C239.163 89.9609 242.323 87.2605 245.811 85.0957C257.816 77.6423 273.699 76.5374 287.587 85.7966C296.88 92.4346 302.854 103.056 302.854 114.34C303.373 144.928 289.721 156.08 266.957 174.676C260.573 179.891 253.472 185.691 245.767 192.67C240.456 197.317 233.155 197.317 227.844 192.67ZM243.098 137.144C247.066 134.849 249.736 130.559 249.736 125.645C249.736 118.312 243.792 112.368 236.46 112.368C229.127 112.368 223.183 118.312 223.183 125.645C223.183 130.559 225.853 134.849 229.822 137.144V162.154C229.822 165.82 232.793 168.792 236.46 168.792C240.126 168.792 243.098 165.82 243.098 162.154V137.144Z" fill="#3B1F5F"/>
<defs>
<filter id="filter0_d_29_223" x="121.214" y="19.5125" width="227.54" height="227.54" filterUnits="userSpaceOnUse" color-interpolation-filters="sRGB">
<feFlood flood-opacity="0" result="BackgroundImageFix"/>
<feColorMatrix in="SourceAlpha" type="matrix" values="0 0 0 0 0 0 0 0 0 0 0 0 0 0 0 0 0 0 127 0" result="hardAlpha"/>
<feOffset dy="1.73872"/>
<feGaussianBlur stdDeviation="2.60808"/>
<feComposite in2="hardAlpha" operator="out"/>
<feColorMatrix type="matrix" values="0 0 0 0 0 0 0 0 0 0 0 0 0 0 0 0 0 0 0.1 0"/>
<feBlend mode="normal" in2="BackgroundImageFix" result="effect1_dropShadow_29_223"/>
<feBlend mode="normal" in="SourceGraphic" in2="effect1_dropShadow_29_223" result="shape"/>
</filter>
<linearGradient id="paint0_linear_29_223" x1="98.2814" y1="0" x2="98.2814" y2="126.375" gradientUnits="userSpaceOnUse">
<stop stop-color="#CCCAF4"/>
<stop offset="1" stop-color="#CCCAF4"/>
</linearGradient>
<linearGradient id="paint1_linear_29_223" x1="234.984" y1="23.8594" x2="234.984" y2="239.228" gradientUnits="userSpaceOnUse">
<stop stop-color="#FEFEFE"/>
<stop offset="1" stop-color="#CECCF7"/>
</linearGradient>
</defs>
</svg>
