<svg width="491" height="485" viewBox="0 0 491 485" fill="none" xmlns="http://www.w3.org/2000/svg">
<path d="M55.8412 96.9612C54.3126 97.3808 53.4733 98.9195 53.8729 100.378C54.0128 100.908 54.3226 101.327 54.6623 101.667C49.8165 108.381 45.3004 115.385 41.1141 122.669C36.5481 130.632 32.4217 138.845 28.8248 147.157C27.7857 146.818 26.6367 146.748 25.5177 147.057C22.5303 147.867 20.7319 150.994 21.5412 153.971C21.9908 155.61 23.1598 156.919 24.6085 157.588C18.8336 172.905 14.6272 188.671 12.1094 204.657L10.1412 200.421L8.08295 206.755L1.6086 205.187L5.25542 210.722L0 214.788L6.64421 215.368L6.55427 221.982L10.3809 217.995C8.72238 235.011 8.87225 252.226 10.9005 269.371C9.46174 269.89 8.50258 271.219 8.43264 272.798C8.40266 274.756 9.90136 276.355 11.8397 276.514C13.2185 285.736 15.1568 294.938 17.6546 304.11C20.3422 313.982 23.6394 323.563 27.4261 332.825C26.5368 333.505 26.0373 334.644 26.347 335.813C26.7267 337.211 28.1554 338.081 29.5442 337.831C35.8787 352.298 43.6319 365.996 52.644 378.725C51.1353 380.144 50.4559 382.272 51.0154 384.31C51.8247 387.288 54.952 389.076 57.9494 388.257C58.419 388.127 58.8686 387.947 59.3082 387.697C66.2921 396.709 73.9554 405.172 82.2182 413.085C81.8185 413.695 81.5688 414.394 81.5188 415.153C81.4988 417.162 83.1574 418.85 85.1756 418.86C86.0648 418.86 86.8641 418.59 87.5335 418.031C98.9835 428.402 111.523 437.664 125.061 445.767L127.948 449.433L123.063 453.899L129.697 453.979L130.166 460.564L134.363 455.408L139.858 459.185L138.559 453.26C155.564 462.052 173.309 468.707 191.523 473.163L191.583 473.392C191.992 474.911 193.541 475.74 195.01 475.341C195.659 475.161 196.119 474.791 196.488 474.312C217.27 478.938 238.542 480.746 259.913 479.687L260.103 480.386C260.912 483.364 264.039 485.152 267.037 484.333C269.555 483.643 271.203 481.375 271.213 478.868C284.771 477.559 298.319 475.061 311.748 471.404C331.74 465.959 350.634 458.116 368.168 448.075C368.808 448.594 369.587 448.884 370.466 448.894C372.485 448.904 374.173 447.255 374.193 445.247C374.133 445.017 374.193 444.807 374.133 444.578C390.439 434.616 405.526 422.727 418.954 409.159L423.11 407.08L426.537 412.735L427.926 406.271L434.51 407.11L430.284 401.985L435.07 397.359L429.815 397.469C439.986 385.789 449.038 373.03 456.901 359.352C458.52 356.525 460.118 353.587 461.607 350.73C462.666 351.129 463.885 351.239 465.114 350.899C468.101 350.09 469.9 346.963 469.09 343.985C468.691 342.527 467.751 341.398 466.543 340.658C476.384 319.467 482.988 297.216 486.305 274.486C486.365 274.466 486.425 274.456 486.555 274.486C488.573 274.506 490.262 272.848 490.282 270.839C490.282 269.021 488.993 267.492 487.264 267.143C489.413 247.989 489.233 228.586 486.615 209.283L486.795 209.233C489.782 208.424 491.581 205.297 490.771 202.319C490.052 199.691 487.574 197.983 484.926 198.203C483.698 191.389 482.159 184.585 480.33 177.871C478.052 169.518 475.345 161.415 472.238 153.472C473.257 152.822 473.866 151.583 473.526 150.365C473.127 148.906 471.638 148.057 470.219 148.376C463.315 131.811 454.593 116.184 444.312 101.787L450.616 102.267L446.14 97.4008L450.666 92.5251L444.062 93.0047L443.093 86.4304L439.296 91.9156L434.82 89.3678C420.792 72.2927 404.337 57.1959 385.813 44.4271C386.343 43.5978 386.552 42.5288 386.273 41.4797C385.733 39.4914 383.715 38.3424 381.727 38.8919C380.847 39.1317 380.168 39.6313 379.658 40.3307C375.982 37.9427 372.215 35.6448 368.338 33.4367C350.604 23.3355 331.94 15.6223 312.747 10.3668C312.947 9.4976 312.947 8.55842 312.697 7.61924C311.888 4.64184 308.76 2.85339 305.763 3.67268C303.775 4.21221 302.316 5.80082 301.806 7.63921C282.563 3.34297 262.84 1.43464 243.108 2.04411C242.708 0.585383 241.149 -0.303837 239.681 0.0958139C238.622 0.385561 237.862 1.28477 237.692 2.2739C220.557 3.17312 203.422 5.90074 186.477 10.5067C179.973 12.2752 173.598 14.3234 167.354 16.5914L170.041 11.2161L163.807 13.5441L160.979 7.53931L158.921 13.8738L152.447 12.3151L156.094 17.8503L150.838 21.9168L153.366 22.1665C137.55 29.0505 122.613 37.5731 108.775 47.5544C107.886 46.6052 106.527 46.2255 105.178 46.5852C103.19 47.1247 102.031 49.133 102.57 51.1212C102.65 51.411 102.73 51.7007 102.91 51.9106C86.0948 64.8393 71.0879 80.026 58.1292 97.171C57.5298 96.8313 56.7504 96.7314 56.051 96.9212L55.8213 96.9812L55.8412 96.9612ZM58.9485 98.1901C71.6774 81.3548 86.6743 66.1081 103.629 53.0196C104.529 53.7789 105.748 54.0787 106.977 53.7389C108.965 53.1994 110.124 51.1912 109.584 49.2029L109.444 48.6734C123.692 38.3324 139.238 29.5201 155.954 22.4563L157.373 22.5762L157.283 29.1904L161.899 24.4146L167.064 28.5909L166.155 21.9967L172.639 20.6079L167.833 17.7704C173.958 15.5323 180.233 13.574 186.617 11.8356C203.612 7.2096 220.657 4.5719 237.602 3.66269C238.002 5.12142 239.571 6.01064 241.029 5.61099C242.089 5.32124 242.868 4.48198 243.018 3.4329C262.9 2.91335 282.523 4.9116 301.497 9.15789C301.497 9.65746 301.517 10.157 301.657 10.6866C302.466 13.664 305.593 15.4524 308.59 14.6331C310.169 14.2035 311.388 13.1144 312.097 11.7956C335.847 18.3199 358.377 28.4311 378.919 41.6595C378.769 42.269 378.749 42.8984 378.919 43.5379C379.459 45.5261 381.477 46.6751 383.465 46.1256C383.935 45.9957 384.314 45.7659 384.694 45.5361C403.128 58.2051 419.753 73.4517 434.081 90.9365L435.34 95.1128L429.145 97.5507L435.35 99.9986L433.351 106.313L439.136 103.046L442.903 108.541L443.692 103.555C453.684 117.583 462.246 132.82 469.02 149.176C468.191 149.835 467.741 150.964 468.051 152.073C468.421 153.412 469.66 154.271 471.009 154.151C474.096 162.034 476.814 170.137 479.082 178.49C480.93 185.264 482.449 192.008 483.658 198.762C480.76 199.681 479.062 202.709 479.861 205.636C480.54 208.144 482.818 209.783 485.336 209.793C487.924 229.226 488.034 248.589 485.876 267.492C484.207 267.822 482.908 269.301 482.878 271.069C482.838 272.528 483.688 273.797 484.976 274.386C481.649 297.316 474.975 319.527 465.344 340.339C464.374 340.039 463.305 340.019 462.186 340.319C459.199 341.128 457.4 344.255 458.21 347.233C458.579 348.581 459.359 349.621 460.378 350.34C451.606 367.155 440.855 382.951 428.326 397.279L427.746 391.224L423.7 396.47L418.115 392.843L419.673 399.257L413.379 401.345L419.414 404.093L417.755 408.629C404.617 421.867 389.8 433.617 373.614 443.548C372.944 442.479 371.815 441.78 370.486 441.77C368.468 441.75 366.78 443.409 366.76 445.417C366.76 446.106 366.93 446.746 367.289 447.345C350.074 457.177 331.421 465.02 311.438 470.465C298.01 474.122 284.512 476.54 271.063 477.819L271.013 477.639C270.204 474.661 267.077 472.873 264.079 473.692C261.731 474.332 260.193 476.32 259.933 478.588C238.562 479.637 217.45 477.729 197.068 473.183C197.088 472.803 197.108 472.413 197.018 472.064C196.608 470.545 195.06 469.716 193.591 470.115C192.652 470.375 191.962 471.064 191.683 471.894C173.598 467.468 156.204 460.913 139.798 452.461L144.853 450.892L138.899 447.995L141.367 441.8L135.342 444.638L132.015 438.893L130.496 445.327L125.69 444.568C112.442 436.635 99.9827 427.413 88.5327 417.042C88.8324 416.522 88.9823 415.913 89.0023 415.283C89.0222 413.265 87.3637 411.586 85.3455 411.576C84.5961 411.596 83.8867 411.786 83.2973 412.136C75.1244 404.323 67.531 395.85 60.4772 386.848C61.9259 385.449 62.5554 383.391 62.0058 381.353C61.1965 378.375 58.0693 376.587 55.0719 377.406C54.6023 377.536 54.1927 377.646 53.833 377.936C44.9308 365.367 37.2075 351.789 30.8131 337.331C31.7023 336.652 32.2019 335.513 31.8921 334.344C31.5125 332.945 30.1337 332.066 28.6949 332.326C24.8683 323.144 21.6411 313.602 18.9534 303.731C16.4756 294.619 14.5473 285.477 13.1985 276.375C14.7771 275.945 15.9061 274.506 15.9561 272.868C15.976 270.859 14.3175 269.171 12.2993 269.161C10.2311 251.846 10.1511 234.671 11.8996 217.756L16.4257 221.413L15.5164 214.818L22.0008 213.43L16.2858 210.032L19.2632 204.078L13.3883 206.306C15.9261 189.74 20.1424 173.534 26.0473 157.998C26.8466 158.158 27.7158 158.108 28.5351 157.888C31.5225 157.079 33.3209 153.951 32.5116 150.974C32.1319 149.575 31.2727 148.486 30.1737 147.717C37.0876 131.721 45.7101 116.444 55.9611 102.297C56.4307 102.416 56.9403 102.406 57.3999 102.277C58.9285 101.857 59.7578 100.318 59.3681 98.8595C59.2882 98.5698 59.2283 98.33 59.0484 98.1302L58.9285 98.1602L58.9485 98.1901Z" fill="url(#paint0_linear_29_2455)"/>
<defs>
<linearGradient id="paint0_linear_29_2455" x1="-42556.6" y1="-9146.64" x2="106557" y2="23414.2" gradientUnits="userSpaceOnUse">
<stop stop-color="#8A6CFF"/>
</linearGradient>
</defs>
</svg>
