<svg width="99" height="63" viewBox="0 0 99 63" fill="none" xmlns="http://www.w3.org/2000/svg">
<g clip-path="url(#clip0_29_2643)">
<path d="M98.577 9.90906C91.1159 9.90906 85.0674 15.9476 85.0674 23.3976V42.0516C85.0188 46.1113 81.7033 49.3949 77.6354 49.3949C73.5674 49.3949 70.2713 46.1259 70.2034 42.0904C70.2034 42.0516 70.1985 42.008 70.1985 41.9692V30.6293L70.1451 29.31C69.8684 25.2746 68.4121 21.5205 66.0821 18.3776C65.2956 17.3251 64.4122 16.3502 63.4461 15.4626C63.184 15.2249 62.9219 14.9921 62.6549 14.769C62.519 14.6526 62.3782 14.541 62.2374 14.4246L62.1015 14.3179C62.0627 14.2888 62.019 14.2549 61.9801 14.2258C61.917 14.1773 61.8442 14.1239 61.7617 14.0657C61.5093 13.8766 61.2617 13.6971 61.0044 13.5225C59.4899 12.4797 57.9025 11.6745 56.2763 11.0974C56.0676 11.0198 55.854 10.947 55.6355 10.8791C53.2278 10.1079 50.7472 9.81205 48.3055 9.94786C48.1453 9.95271 47.9899 9.96241 47.8298 9.97696C43.6696 10.2971 39.6551 11.8443 36.3541 14.381C36.2813 14.4343 36.2133 14.4877 36.1454 14.5459C36.0434 14.6283 35.9415 14.7108 35.8395 14.7933C35.4075 15.1522 34.7862 15.1376 34.3541 14.7787C34.3541 14.7787 34.3493 14.7787 34.3493 14.7739C34.2133 14.6574 34.0726 14.5459 33.9318 14.4295L33.7959 14.3228C33.757 14.2937 33.7134 14.2597 33.6745 14.2306C33.6114 14.1821 33.5386 14.1288 33.4561 14.0706C31.7182 12.761 29.8687 11.7764 27.9707 11.1022C27.7619 11.0246 27.5483 10.9519 27.3299 10.884C24.9222 10.1128 22.4416 9.8169 19.9999 9.95271C19.8397 9.95756 19.6843 9.96726 19.5241 9.98181C15.364 10.3019 11.3494 11.8492 8.04849 14.3858C7.97567 14.4392 7.90771 14.4925 7.83975 14.5507C3.42716 18.009 0.354366 23.2715 0.029126 29.6981C0.00970867 30.0715 0 30.4499 0 30.8282V62.8883C0.446599 62.8883 0.893197 62.8689 1.33009 62.8253C7.71354 62.1996 12.7912 57.1456 13.4368 50.7772C13.4853 50.3262 13.5048 49.8654 13.5048 49.3998V30.7457C13.5533 26.6861 16.8688 23.4024 20.9367 23.4024C24.7522 23.4024 27.8979 26.2883 28.3202 29.9842C28.3493 30.2607 28.3736 30.542 28.3736 30.8282V49.3173C28.3736 50.1661 28.8153 50.9567 29.5338 51.4029L33.791 54.0512C34.5823 54.541 35.5871 54.5459 36.3832 54.0609L40.6453 51.4466C41.3541 51.01 41.8055 50.2437 41.8055 49.4143V30.7409C41.8055 30.4984 41.8249 30.2655 41.8492 30.0376C42.2424 26.3126 45.4026 23.3976 49.2375 23.3976C53.3006 23.3976 56.6015 26.6667 56.6695 30.7021C56.6695 30.7409 56.6743 30.7845 56.6743 30.8233V42.1632L56.7277 43.4873C56.9316 46.4654 57.7811 49.2882 59.1501 51.8297C59.6355 52.7319 60.184 53.6001 60.7957 54.4198C61.5821 55.4723 62.4656 56.4472 63.4316 57.3348C63.6937 57.5724 63.9559 57.8052 64.2228 58.0284C64.3588 58.1448 64.4995 58.2563 64.6403 58.3727L64.7762 58.4794C64.8151 58.5085 64.8588 58.5425 64.8976 58.5716C64.9607 58.6201 65.0335 58.6734 65.116 58.7316C65.3685 58.9208 65.616 59.1003 65.8733 59.2749C66.4752 59.6871 67.0869 60.0558 67.7082 60.3953C68.6548 60.9094 69.616 61.3556 70.6014 61.7048C70.8102 61.7824 71.0238 61.8552 71.2422 61.9231C73.65 62.6943 76.1305 62.9902 78.5723 62.8544C78.7324 62.8495 78.8878 62.8398 79.048 62.8253C81.1353 62.6652 83.179 62.1996 85.1207 61.4478C87.0528 60.7008 88.878 59.6871 90.5188 58.4212C90.5916 58.3679 90.6595 58.3145 90.7275 58.2563C93.5867 56.001 95.8779 52.9938 97.2275 49.4046C97.9605 47.4645 98.4168 45.3498 98.5284 43.0944C98.5478 42.721 98.5575 42.3427 98.5575 41.9643V9.90906H98.5721H98.577Z" fill="url(#paint0_linear_29_2643)" fill-opacity="0.8"/>
<path d="M19.9998 9.93331C22.4416 9.80235 24.9221 10.0934 27.3299 10.8646C27.5483 10.9325 27.7619 11.0052 27.9706 11.0828C29.8735 11.757 31.7182 12.7416 33.456 14.0512C33.5386 14.1094 33.6065 14.1627 33.6745 14.2112C33.7182 14.2403 33.757 14.2743 33.7958 14.3034L33.9318 14.4101C34.0725 14.5265 34.2133 14.6381 34.3492 14.7545L34.3541 14.7593C34.7861 15.1231 35.4075 15.1328 35.8395 14.7739C35.9415 14.6914 36.0434 14.6089 36.1453 14.5265C36.2182 14.4683 36.2861 14.4101 36.3541 14.3616C39.6502 11.8249 43.6647 10.2777 47.8297 9.95756C47.9899 9.94301 48.1501 9.93816 48.3055 9.92846C50.7472 9.7975 53.2277 10.0885 55.6355 10.8597C55.8539 10.9276 56.0675 11.0004 56.2763 11.078C57.9025 11.6551 59.4898 12.4651 61.0044 13.5031C61.2568 13.6777 61.5092 13.8572 61.7617 14.0463C61.8442 14.1045 61.9121 14.1579 61.9801 14.2064C62.0189 14.2355 62.0626 14.2694 62.1015 14.2985L62.2374 14.4052C62.3782 14.5216 62.5189 14.6332 62.6549 14.7496C62.9218 14.9776 63.184 15.2055 63.4461 15.4432C64.4121 16.3308 65.2956 17.3057 66.082 18.3582C66.082 18.363 66.0917 18.3679 66.0917 18.3727C65.9024 18.203 65.7082 18.0332 65.5141 17.8683C65.3733 17.7519 65.2277 17.6355 65.0869 17.5142L64.9461 17.4027C64.9024 17.3687 64.8636 17.3348 64.8199 17.3057C64.7519 17.2572 64.6791 17.199 64.5966 17.1408C64.3393 16.9468 64.082 16.7625 63.8199 16.583C62.2665 15.5111 60.6355 14.6866 58.9656 14.09C58.7471 14.0124 58.5287 13.9348 58.3054 13.8669C55.8345 13.0714 53.286 12.7707 50.7812 12.9065C50.621 12.9114 50.4559 12.9211 50.2909 12.9356C46.0191 13.2606 41.8929 14.8515 38.5094 17.456C38.4366 17.5094 38.3686 17.5676 38.291 17.6258C38.1842 17.7083 38.0822 17.7956 37.9754 17.878C37.5288 18.2466 36.8929 18.2321 36.4512 17.8635C36.4512 17.8635 36.4463 17.8635 36.4463 17.8586C36.3055 17.7422 36.1599 17.6258 36.0191 17.5045L35.8784 17.393C35.8347 17.359 35.7958 17.3251 35.7521 17.296C35.6842 17.2475 35.6114 17.1893 35.5288 17.1311C33.7473 15.7827 31.8493 14.7739 29.893 14.0851C29.6745 14.0075 29.4561 13.9299 29.2328 13.8572C26.7619 13.0617 24.2134 12.761 21.7086 12.8968C21.5484 12.9017 21.3833 12.9114 21.2183 12.9259C16.9465 13.2509 12.8203 14.8418 9.4368 17.4463C9.36398 17.4997 9.29602 17.5579 9.22321 17.6161C4.68926 21.1859 1.53394 26.5891 1.19899 33.1902C1.17472 33.5734 1.16501 33.9614 1.16501 34.3543V62.8059C0.781519 62.8398 0.388318 62.8543 -0.00488281 62.8543V30.8282C-0.00488281 30.4499 0.00482586 30.0715 0.0242432 29.6981C0.344629 23.2715 3.42228 18.009 7.83487 14.5313C7.90283 14.4731 7.97079 14.4149 8.0436 14.3664C11.3397 11.8298 15.3542 10.2825 19.5192 9.96241C19.6794 9.94786 19.8396 9.94301 19.995 9.93331H19.9998ZM56.1889 28.1896C58.0869 29.5526 59.3296 31.7643 59.3733 34.2621C59.3733 34.3058 59.3782 34.3446 59.3782 34.3883V46.0385L59.4316 47.3966C59.6306 50.2971 60.4267 53.0569 61.7083 55.5644C61.3927 55.1958 61.0869 54.8223 60.8005 54.4343C60.1889 53.6098 59.6403 52.7464 59.1549 51.8443C57.786 49.3028 56.9365 46.4799 56.7326 43.5019L56.6792 42.1777V30.8379C56.6792 30.7991 56.6743 30.7554 56.6743 30.7166C56.6598 29.8339 56.4899 28.9851 56.1889 28.1993V28.1896ZM98.5672 13.44C92.776 15.1037 88.5382 20.4389 88.5382 26.754V45.9221C88.4896 50.0837 85.0867 53.4546 80.9023 53.4546C77.5285 53.4546 74.6742 51.2671 73.6645 48.2454C74.815 48.9729 76.1742 49.3949 77.6402 49.3949C81.713 49.3949 85.0285 46.1113 85.0722 42.0613V23.3976C85.0722 22.413 85.179 21.4526 85.378 20.5262C85.9217 20.2498 86.5236 19.9782 87.2032 19.6969C86.6887 19.4834 86.2178 19.2749 85.7809 19.0663C86.611 16.617 88.1256 14.4877 90.0964 12.8968C90.145 13.0084 90.1935 13.1199 90.242 13.2363C90.3391 12.9987 90.4411 12.7707 90.5381 12.5573C92.7809 10.8937 95.5624 9.90906 98.5721 9.90421V13.4352L98.5672 13.44ZM28.1697 29.0966C29.3056 30.2752 30.0677 31.8128 30.2619 33.5201C30.2959 33.8062 30.3153 34.0924 30.3153 34.3883V51.8879L29.5434 51.4078C28.8202 50.9615 28.3833 50.171 28.3833 49.3222V30.833C28.3833 30.5469 28.3638 30.2655 28.3299 29.9891C28.2959 29.6884 28.2425 29.3925 28.1745 29.1015L28.1697 29.0966Z" fill="url(#paint1_linear_29_2643)"/>
<path d="M98.5673 13.5177C91.5334 14.1919 86.0383 20.1092 86.0383 27.3069V46.4751C85.9897 50.6366 82.5868 54.0075 78.4024 54.0075C74.2228 54.0075 70.8394 50.6512 70.7714 46.5042C70.7714 46.4654 70.7665 46.4217 70.7665 46.3781V44.7969C71.8782 47.4888 74.5335 49.3901 77.6354 49.3901C81.7082 49.3901 85.0237 46.1065 85.0674 42.0565V23.3928C85.0674 15.9476 91.1111 9.90909 98.5673 9.90424V13.5128V13.5177ZM41.757 49.9091C41.7231 50.0643 41.6745 50.2146 41.6114 50.3601V50.0497L41.757 49.9091ZM56.6793 33.2242C56.7958 33.7383 56.8637 34.267 56.8734 34.8151C56.8734 34.8539 56.8783 34.8976 56.8783 34.9412V44.9133C56.8152 44.4477 56.7618 43.9724 56.7327 43.497L56.6793 42.1729V33.2291V33.2242ZM48.3104 9.93819C50.7521 9.80723 53.2327 10.0982 55.6404 10.8694C55.8589 10.9373 56.0725 11.0101 56.2812 11.0877C57.9074 11.6649 59.4948 12.4749 61.0093 13.5128C61.2618 13.6874 61.5142 13.8669 61.7666 14.056C61.8491 14.1142 61.9171 14.1676 61.9851 14.2161C62.0239 14.2452 62.0676 14.2792 62.1064 14.3083L62.2423 14.415C62.3831 14.5314 62.5239 14.6429 62.6598 14.7593C62.9268 14.9873 63.1889 15.2153 63.4511 15.4529C64.4171 16.3405 65.3006 17.3154 66.087 18.3679C68.417 21.5109 69.8733 25.265 70.15 29.3004L70.1743 29.8679C69.4947 27.0547 68.2472 24.4404 66.5384 22.1414C65.7326 21.0598 64.82 20.0607 63.8297 19.1488C63.5627 18.9063 63.2909 18.6638 63.019 18.4358C62.8783 18.3194 62.7326 18.203 62.5919 18.0818L62.4511 17.9702C62.4122 17.9362 62.3685 17.9023 62.3249 17.8732C62.2569 17.8247 62.1841 17.7665 62.1016 17.7083C61.8443 17.5143 61.587 17.33 61.3249 17.1505C59.7715 16.0786 58.1404 15.2541 56.4705 14.6575C56.2521 14.5799 56.0336 14.5023 55.8103 14.4295C53.3395 13.6341 50.791 13.3334 48.2861 13.4692C48.1259 13.474 47.9609 13.4837 47.7958 13.4983C43.9124 13.7941 40.1551 15.1328 36.961 17.33L34.7183 14.9582C35.092 15.094 35.5241 15.0358 35.8445 14.7642C35.9464 14.6817 36.0484 14.5993 36.1503 14.5168C36.2231 14.4586 36.2911 14.4004 36.359 14.3519C39.6551 11.8152 43.6697 10.268 47.8347 9.94789C47.9949 9.93334 48.1551 9.92849 48.3104 9.91879V9.93819Z" fill="url(#paint2_linear_29_2643)"/>
<path d="M49.1016 19.7987C53.2715 19.7987 56.6647 23.1551 56.7326 27.302C56.7326 27.3408 56.7375 27.3845 56.7375 27.4233V39.0736L56.7909 40.4316C56.9996 43.4873 57.8734 46.3926 59.2763 49.002C59.7763 49.9284 60.3394 50.816 60.9656 51.6648C61.7714 52.7464 62.684 53.7456 63.6743 54.6574C63.9413 54.8999 64.2132 55.1424 64.485 55.3704C64.6258 55.4868 64.7714 55.6032 64.9122 55.7245L65.053 55.836C65.0967 55.87 65.1355 55.9039 65.1792 55.933C65.2471 55.9815 65.32 56.0397 65.4025 56.0979C65.6598 56.2919 65.917 56.4763 66.1792 56.6557C66.7957 57.0825 67.4267 57.456 68.0627 57.8052C69.0335 58.3339 70.0238 58.7898 71.0335 59.1487C71.252 59.2263 71.4704 59.3039 71.6937 59.3719C74.1646 60.1673 76.7131 60.468 79.2179 60.3322C79.3781 60.3273 79.5432 60.3176 79.7082 60.3031C81.849 60.1382 83.9509 59.658 85.946 58.8917C87.9314 58.1253 89.8052 57.0825 91.4897 55.7827C91.5625 55.7293 91.6304 55.6711 91.7033 55.6129C94.1498 53.6874 96.1887 51.2186 97.6013 48.323C97.4848 48.6965 97.3586 49.0602 97.2226 49.424C95.8731 53.0132 93.5819 56.0252 90.7227 58.2757C90.6547 58.3339 90.5868 58.3921 90.514 58.4406C88.8683 59.7065 87.048 60.7202 85.1159 61.4672C83.1742 62.2141 81.1305 62.6797 79.0432 62.8446C78.883 62.8592 78.7228 62.864 78.5674 62.8737C76.1257 63.0047 73.6451 62.7137 71.2374 61.9425C71.0189 61.8746 70.8053 61.8018 70.5966 61.7242C69.616 61.375 68.65 60.9336 67.7034 60.4147C67.0821 60.0751 66.4704 59.7114 65.8685 59.2942C65.6161 59.1196 65.3636 58.9402 65.1112 58.751C65.0287 58.6928 64.9607 58.6395 64.8928 58.591C64.8491 58.5619 64.8102 58.5279 64.7714 58.4988L64.6355 58.3921C64.4947 58.2757 64.3539 58.1641 64.218 58.0477C63.951 57.8198 63.6889 57.5918 63.4268 57.3541C62.4608 56.4666 61.5773 55.4917 60.7909 54.4391C60.1792 53.6146 59.6307 52.7513 59.1452 51.8491C57.7763 49.3076 56.9268 46.4847 56.7229 43.5067L56.6695 42.1826V30.8427C56.6695 30.8039 56.6647 30.7602 56.6647 30.7214C56.6016 26.686 53.2958 23.417 49.2327 23.417C45.3978 23.417 42.2376 26.332 41.8444 30.057C41.8201 30.2849 41.8007 30.5177 41.8007 30.7505V49.4288C41.8007 50.2582 41.3492 51.0294 40.6405 51.4611L36.3784 54.0754C35.5823 54.5604 34.5774 54.5556 33.7862 54.0657L29.5289 51.4174C28.8056 50.9712 28.3688 50.1806 28.3688 49.3318V48.1775C28.5144 48.3278 28.6746 48.4588 28.8542 48.5704L33.2279 51.2913C34.0435 51.7958 35.0726 51.8006 35.8881 51.301L40.2667 48.614C40.9949 48.1678 41.4609 47.3772 41.4609 46.5235V27.3408C41.4609 27.0983 41.4803 26.8606 41.5046 26.6278C41.9075 22.801 45.155 19.8084 49.0968 19.8084L49.1016 19.7987ZM20.0339 19.7987C23.9513 19.7987 27.1843 22.7622 27.6163 26.5599C27.6503 26.8461 27.6697 27.1323 27.6697 27.4281V27.6852C26.4804 25.1582 23.9125 23.4073 20.9416 23.4073C16.8688 23.4073 13.5533 26.6909 13.5096 30.7408V49.4046C13.5096 49.8702 13.4902 50.331 13.4417 50.7821C12.7961 57.1456 7.71842 62.2044 1.33497 62.8301C0.89808 62.8737 0.451482 62.8931 0.00488281 62.8931V60.2788C6.50969 59.5901 11.6747 54.4197 12.3349 47.9156C12.3834 47.4499 12.4029 46.9795 12.4029 46.5041V27.336C12.4514 23.1745 15.8543 19.8035 20.0387 19.8035L20.0339 19.7987ZM85.9412 18.6104C85.9072 19.0032 85.8926 19.3961 85.8926 19.7938V38.962C85.8781 40.1746 85.5771 41.3241 85.0577 42.3378C85.0577 42.2456 85.0625 42.1535 85.0674 42.0613V23.3976C85.0674 21.7097 85.3781 20.0946 85.946 18.6055L85.9412 18.6104Z" fill="url(#paint3_radial_29_2643)"/>
<path d="M49.2715 19.1682C53.6161 19.1682 57.155 22.6652 57.2229 26.9868C57.2229 27.0304 57.2278 27.0741 57.2278 27.1177V39.2531L57.286 40.6693C57.5045 43.8559 58.4122 46.8777 59.8782 49.5986C60.3977 50.5638 60.985 51.4902 61.6404 52.373C62.4802 53.5031 63.4316 54.541 64.4656 55.4917C64.7423 55.7488 65.0238 55.9961 65.3102 56.2338C65.4559 56.355 65.6064 56.4763 65.7568 56.6024L65.9025 56.7188C65.9462 56.7528 65.9898 56.7867 66.0335 56.8158C66.1015 56.8692 66.1792 56.9274 66.2665 56.9856C66.5335 57.1893 66.8054 57.3784 67.0772 57.5676C67.718 58.009 68.3782 58.4018 69.0432 58.7656C70.0529 59.3185 71.0869 59.789 72.1354 60.1673C72.3587 60.2498 72.5869 60.3274 72.8199 60.4001C75.3927 61.2295 78.0529 61.5399 80.6645 61.3993C80.8344 61.3944 81.0043 61.3847 81.1742 61.3702C83.4072 61.2004 85.5965 60.7009 87.6742 59.8957C88.4266 59.6047 89.1644 59.2749 89.8829 58.9111C88.412 59.9539 86.8149 60.8124 85.1305 61.4575C83.1888 62.2044 81.1451 62.6701 79.0577 62.835C78.8975 62.8495 78.7373 62.8544 78.582 62.8641C76.1403 62.995 73.6597 62.704 71.2519 61.9328C71.0335 61.8649 70.8199 61.7922 70.6112 61.7146C69.6306 61.3653 68.6646 60.924 67.718 60.405C67.0966 60.0655 66.485 59.7017 65.8831 59.2846C65.6306 59.11 65.3782 58.9305 65.1258 58.7414C65.0433 58.6832 64.9753 58.6298 64.9073 58.5813C64.8636 58.5522 64.8248 58.5182 64.786 58.4891L64.65 58.3824C64.5093 58.266 64.3685 58.1545 64.2326 58.0381C63.9656 57.8101 63.7035 57.5822 63.4413 57.3445C62.4753 56.4569 61.5918 55.482 60.8054 54.4295C60.1938 53.6049 59.6452 52.7416 59.1598 51.8395C57.7909 49.2979 56.9414 46.4751 56.7375 43.497L56.6841 42.1729V30.833C56.6841 30.7942 56.6792 30.7506 56.6792 30.7118C56.6161 26.6764 53.3103 23.4073 49.2472 23.4073C45.4123 23.4073 42.2522 26.3223 41.859 30.0473C41.8347 30.2753 41.8153 30.5081 41.8153 30.7409V49.4192C41.8153 50.2486 41.3638 51.0198 40.6551 51.4514L36.393 54.0657C35.5969 54.5507 34.592 54.5459 33.8008 54.056L29.5435 51.4078C28.8202 50.9616 28.3833 50.171 28.3833 49.3222V49.2591L32.7425 51.9753C33.592 52.4991 34.6648 52.5039 35.5143 51.985L40.0774 49.1864C40.8347 48.7207 41.3201 47.9011 41.3201 47.0086V27.0207C41.3201 26.7685 41.3395 26.5212 41.3687 26.2787C41.791 22.2918 45.1745 19.173 49.2764 19.173L49.2715 19.1682ZM18.9805 19.173C23.063 19.173 26.4319 22.2578 26.8833 26.2156C26.8882 26.2787 26.8979 26.3417 26.9027 26.4048C25.5484 24.5859 23.3785 23.4073 20.9416 23.4073C16.8688 23.4073 13.5533 26.6909 13.5096 30.7409V49.4046C13.5096 49.8703 13.4902 50.331 13.4417 50.7821C12.7961 57.1456 7.71842 62.2044 1.33497 62.8301C0.89808 62.8738 0.451482 62.8932 0.00488281 62.8932V61.021C5.87377 59.595 10.3349 54.5992 10.9611 48.4685C11.0097 47.9835 11.0339 47.4936 11.0339 46.9941V27.0207C11.0825 22.6846 14.631 19.1682 18.9902 19.1682L18.9805 19.173ZM88.3538 14.5799C87.8732 16.0204 87.611 17.5628 87.611 19.1633V39.1367C87.5819 41.8334 86.1984 44.21 84.1111 45.6214C84.7082 44.5689 85.0577 43.3515 85.0722 42.0565V23.3928C85.0722 20.0218 86.3101 16.9419 88.3586 14.575L88.3538 14.5799Z" fill="url(#paint4_radial_29_2643)"/>
<path d="M98.577 9.90906C91.1159 9.90906 85.0674 15.9476 85.0674 23.3976V42.0516C85.0188 46.1113 81.7033 49.3949 77.6354 49.3949C73.5674 49.3949 70.2713 46.1259 70.2034 42.0904C70.2034 42.0516 70.1985 42.008 70.1985 41.9692V30.6293L70.1451 29.31C69.8684 25.2746 68.4121 21.5205 66.0821 18.3776C65.2956 17.3251 64.4122 16.3502 63.4461 15.4626C63.184 15.2249 62.9219 14.9921 62.6549 14.769C62.519 14.6526 62.3782 14.541 62.2374 14.4246L62.1015 14.3179C62.0627 14.2888 62.019 14.2549 61.9801 14.2258C61.917 14.1773 61.8442 14.1239 61.7617 14.0657C61.5093 13.8766 61.2617 13.6971 61.0044 13.5225C59.4899 12.4797 57.9025 11.6745 56.2763 11.0974C56.0676 11.0198 55.854 10.947 55.6355 10.8791C53.2278 10.1079 50.7472 9.81205 48.3055 9.94786C48.1453 9.95271 47.9899 9.96241 47.8298 9.97696C43.6696 10.2971 39.6551 11.8443 36.3541 14.381C36.2813 14.4343 36.2133 14.4877 36.1454 14.5459C36.0434 14.6283 35.9415 14.7108 35.8395 14.7933C35.4075 15.1522 34.7862 15.1376 34.3541 14.7787C34.3541 14.7787 34.3493 14.7787 34.3493 14.7739C34.2133 14.6574 34.0726 14.5459 33.9318 14.4295L33.7959 14.3228C33.757 14.2937 33.7134 14.2597 33.6745 14.2306C33.6114 14.1821 33.5386 14.1288 33.4561 14.0706C31.7182 12.761 29.8687 11.7764 27.9707 11.1022C27.7619 11.0246 27.5483 10.9519 27.3299 10.884C24.9222 10.1128 22.4416 9.8169 19.9999 9.95271C19.8397 9.95756 19.6843 9.96726 19.5241 9.98181C15.364 10.3019 11.3494 11.8492 8.04849 14.3858C7.97567 14.4392 7.90771 14.4925 7.83975 14.5507C3.42716 18.009 0.354366 23.2715 0.029126 29.6981C0.00970867 30.0715 0 30.4499 0 30.8282V62.8883C0.446599 62.8883 0.893197 62.8689 1.33009 62.8253C7.71354 62.1996 12.7912 57.1456 13.4368 50.7772C13.4853 50.3262 13.5048 49.8654 13.5048 49.3998V30.7457C13.5533 26.6861 16.8688 23.4024 20.9367 23.4024C24.7522 23.4024 27.8979 26.2883 28.3202 29.9842C28.3493 30.2607 28.3736 30.542 28.3736 30.8282V49.3173C28.3736 50.1661 28.8153 50.9567 29.5338 51.4029L33.791 54.0512C34.5823 54.541 35.5871 54.5459 36.3832 54.0609L40.6453 51.4466C41.3541 51.01 41.8055 50.2437 41.8055 49.4143V30.7409C41.8055 30.4984 41.8249 30.2655 41.8492 30.0376C42.2424 26.3126 45.4026 23.3976 49.2375 23.3976C53.3006 23.3976 56.6015 26.6667 56.6695 30.7021C56.6695 30.7409 56.6743 30.7845 56.6743 30.8233V42.1632L56.7277 43.4873C56.9316 46.4654 57.7811 49.2882 59.1501 51.8297C59.6355 52.7319 60.184 53.6001 60.7957 54.4198C61.5821 55.4723 62.4656 56.4472 63.4316 57.3348C63.6937 57.5724 63.9559 57.8052 64.2228 58.0284C64.3588 58.1448 64.4995 58.2563 64.6403 58.3727L64.7762 58.4794C64.8151 58.5085 64.8588 58.5425 64.8976 58.5716C64.9607 58.6201 65.0335 58.6734 65.116 58.7316C65.3685 58.9208 65.616 59.1003 65.8733 59.2749C66.4752 59.6871 67.0869 60.0558 67.7082 60.3953C68.6548 60.9094 69.616 61.3556 70.6014 61.7048C70.8102 61.7824 71.0238 61.8552 71.2422 61.9231C73.65 62.6943 76.1305 62.9902 78.5723 62.8544C78.7324 62.8495 78.8878 62.8398 79.048 62.8253C81.1353 62.6652 83.179 62.1996 85.1207 61.4478C87.0528 60.7008 88.878 59.6871 90.5188 58.4212C90.5916 58.3679 90.6595 58.3145 90.7275 58.2563C93.5867 56.001 95.8779 52.9938 97.2275 49.4046C97.9605 47.4645 98.4168 45.3498 98.5284 43.0944C98.5478 42.721 98.5575 42.3427 98.5575 41.9643V9.90906H98.5721H98.577Z" fill="url(#paint5_radial_29_2643)"/>
<path d="M98.577 9.90906C91.1159 9.90906 85.0674 15.9476 85.0674 23.3976V42.0516C85.0188 46.1113 81.7033 49.3949 77.6354 49.3949C73.5674 49.3949 70.2713 46.1259 70.2034 42.0904C70.2034 42.0516 70.1985 42.008 70.1985 41.9692V30.6293L70.1451 29.31C69.8684 25.2746 68.4121 21.5205 66.0821 18.3776C65.2956 17.3251 64.4122 16.3502 63.4461 15.4626C63.184 15.2249 62.9219 14.9921 62.6549 14.769C62.519 14.6526 62.3782 14.541 62.2374 14.4246L62.1015 14.3179C62.0627 14.2888 62.019 14.2549 61.9801 14.2258C61.917 14.1773 61.8442 14.1239 61.7617 14.0657C61.5093 13.8766 61.2617 13.6971 61.0044 13.5225C59.4899 12.4797 57.9025 11.6745 56.2763 11.0974C56.0676 11.0198 55.854 10.947 55.6355 10.8791C53.2278 10.1079 50.7472 9.81205 48.3055 9.94786C48.1453 9.95271 47.9899 9.96241 47.8298 9.97696C43.6696 10.2971 39.6551 11.8443 36.3541 14.381C36.2813 14.4343 36.2133 14.4877 36.1454 14.5459C36.0434 14.6283 35.9415 14.7108 35.8395 14.7933C35.4075 15.1522 34.7862 15.1376 34.3541 14.7787C34.3541 14.7787 34.3493 14.7787 34.3493 14.7739C34.2133 14.6574 34.0726 14.5459 33.9318 14.4295L33.7959 14.3228C33.757 14.2937 33.7134 14.2597 33.6745 14.2306C33.6114 14.1821 33.5386 14.1288 33.4561 14.0706C31.7182 12.761 29.8687 11.7764 27.9707 11.1022C27.7619 11.0246 27.5483 10.9519 27.3299 10.884C24.9222 10.1128 22.4416 9.8169 19.9999 9.95271C19.8397 9.95756 19.6843 9.96726 19.5241 9.98181C15.364 10.3019 11.3494 11.8492 8.04849 14.3858C7.97567 14.4392 7.90771 14.4925 7.83975 14.5507C3.42716 18.009 0.354366 23.2715 0.029126 29.6981C0.00970867 30.0715 0 30.4499 0 30.8282V62.8883C0.446599 62.8883 0.893197 62.8689 1.33009 62.8253C7.71354 62.1996 12.7912 57.1456 13.4368 50.7772C13.4853 50.3262 13.5048 49.8654 13.5048 49.3998V30.7457C13.5533 26.6861 16.8688 23.4024 20.9367 23.4024C24.7522 23.4024 27.8979 26.2883 28.3202 29.9842C28.3493 30.2607 28.3736 30.542 28.3736 30.8282V49.3173C28.3736 50.1661 28.8153 50.9567 29.5338 51.4029L33.791 54.0512C34.5823 54.541 35.5871 54.5459 36.3832 54.0609L40.6453 51.4466C41.3541 51.01 41.8055 50.2437 41.8055 49.4143V30.7409C41.8055 30.4984 41.8249 30.2655 41.8492 30.0376C42.2424 26.3126 45.4026 23.3976 49.2375 23.3976C53.3006 23.3976 56.6015 26.6667 56.6695 30.7021C56.6695 30.7409 56.6743 30.7845 56.6743 30.8233V42.1632L56.7277 43.4873C56.9316 46.4654 57.7811 49.2882 59.1501 51.8297C59.6355 52.7319 60.184 53.6001 60.7957 54.4198C61.5821 55.4723 62.4656 56.4472 63.4316 57.3348C63.6937 57.5724 63.9559 57.8052 64.2228 58.0284C64.3588 58.1448 64.4995 58.2563 64.6403 58.3727L64.7762 58.4794C64.8151 58.5085 64.8588 58.5425 64.8976 58.5716C64.9607 58.6201 65.0335 58.6734 65.116 58.7316C65.3685 58.9208 65.616 59.1003 65.8733 59.2749C66.4752 59.6871 67.0869 60.0558 67.7082 60.3953C68.6548 60.9094 69.616 61.3556 70.6014 61.7048C70.8102 61.7824 71.0238 61.8552 71.2422 61.9231C73.65 62.6943 76.1305 62.9902 78.5723 62.8544C78.7324 62.8495 78.8878 62.8398 79.048 62.8253C81.1353 62.6652 83.179 62.1996 85.1207 61.4478C87.0528 60.7008 88.878 59.6871 90.5188 58.4212C90.5916 58.3679 90.6595 58.3145 90.7275 58.2563C93.5867 56.001 95.8779 52.9938 97.2275 49.4046C97.9605 47.4645 98.4168 45.3498 98.5284 43.0944C98.5478 42.721 98.5575 42.3427 98.5575 41.9643V9.90906H98.5721H98.577Z" fill="url(#paint6_radial_29_2643)"/>
<path d="M98.577 9.90906C91.1159 9.90906 85.0674 15.9476 85.0674 23.3976V42.0516C85.0188 46.1113 81.7033 49.3949 77.6354 49.3949C73.5674 49.3949 70.2713 46.1259 70.2034 42.0904C70.2034 42.0516 70.1985 42.008 70.1985 41.9692V30.6293L70.1451 29.31C69.8684 25.2746 68.4121 21.5205 66.0821 18.3776C65.2956 17.3251 64.4122 16.3502 63.4461 15.4626C63.184 15.2249 62.9219 14.9921 62.6549 14.769C62.519 14.6526 62.3782 14.541 62.2374 14.4246L62.1015 14.3179C62.0627 14.2888 62.019 14.2549 61.9801 14.2258C61.917 14.1773 61.8442 14.1239 61.7617 14.0657C61.5093 13.8766 61.2617 13.6971 61.0044 13.5225C59.4899 12.4797 57.9025 11.6745 56.2763 11.0974C56.0676 11.0198 55.854 10.947 55.6355 10.8791C53.2278 10.1079 50.7472 9.81205 48.3055 9.94786C48.1453 9.95271 47.9899 9.96241 47.8298 9.97696C43.6696 10.2971 39.6551 11.8443 36.3541 14.381C36.2813 14.4343 36.2133 14.4877 36.1454 14.5459C36.0434 14.6283 35.9415 14.7108 35.8395 14.7933C35.4075 15.1522 34.7862 15.1376 34.3541 14.7787C34.3541 14.7787 34.3493 14.7787 34.3493 14.7739C34.2133 14.6574 34.0726 14.5459 33.9318 14.4295L33.7959 14.3228C33.757 14.2937 33.7134 14.2597 33.6745 14.2306C33.6114 14.1821 33.5386 14.1288 33.4561 14.0706C31.7182 12.761 29.8687 11.7764 27.9707 11.1022C27.7619 11.0246 27.5483 10.9519 27.3299 10.884C24.9222 10.1128 22.4416 9.8169 19.9999 9.95271C19.8397 9.95756 19.6843 9.96726 19.5241 9.98181C15.364 10.3019 11.3494 11.8492 8.04849 14.3858C7.97567 14.4392 7.90771 14.4925 7.83975 14.5507C3.42716 18.009 0.354366 23.2715 0.029126 29.6981C0.00970867 30.0715 0 30.4499 0 30.8282V62.8883C0.446599 62.8883 0.893197 62.8689 1.33009 62.8253C7.71354 62.1996 12.7912 57.1456 13.4368 50.7772C13.4853 50.3262 13.5048 49.8654 13.5048 49.3998V30.7457C13.5533 26.6861 16.8688 23.4024 20.9367 23.4024C24.7522 23.4024 27.8979 26.2883 28.3202 29.9842C28.3493 30.2607 28.3736 30.542 28.3736 30.8282V49.3173C28.3736 50.1661 28.8153 50.9567 29.5338 51.4029L33.791 54.0512C34.5823 54.541 35.5871 54.5459 36.3832 54.0609L40.6453 51.4466C41.3541 51.01 41.8055 50.2437 41.8055 49.4143V30.7409C41.8055 30.4984 41.8249 30.2655 41.8492 30.0376C42.2424 26.3126 45.4026 23.3976 49.2375 23.3976C53.3006 23.3976 56.6015 26.6667 56.6695 30.7021C56.6695 30.7409 56.6743 30.7845 56.6743 30.8233V42.1632L56.7277 43.4873C56.9316 46.4654 57.7811 49.2882 59.1501 51.8297C59.6355 52.7319 60.184 53.6001 60.7957 54.4198C61.5821 55.4723 62.4656 56.4472 63.4316 57.3348C63.6937 57.5724 63.9559 57.8052 64.2228 58.0284C64.3588 58.1448 64.4995 58.2563 64.6403 58.3727L64.7762 58.4794C64.8151 58.5085 64.8588 58.5425 64.8976 58.5716C64.9607 58.6201 65.0335 58.6734 65.116 58.7316C65.3685 58.9208 65.616 59.1003 65.8733 59.2749C66.4752 59.6871 67.0869 60.0558 67.7082 60.3953C68.6548 60.9094 69.616 61.3556 70.6014 61.7048C70.8102 61.7824 71.0238 61.8552 71.2422 61.9231C73.65 62.6943 76.1305 62.9902 78.5723 62.8544C78.7324 62.8495 78.8878 62.8398 79.048 62.8253C81.1353 62.6652 83.179 62.1996 85.1207 61.4478C87.0528 60.7008 88.878 59.6871 90.5188 58.4212C90.5916 58.3679 90.6595 58.3145 90.7275 58.2563C93.5867 56.001 95.8779 52.9938 97.2275 49.4046C97.9605 47.4645 98.4168 45.3498 98.5284 43.0944C98.5478 42.721 98.5575 42.3427 98.5575 41.9643V9.90906H98.5721H98.577Z" fill="#8A6CFF" fill-opacity="0.4"/>
<path d="M21.1309 9.90424V10.8888C23.1455 10.8888 25.1309 11.1993 27.0338 11.8104C27.2183 11.8686 27.4124 11.9365 27.6309 12.0141C27.6309 12.0141 27.6357 12.0141 27.6406 12.0141C29.4901 12.6689 31.2473 13.6195 32.8638 14.8418C32.8638 14.8418 32.8736 14.8466 32.8736 14.8515C32.9464 14.9048 33.0143 14.9533 33.0774 15.0018C33.0968 15.0164 33.1114 15.0261 33.1308 15.0406C33.1405 15.0455 33.1454 15.0552 33.1551 15.06L33.1842 15.0843L33.3153 15.1862C33.3638 15.225 33.4075 15.2638 33.4561 15.3026C33.5289 15.3608 33.6066 15.4238 33.6794 15.482C33.7036 15.5063 33.7328 15.5305 33.7619 15.5499C34.1454 15.8603 34.626 16.0301 35.1163 16.0301C35.6065 16.0301 36.092 15.8555 36.4706 15.5451L36.4803 15.5354C36.5726 15.4578 36.6696 15.3802 36.7619 15.3074C36.7667 15.3026 36.7764 15.2977 36.7813 15.2929C36.8395 15.2444 36.8978 15.1959 36.9512 15.1571C36.956 15.1571 36.9609 15.1474 36.9658 15.1474C40.1453 12.7028 43.9269 11.2526 47.9123 10.947C48.0628 10.9373 48.2084 10.9276 48.354 10.9228C48.3589 10.9228 48.3637 10.9228 48.3686 10.9228C48.7278 10.9034 49.0919 10.8937 49.4462 10.8937C51.4608 10.8937 53.4462 11.2041 55.3491 11.8152C55.5336 11.8734 55.7278 11.9413 55.9462 12.0189C55.9462 12.0189 55.9511 12.0189 55.9559 12.0189C57.5239 12.5767 59.0384 13.3528 60.451 14.3277C60.718 14.512 60.9559 14.6866 61.1743 14.8515C61.1743 14.8515 61.1792 14.8563 61.184 14.8612C61.2568 14.9145 61.3248 14.963 61.3831 15.0115C61.3976 15.0212 61.4025 15.0261 61.417 15.0358C61.4267 15.0455 61.4365 15.0503 61.4462 15.06C61.4607 15.0697 61.4753 15.0843 61.4898 15.094L61.6161 15.1959L61.7471 15.3026C61.8394 15.3753 61.9267 15.4481 62.0141 15.5208C62.2665 15.7342 62.5238 15.9622 62.7763 16.1902C63.7083 17.0438 64.5529 17.9799 65.2908 18.9645C67.5626 22.025 68.9024 25.619 69.1645 29.3634L69.2179 30.6487V41.9692C69.2179 42.0274 69.218 42.0711 69.2228 42.105C69.2616 44.3264 70.15 46.4023 71.7276 47.9593C73.3101 49.521 75.4121 50.3795 77.6354 50.3795C79.8586 50.3795 81.9654 49.5162 83.5528 47.9447C85.1402 46.3781 86.0285 44.2925 86.0528 42.0662C86.0528 42.0662 86.0528 42.0517 86.0528 42.0468V23.3928C86.0528 16.8352 91.1401 11.4369 97.5818 10.9276V41.9692C97.5818 42.3524 97.5721 42.7016 97.5527 43.046C97.5527 43.046 97.5527 43.0508 97.5527 43.0557C97.4508 45.1316 97.0333 47.1541 96.3148 49.0651C95.0721 52.3681 92.9314 55.2783 90.1256 57.49C90.1159 57.4997 90.1013 57.5094 90.0916 57.5191C90.0333 57.5676 89.9896 57.6064 89.9411 57.6404C89.9362 57.6404 89.9314 57.6501 89.9265 57.6501C88.3683 58.8481 86.6353 59.823 84.7712 60.536C82.9072 61.2538 80.9557 61.6952 78.9752 61.8504C78.8247 61.8601 78.679 61.8698 78.5383 61.8746C78.5334 61.8746 78.5286 61.8746 78.5237 61.8746C78.1645 61.894 77.8004 61.9037 77.446 61.9037C75.4315 61.9037 73.4461 61.5933 71.548 60.987C71.3636 60.9288 71.1694 60.8609 70.9509 60.7833C70.9509 60.7833 70.9461 60.7833 70.9412 60.7833C70.0383 60.4632 69.116 60.0461 68.1937 59.5368C67.5335 59.1779 66.9607 58.8287 66.4461 58.4746C66.1791 58.2854 65.9413 58.1157 65.7228 57.9508C65.7228 57.9508 65.718 57.9459 65.7131 57.9411C65.6403 57.8877 65.5723 57.8392 65.5092 57.7907C65.4898 57.7762 65.4753 57.7665 65.4558 57.7519C65.4461 57.7471 65.4413 57.7374 65.4316 57.7325L65.4024 57.7083L65.2714 57.6064C65.2277 57.5676 65.1791 57.5288 65.1355 57.4949C65.0481 57.4221 64.9558 57.3493 64.8733 57.2814C64.6209 57.068 64.3636 56.8401 64.1112 56.6121C63.1792 55.7585 62.3345 54.8224 61.5966 53.8329C61.0238 53.0617 60.4947 52.2323 60.0287 51.3641C58.6938 48.8808 57.9171 46.2132 57.7229 43.434L57.6695 42.1438V30.8233C57.6695 30.7651 57.6695 30.7166 57.6646 30.6875C57.6258 28.471 56.7375 26.3951 55.1549 24.8333C53.5676 23.2715 51.4705 22.413 49.2472 22.413C47.155 22.413 45.1502 23.1891 43.6016 24.5908C42.0628 25.9828 41.0968 27.8841 40.8783 29.9309C40.8444 30.2462 40.8298 30.4935 40.8298 30.7409V49.4143C40.8298 49.8897 40.5628 50.3456 40.1405 50.6075L35.8784 53.2218C35.6454 53.3624 35.3784 53.4401 35.1017 53.4401C34.825 53.4401 34.5531 53.3624 34.3201 53.2169L30.0629 50.5687C29.626 50.2971 29.3687 49.8315 29.3687 49.3173V30.8282C29.3687 30.5372 29.3493 30.2365 29.3105 29.8727C28.825 25.6239 25.2328 22.4179 20.9465 22.4179C18.7183 22.4179 16.6164 23.2812 15.029 24.8527C13.4417 26.4193 12.5533 28.5049 12.529 30.7312C12.529 30.7312 12.529 30.7457 12.529 30.7506V49.4046C12.529 49.846 12.5096 50.2728 12.4659 50.6803C11.8688 56.5733 7.14558 61.2683 1.24271 61.8455C1.16019 61.8552 1.07766 61.8601 0.995138 61.8698V30.8331C0.995138 30.4499 1.00485 30.1007 1.02426 29.7563C1.02426 29.7563 1.02426 29.7514 1.02426 29.7466C1.31067 23.9845 3.95628 18.8529 8.4611 15.3026C8.47081 15.2929 8.48538 15.2832 8.49508 15.2735C8.54848 15.225 8.59703 15.1862 8.64557 15.1522C8.65042 15.1522 8.65528 15.1425 8.66013 15.1425C11.8397 12.698 15.6212 11.2478 19.6067 10.9422C19.7571 10.9325 19.9028 10.9228 20.0484 10.9179C20.0533 10.9179 20.0581 10.9179 20.063 10.9179C20.4222 10.8985 20.7863 10.8888 21.1406 10.8888V9.90424M21.1309 9.90424C20.7523 9.90424 20.3736 9.91394 19.9999 9.93334C19.8397 9.93819 19.6843 9.94789 19.5241 9.96244C15.364 10.2826 11.3494 11.8298 8.04849 14.3665C7.97567 14.4198 7.90771 14.4732 7.83975 14.5314C3.42716 18.009 0.354366 23.2715 0.029126 29.6981C0.00970867 30.0716 0 30.4499 0 30.8282V62.8883C0.446599 62.8883 0.893197 62.8689 1.33009 62.8253C7.71354 62.1996 12.7912 57.1456 13.4368 50.7773C13.4853 50.3262 13.5048 49.8654 13.5048 49.3998V30.7457C13.5533 26.6861 16.8688 23.4025 20.9367 23.4025C24.7522 23.4025 27.8979 26.2884 28.3202 29.9843C28.3493 30.2607 28.3736 30.542 28.3736 30.8282V49.3173C28.3736 50.1661 28.8153 50.9567 29.5338 51.4029L33.791 54.0512C34.1891 54.2985 34.6405 54.4198 35.092 54.4198C35.5434 54.4198 35.9852 54.2985 36.3784 54.056L40.6405 51.4417C41.3492 51.0052 41.8007 50.2389 41.8007 49.4095V30.736C41.8007 30.4935 41.8201 30.2607 41.8444 30.0328C42.2376 26.3078 45.3977 23.3928 49.2327 23.3928C53.2957 23.3928 56.5967 26.6618 56.6646 30.6972C56.6646 30.736 56.6695 30.7797 56.6695 30.8185V42.1584L56.7229 43.4825C56.9268 46.4605 57.7763 49.2834 59.1452 51.8249C59.6306 52.7271 60.1792 53.5953 60.7908 54.415C61.5772 55.4675 62.4607 56.4424 63.4267 57.3299C63.6889 57.5676 63.951 57.8004 64.218 58.0235C64.3539 58.1399 64.4947 58.2515 64.6355 58.3679L64.7714 58.4746C64.8102 58.5037 64.8539 58.5377 64.8927 58.5668C64.9558 58.6153 65.0287 58.6686 65.1112 58.7268C65.3636 58.916 65.6112 59.0954 65.8685 59.27C66.4704 59.6823 67.082 60.0509 67.7034 60.3905C68.65 60.9046 69.6111 61.3508 70.5966 61.7C70.8053 61.7776 71.0189 61.8504 71.2374 61.9183C73.2713 62.5731 75.3635 62.8835 77.4315 62.8835C77.8101 62.8835 78.1888 62.8738 78.5625 62.8544C78.7227 62.8495 78.8781 62.8398 79.0383 62.8253C81.1256 62.6652 83.1693 62.1996 85.111 61.4478C87.0431 60.7009 88.8683 59.6872 90.5091 58.4213C90.5819 58.3679 90.6498 58.3145 90.7178 58.2563C93.577 56.001 95.8682 52.9938 97.2177 49.4046C97.9508 47.4645 98.4071 45.3498 98.5187 43.0945C98.5381 42.721 98.5478 42.3427 98.5478 41.9644V9.90909C91.0916 9.91394 85.0479 15.9525 85.0479 23.3976V42.0517C84.9994 46.1113 81.6839 49.3949 77.6159 49.3949C73.548 49.3949 70.2519 46.1259 70.184 42.0905C70.184 42.0517 70.1791 42.008 70.1791 41.9692V30.6293L70.1257 29.3101C69.849 25.2747 68.3927 21.5206 66.0626 18.3776C65.2762 17.3251 64.3927 16.3502 63.4267 15.4626C63.1646 15.225 62.9025 14.9921 62.6355 14.769C62.4995 14.6526 62.3588 14.5411 62.218 14.4247L62.0821 14.318C62.0432 14.2889 61.9996 14.2549 61.9607 14.2258C61.8976 14.1773 61.8248 14.124 61.7423 14.0657C61.4898 13.8766 61.2423 13.6971 60.985 13.5225C59.4704 12.4797 57.8831 11.6746 56.2569 11.0974C56.0481 11.0198 55.8345 10.947 55.6161 10.8791C53.5821 10.2244 51.4899 9.91394 49.422 9.91394C49.0433 9.91394 48.6647 9.92364 48.2909 9.94304C48.1307 9.94789 47.9754 9.95759 47.8152 9.97214C43.655 10.2923 39.6405 11.8395 36.3395 14.3762C36.2667 14.4295 36.1988 14.4829 36.1308 14.5411C36.0289 14.6235 35.9269 14.706 35.825 14.7884C35.6114 14.963 35.3541 15.0503 35.0968 15.0503C34.8396 15.0503 34.558 14.9582 34.3396 14.7739C34.3396 14.7739 34.3347 14.7739 34.3347 14.769C34.1988 14.6526 34.058 14.5411 33.9172 14.4247L33.7813 14.318C33.7425 14.2889 33.6988 14.2549 33.66 14.2258C33.5968 14.1773 33.524 14.124 33.4415 14.0657C31.7037 12.7562 29.8542 11.7716 27.9561 11.0974C27.7474 11.0198 27.5338 10.947 27.3153 10.8791C25.2814 10.2244 23.1892 9.91394 21.1212 9.91394L21.1309 9.90424Z" fill="#8A6CFF" fill-opacity="0.2"/>
<path d="M1.83487 32.3463H1.83002C1.38766 32.3463 1.02905 32.7046 1.02905 33.1466V58.2709C1.02905 58.7129 1.38766 59.0712 1.83002 59.0712H1.83487C2.27723 59.0712 2.63584 58.7129 2.63584 58.2709V33.1466C2.63584 32.7046 2.27723 32.3463 1.83487 32.3463Z" fill="url(#paint7_radial_29_2643)"/>
<path d="M30.9657 29.4459H29.3589V49.8799H30.9657V29.4459Z" fill="url(#paint8_radial_29_2643)"/>
<path d="M87.6644 27.7774H86.0576V45.1607H87.6644V27.7774Z" fill="url(#paint9_radial_29_2643)"/>
<path d="M59.2616 29.4119H57.6548V46.6012H59.2616V29.4119Z" fill="url(#paint10_radial_29_2643)"/>
<path d="M40.8104 29.4556H39.2036V49.8897H40.8104V29.4556Z" fill="url(#paint11_radial_29_2643)"/>
<path d="M97.5819 23.3297H95.9751V43.7638H97.5819V23.3297Z" fill="url(#paint12_radial_29_2643)"/>
<path d="M69.2179 30.7166H67.6111V43.9093H69.2179V30.7166Z" fill="url(#paint13_radial_29_2643)"/>
<path d="M12.5145 29.441H10.9077V49.8751H12.5145V29.441Z" fill="url(#paint14_radial_29_2643)"/>
<path d="M76.7373 23.548C78.4024 19.5368 79.7519 18.1884 83.7664 16.5297C79.747 14.866 78.3975 13.5225 76.7373 9.51135C75.0723 13.5225 73.7228 14.8709 69.7083 16.5297C73.7276 18.1933 75.0771 19.5368 76.7373 23.548Z" fill="#8A6CFF" fill-opacity="0.2"/>
<path d="M74.8198 13.0762C75.1645 14.2548 75.8392 15.4286 76.8441 16.4277C77.8489 17.4269 79.0091 18.1011 80.1839 18.4454C81.1013 17.7422 82.2421 17.1553 83.7664 16.5296C79.747 14.866 78.3975 13.5224 76.7373 9.51129C76.1062 11.0294 75.5237 12.1644 74.8247 13.0811L74.8198 13.0762Z" fill="url(#paint15_radial_29_2643)"/>
<g opacity="0.3" style="mix-blend-mode:screen">
<path d="M76.7373 9.51617C76.4751 11.0246 77.1984 12.9695 78.7469 14.5168C80.2955 16.064 82.2421 16.7818 83.7566 16.5248C79.7518 14.866 78.4023 13.5176 76.7421 9.51617H76.7373Z" fill="url(#paint16_radial_29_2643)"/>
</g>
<g opacity="0.8" style="mix-blend-mode:screen">
<path d="M76.7373 9.51132C75.0723 13.5225 73.7228 14.8708 69.7083 16.5296C71.2179 16.7915 73.1742 16.0689 74.7228 14.5168C76.2713 12.9647 76.9995 11.0197 76.7373 9.50647V9.51132Z" fill="url(#paint17_radial_29_2643)"/>
</g>
<path d="M83.747 16.5345C82.1694 16.1562 80.1403 16.8109 78.5772 18.3776C77.0141 19.9393 76.3539 21.9619 76.7325 23.5431C76.7325 23.5431 76.7325 23.5431 76.7325 23.5479C78.3976 19.5416 79.7422 18.1933 83.747 16.5345Z" fill="url(#paint18_radial_29_2643)"/>
<g opacity="0.5" style="mix-blend-mode:screen">
<path d="M74.7616 18.5376C73.1791 16.9031 71.184 16.1707 69.7083 16.5296C73.7228 18.1933 75.0723 19.5368 76.7373 23.5479C76.7422 23.5334 76.747 23.5188 76.7567 23.5091C76.98 22.0153 76.2616 20.0849 74.7665 18.5376H74.7616Z" fill="url(#paint19_radial_29_2643)"/>
</g>
<path d="M86.7945 10.2209C88.0065 7.30117 88.9888 6.31968 91.911 5.11224C88.9853 3.90126 88.003 2.9233 86.7945 0.00354004C85.5825 2.9233 84.6002 3.90479 81.678 5.11224C84.6037 6.32321 85.586 7.30117 86.7945 10.2209Z" fill="#8A6CFF" fill-opacity="0.2"/>
<path d="M85.3989 2.59849C85.6498 3.45641 86.141 4.3108 86.8724 5.03809C87.6038 5.76539 88.4483 6.25613 89.3035 6.5068C89.9713 5.99487 90.8017 5.56768 91.9112 5.11224C88.9854 3.90126 88.0031 2.9233 86.7947 0.00354004C86.3353 1.1086 85.9113 1.93475 85.4025 2.60202L85.3989 2.59849Z" fill="url(#paint20_radial_29_2643)"/>
<g opacity="0.3" style="mix-blend-mode:screen">
<path d="M86.7947 0.00708008C86.6039 1.10508 87.1304 2.52083 88.2576 3.64707C89.3848 4.77331 90.8017 5.29583 91.9042 5.10871C88.989 3.90127 88.0067 2.91978 86.7982 0.00708008H86.7947Z" fill="url(#paint21_radial_29_2643)"/>
</g>
<g opacity="0.8" style="mix-blend-mode:screen">
<path d="M86.7945 0.00353062C85.5825 2.92329 84.6002 3.90478 81.678 5.11223C82.7769 5.30288 84.2009 4.77683 85.3281 3.64705C86.4553 2.51728 86.9853 1.10153 86.7945 0V0.00353062Z" fill="url(#paint22_radial_29_2643)"/>
</g>
<path d="M91.897 5.11573C90.7486 4.84035 89.2716 5.31698 88.1338 6.45734C86.996 7.59418 86.5154 9.06641 86.791 10.2174C86.791 10.2174 86.791 10.2174 86.791 10.2209C88.003 7.30467 88.9818 6.32318 91.897 5.11573Z" fill="url(#paint23_radial_29_2643)"/>
<g opacity="0.5" style="mix-blend-mode:screen">
<path d="M85.3564 6.57389C84.2044 5.3841 82.7522 4.85099 81.678 5.11225C84.6002 6.32323 85.5825 7.30119 86.7945 10.2209C86.798 10.2104 86.8016 10.1998 86.8086 10.1927C86.9712 9.10529 86.4482 7.70014 85.3599 6.57389H85.3564Z" fill="url(#paint24_radial_29_2643)"/>
</g>
</g>
<defs>
<linearGradient id="paint0_linear_29_2643" x1="49.2885" y1="3.20032e-06" x2="49.2885" y2="62.8883" gradientUnits="userSpaceOnUse">
<stop stop-color="white" stop-opacity="0.2"/>
<stop offset="1" stop-color="white" stop-opacity="0.1"/>
</linearGradient>
<linearGradient id="paint1_linear_29_2643" x1="14.0581" y1="-4.54952" x2="28.7671" y2="12.5792" gradientUnits="userSpaceOnUse">
<stop offset="0.45" stop-color="white"/>
<stop offset="0.61" stop-color="white" stop-opacity="0.3"/>
<stop offset="0.8" stop-color="white" stop-opacity="0"/>
</linearGradient>
<linearGradient id="paint2_linear_29_2643" x1="51.456" y1="-4.57375" x2="64.3323" y2="19.4537" gradientUnits="userSpaceOnUse">
<stop offset="0.35" stop-color="white"/>
<stop offset="0.42" stop-color="white" stop-opacity="0.3"/>
<stop offset="0.68" stop-color="white" stop-opacity="0"/>
</linearGradient>
<radialGradient id="paint3_radial_29_2643" cx="0" cy="0" r="1" gradientTransform="matrix(3.0804 -15.7605 -42.5268 -8.29791 70.597 72.2453)" gradientUnits="userSpaceOnUse">
<stop offset="0.24" stop-color="white"/>
<stop offset="0.36" stop-color="white" stop-opacity="0.3"/>
<stop offset="0.66" stop-color="white" stop-opacity="0"/>
</radialGradient>
<radialGradient id="paint4_radial_29_2643" cx="0" cy="0" r="1" gradientTransform="matrix(-5.95785 -6.88913 -16.3623 14.1266 11.2874 61.3376)" gradientUnits="userSpaceOnUse">
<stop offset="0.27" stop-color="white"/>
<stop offset="0.5" stop-color="white" stop-opacity="0.3"/>
<stop offset="0.67" stop-color="white" stop-opacity="0"/>
</radialGradient>
<radialGradient id="paint5_radial_29_2643" cx="0" cy="0" r="1" gradientTransform="matrix(7.66239 8.18704 10.236 -9.56392 3.52281 9.92263)" gradientUnits="userSpaceOnUse">
<stop stop-color="white"/>
<stop offset="0.74" stop-color="white" stop-opacity="0"/>
</radialGradient>
<radialGradient id="paint6_radial_29_2643" cx="0" cy="0" r="1" gradientTransform="matrix(6.70309 7.0997 8.87724 -8.36722 44.8986 8.49189)" gradientUnits="userSpaceOnUse">
<stop stop-color="white"/>
<stop offset="0.74" stop-color="white" stop-opacity="0"/>
</radialGradient>
<radialGradient id="paint7_radial_29_2643" cx="0" cy="0" r="1" gradientUnits="userSpaceOnUse" gradientTransform="translate(-1.36049 46.6024) scale(4.8272 22.1802)">
<stop stop-color="white"/>
<stop offset="1" stop-color="white" stop-opacity="0"/>
</radialGradient>
<radialGradient id="paint8_radial_29_2643" cx="0" cy="0" r="1" gradientUnits="userSpaceOnUse" gradientTransform="translate(26.892 38.9947) scale(4.8272 14.5243)">
<stop stop-color="white"/>
<stop offset="1" stop-color="white" stop-opacity="0"/>
</radialGradient>
<radialGradient id="paint9_radial_29_2643" cx="0" cy="0" r="1" gradientUnits="userSpaceOnUse" gradientTransform="translate(83.6705 34.7618) scale(4.82719 12.3567)">
<stop stop-color="white"/>
<stop offset="1" stop-color="white" stop-opacity="0"/>
</radialGradient>
<radialGradient id="paint10_radial_29_2643" cx="0" cy="0" r="1" gradientUnits="userSpaceOnUse" gradientTransform="translate(55.3513 38.2994) scale(4.82721 12.2189)">
<stop stop-color="white"/>
<stop offset="1" stop-color="white" stop-opacity="0"/>
</radialGradient>
<radialGradient id="paint11_radial_29_2643" cx="0" cy="0" r="1" gradientUnits="userSpaceOnUse" gradientTransform="translate(43.1429 39.0335) rotate(180) scale(4.82719 14.5243)">
<stop stop-color="white"/>
<stop offset="1" stop-color="white" stop-opacity="0"/>
</radialGradient>
<radialGradient id="paint12_radial_29_2643" cx="0" cy="0" r="1" gradientUnits="userSpaceOnUse" gradientTransform="translate(100.002 32.9407) rotate(180) scale(4.82719 14.5243)">
<stop stop-color="white"/>
<stop offset="1" stop-color="white" stop-opacity="0"/>
</radialGradient>
<radialGradient id="paint13_radial_29_2643" cx="0" cy="0" r="1" gradientUnits="userSpaceOnUse" gradientTransform="translate(71.638 35.1494) rotate(180) scale(4.82719 9.37902)">
<stop stop-color="white"/>
<stop offset="1" stop-color="white" stop-opacity="0"/>
</radialGradient>
<radialGradient id="paint14_radial_29_2643" cx="0" cy="0" r="1" gradientUnits="userSpaceOnUse" gradientTransform="translate(14.8452 40.2969) rotate(180) scale(4.8272 14.5243)">
<stop stop-color="white"/>
<stop offset="1" stop-color="white" stop-opacity="0"/>
</radialGradient>
<radialGradient id="paint15_radial_29_2643" cx="0" cy="0" r="1" gradientUnits="userSpaceOnUse" gradientTransform="translate(80.2809 13.7553) scale(4.84462 4.84054)">
<stop offset="0.11" stop-color="white"/>
<stop offset="1" stop-color="white" stop-opacity="0.11"/>
</radialGradient>
<radialGradient id="paint16_radial_29_2643" cx="0" cy="0" r="1" gradientUnits="userSpaceOnUse" gradientTransform="translate(81.5527 13.0472) scale(3.38832 3.38547)">
<stop offset="0.379808" stop-color="white"/>
<stop offset="1" stop-color="white"/>
</radialGradient>
<radialGradient id="paint17_radial_29_2643" cx="0" cy="0" r="1" gradientUnits="userSpaceOnUse" gradientTransform="translate(70.2762 9.97694) scale(7.00966 7.00376)">
<stop offset="0.76" stop-color="white" stop-opacity="0.5"/>
<stop offset="1" stop-color="white"/>
</radialGradient>
<radialGradient id="paint18_radial_29_2643" cx="0" cy="0" r="1" gradientUnits="userSpaceOnUse" gradientTransform="translate(79.3636 18.9014) scale(3.66502 3.66194)">
<stop offset="0.36" stop-color="white" stop-opacity="0.7"/>
<stop offset="1" stop-color="white" stop-opacity="0.3"/>
</radialGradient>
<radialGradient id="paint19_radial_29_2643" cx="0" cy="0" r="1" gradientUnits="userSpaceOnUse" gradientTransform="translate(74.5286 18.9111) scale(7.3446 7.33842)">
<stop stop-color="white"/>
<stop offset="0.41" stop-color="white" stop-opacity="0.4"/>
<stop offset="0.74" stop-color="white"/>
</radialGradient>
<radialGradient id="paint20_radial_29_2643" cx="0" cy="0" r="1" gradientUnits="userSpaceOnUse" gradientTransform="translate(89.3741 3.09276) scale(3.52645 3.52348)">
<stop offset="0.11" stop-color="white"/>
<stop offset="1" stop-color="white" stop-opacity="0.11"/>
</radialGradient>
<radialGradient id="paint21_radial_29_2643" cx="0" cy="0" r="1" gradientUnits="userSpaceOnUse" gradientTransform="translate(90.2999 2.57732) scale(2.46639 2.46432)">
<stop offset="0.379808" stop-color="white"/>
<stop offset="1" stop-color="white"/>
</radialGradient>
<radialGradient id="paint22_radial_29_2643" cx="0" cy="0" r="1" gradientUnits="userSpaceOnUse" gradientTransform="translate(82.0914 0.342463) scale(5.1024 5.09811)">
<stop offset="0.76" stop-color="white" stop-opacity="0.5"/>
<stop offset="1" stop-color="white"/>
</radialGradient>
<radialGradient id="paint23_radial_29_2643" cx="0" cy="0" r="1" gradientUnits="userSpaceOnUse" gradientTransform="translate(88.7062 6.83864) scale(2.66781 2.66556)">
<stop offset="0.36" stop-color="white" stop-opacity="0.7"/>
<stop offset="1" stop-color="white" stop-opacity="0.3"/>
</radialGradient>
<radialGradient id="paint24_radial_29_2643" cx="0" cy="0" r="1" gradientUnits="userSpaceOnUse" gradientTransform="translate(85.1868 6.84575) scale(5.34621 5.34171)">
<stop stop-color="white"/>
<stop offset="0.41" stop-color="white" stop-opacity="0.4"/>
<stop offset="0.74" stop-color="white"/>
</radialGradient>
<clipPath id="clip0_29_2643">
<rect width="98.577" height="62.898" fill="white"/>
</clipPath>
</defs>
</svg>
